<svg width="61" height="61" viewBox="0 0 61 61" fill="none" xmlns="http://www.w3.org/2000/svg">
<path d="M0.815422 0.00569257C0.352782 0.0525051 0.00138761 0.443111 0.00339808 0.907719V59.9234C0.00188778 59.9536 0.00188778 59.9833 0.00339808 60.0135C-0.00113269 60.0659 -0.00113269 60.1187 0.00339808 60.1716V60.1937C0.0139699 60.2793 0.0366234 60.3629 0.0708568 60.4419C0.0960276 60.4973 0.126234 60.5501 0.161473 60.6C0.175065 60.6231 0.190168 60.6458 0.206278 60.6674V60.6901C0.228429 60.7057 0.251083 60.7208 0.27424 60.7349C0.31552 60.7766 0.360829 60.8144 0.40916 60.8476C0.431311 60.8632 0.453966 60.8783 0.477122 60.8924H0.499775C0.521423 60.908 0.544077 60.9231 0.567235 60.9372C0.625631 60.9578 0.686043 60.9729 0.747455 60.9815C0.866766 61.0062 0.989601 61.0062 1.10841 60.9815H60.0848C60.3264 60.985 60.559 60.8914 60.7312 60.7223C60.9028 60.5526 61 60.3211 61 60.0795C61 59.8384 60.9028 59.6068 60.7312 59.4372C60.559 59.2675 60.3264 59.1744 60.0848 59.1774H55.9578V28.8462C55.9578 28.3483 55.554 27.9442 55.0556 27.9442H42.0417C41.5438 27.9442 41.1396 28.3483 41.1396 28.8462V59.1774H38.2076V17.3917C38.2076 16.8934 37.8039 16.4897 37.3055 16.4897H24.3148C23.8169 16.4897 23.4131 16.8934 23.4126 17.3917V59.1774H20.458V7.58156H20.4585C20.4585 7.08323 20.0543 6.67953 19.5564 6.67953H6.56567C6.53546 6.67802 6.50526 6.67802 6.47555 6.67953C6.01291 6.72584 5.66102 7.11645 5.66353 7.58156V59.1774H1.80678V0.906565C1.80829 0.650854 1.70056 0.406727 1.51126 0.234582C1.32249 0.0629389 1.06875 -0.0211297 0.814534 0.00453935L0.815422 0.00569257ZM7.46866 8.48487H18.6553V59.1787H7.46866V8.48487ZM25.2188 18.2944H36.4054V59.1781H25.2188V18.2944ZM42.9457 29.7499H54.155V59.1791H42.9457V29.7499Z" fill="#232323"/>
</svg>
