<svg width="73" height="64" viewBox="0 0 73 64" fill="none" xmlns="http://www.w3.org/2000/svg">
<path d="M38.6319 26.6994L29.8028 35.3196L25.1775 30.8041V30.8036C25.0097 30.6359 24.7824 30.5425 24.5451 30.5436C24.3082 30.5451 24.0819 30.6411 23.9163 30.811C23.7507 30.9803 23.66 31.2092 23.6642 31.446C23.6684 31.6829 23.7676 31.9081 23.939 32.0716L29.1836 37.1916C29.528 37.5282 30.0776 37.5282 30.4215 37.1916L39.8704 27.967C40.0419 27.804 40.141 27.5783 40.1453 27.3414C40.15 27.1046 40.0587 26.8757 39.8937 26.7064C39.728 26.5365 39.5012 26.4405 39.2644 26.4395C39.0276 26.4379 38.7997 26.5318 38.6325 26.6995L38.6319 26.6994Z" fill="#232323"/>
<path d="M54.6355 25.1143V23.072H58.0192C58.5087 23.072 58.9053 22.6754 58.9053 22.1859V18.7706C58.9053 18.2811 58.5087 17.8845 58.0192 17.8845H54.2975L57.6711 13.8098C57.9612 13.4591 57.9391 12.9459 57.6189 12.622L51.2772 6.19919C50.9544 5.87217 50.4349 5.84579 50.081 6.13959L45.3713 10.0396C43.0816 8.61967 40.5846 7.5659 37.9705 6.91493L37.3813 0.801209C37.3375 0.347065 36.9556 0 36.4994 0H27.3929C26.9361 0 26.5542 0.347065 26.5104 0.801209L25.9213 6.91439C23.302 7.55367 20.8012 8.60644 18.5137 10.0342L13.8104 6.13945C13.458 5.84776 12.9416 5.87203 12.6183 6.19537L6.19496 12.6187C5.87163 12.9415 5.84737 13.4579 6.13905 13.8102L10.0396 18.5199C8.61967 20.8096 7.56536 23.3066 6.91439 25.9211L0.80121 26.5108C0.347066 26.5546 0 26.936 0 27.3927V36.4992V36.4987C0 36.9555 0.346539 37.3374 0.80121 37.3812L6.91398 37.9703C7.55327 40.5896 8.60657 43.0904 10.0338 45.3779L6.13905 50.0818C5.84736 50.4341 5.87162 50.95 6.19496 51.2733L12.6183 57.6966C12.9416 58.02 13.458 58.0442 13.8104 57.7526L18.52 53.852C20.8097 55.2719 23.3072 56.3257 25.9218 56.9767L26.511 63.0904C26.5547 63.5445 26.9366 63.8916 27.3929 63.8916H36.4994C36.9556 63.8916 37.3375 63.5445 37.3813 63.0904L37.9705 56.9772C38.5127 56.8448 39.0538 56.6934 39.5877 56.5252C42.9966 60.3857 47.8329 62.6886 52.9788 62.9011C58.1246 63.1132 63.1345 61.2169 66.8504 57.6502C70.5658 54.0836 72.665 49.1556 72.663 44.0055C72.663 33.8742 64.6551 25.5781 54.6366 25.1136L54.6355 25.1143ZM57.133 21.2998H50.3663V19.6567H57.133V21.2998ZM36.9623 55.3906C36.5857 55.4724 36.3051 55.7883 36.2682 56.1718L35.6954 62.1194H28.1976L27.6243 56.1718C27.5874 55.7878 27.3062 55.4718 26.9296 55.3906C24.0808 54.7576 21.3707 53.6142 18.9291 52.0159C18.6048 51.8065 18.1812 51.8313 17.8837 52.0777L13.3011 55.8732L8.01969 50.5902L11.8143 46.0076V46.0081C12.0643 45.7064 12.0865 45.277 11.8691 44.9511C10.2604 42.52 9.11846 39.8105 8.50178 36.9611C8.42003 36.5845 8.10461 36.3039 7.72061 36.267L1.77244 35.6942V28.1969L7.72007 27.6236V27.6241C8.10353 27.5872 8.41948 27.306 8.50124 26.9289C9.13419 24.0806 10.2771 21.37 11.8759 18.929C12.0853 18.6041 12.06 18.181 11.8137 17.883L8.0196 13.301L13.3021 8.01847L17.8847 11.8135H17.8842C18.1859 12.063 18.6152 12.0851 18.9412 11.8678C21.3723 10.2596 24.0818 9.11766 26.9311 8.50044C27.3078 8.41921 27.5889 8.10326 27.6258 7.71927L28.1991 1.77164H35.696L36.2688 7.71927H36.2693C36.3062 8.10326 36.5869 8.41868 36.9635 8.50044C39.8118 9.13392 42.5218 10.2769 44.9634 11.8751C45.2883 12.085 45.7113 12.0597 46.0088 11.8134L50.5871 8.02203L55.7957 13.2971L51.9975 17.8833V17.8839H49.4804C48.9909 17.8839 48.5943 18.2805 48.5943 18.77V22.1858V22.1853C48.5943 22.6748 48.9909 23.0714 49.4804 23.0714H52.8636V25.1154C51.7121 25.1686 50.5681 25.3264 49.4452 25.5875C48.194 22.1758 45.9814 19.2004 43.0745 17.0205C38.2804 13.4464 32.0616 12.3921 26.3579 14.1871C20.654 15.982 16.1595 20.4073 14.2764 26.0829C12.3934 31.7583 13.3512 37.9923 16.8509 42.8414C20.3505 47.6904 25.9659 50.5623 31.9458 50.5623C33.2618 50.5623 34.5741 50.4231 35.8611 50.1472C36.4619 51.8904 37.3154 53.5367 38.3934 55.0326C37.9182 55.1671 37.4403 55.2879 36.9619 55.3912L36.9623 55.3906ZM34.8373 44.0055C34.8367 45.4992 35.0134 46.9883 35.3637 48.4409C30.6968 49.4077 25.8383 48.3523 21.9931 45.5356C18.1478 42.7196 15.6757 38.4059 15.1893 33.6641C14.7035 28.9228 16.249 24.1974 19.4428 20.6592C22.6365 17.1216 27.1795 15.1019 31.9462 15.1019C35.5756 15.0914 39.1102 16.2634 42.0138 18.4408C44.6095 20.3876 46.5938 23.0354 47.7341 26.0726C43.9818 27.3422 40.7205 29.7538 38.4082 32.9697C36.0952 36.1855 34.8468 40.0445 34.8373 44.0056L34.8373 44.0055ZM53.7494 61.1461V61.1456C48.6942 61.1466 43.897 58.9118 40.6458 55.0407C40.5989 54.9622 40.5398 54.8915 40.4712 54.8313C39.045 53.0876 37.9774 51.079 37.3291 48.9217C37.3254 48.9048 37.3228 48.8874 37.3185 48.8705C37.3085 48.8336 37.2959 48.7972 37.2816 48.7618C36.0168 44.3797 36.55 39.6742 38.7633 35.6856C40.9766 31.6975 44.6872 28.7554 49.0751 27.5095C49.0951 27.5047 49.1152 27.5005 49.1352 27.4947C49.1405 27.4931 49.1452 27.491 49.15 27.4894C53.9197 26.1618 59.0303 26.9604 63.1673 29.6809C67.3037 32.4011 70.0622 36.7774 70.7326 41.6827C71.403 46.5881 69.9198 51.5435 66.6643 55.2748C63.4095 59.005 58.7003 61.1458 53.7495 61.1464L53.7494 61.1461Z" fill="#232323"/>
<path d="M58.5367 32.3077C58.1579 32.1205 57.7001 32.2265 57.4422 32.5609L51.8628 39.7955C50.7509 40.064 49.7994 40.7787 49.2319 41.7714C48.6648 42.7646 48.5325 43.9476 48.8663 45.0411C49.1997 46.1351 49.9698 47.0428 50.9952 47.5497C52.0201 48.0571 53.2085 48.1188 54.2807 47.7206C55.3525 47.3223 56.2129 46.4995 56.6579 45.4461C57.103 44.3928 57.0941 43.2024 56.6331 42.1564L59.0003 33.332L58.9998 33.3315C59.1095 32.9237 58.9154 32.495 58.5367 32.3077ZM54.8344 42.0193C54.7748 42.2408 54.8038 42.4771 54.9151 42.6781C55.2448 43.2736 55.3039 43.9809 55.0771 44.6222C54.8508 45.2636 54.3602 45.7774 53.7299 46.0332C53.0996 46.2895 52.3902 46.2631 51.7804 45.9614C51.1706 45.6597 50.7197 45.1117 50.5408 44.455C50.362 43.7989 50.4728 43.0973 50.8452 42.5282C51.2176 41.959 51.8162 41.5766 52.4893 41.478C52.7166 41.4442 52.9218 41.324 53.0621 41.142L56.1398 37.1512L54.8344 42.0193Z" fill="#232323"/>
</svg>
