<svg width="51" height="64" viewBox="0 0 51 64" fill="none" xmlns="http://www.w3.org/2000/svg">
<path d="M50.1568 16.3012C50.2649 15.4788 50.0016 14.656 49.3863 14.0397L36.1499 0.803327C35.5242 0.180467 34.6913 -0.0809582 33.8595 0.0376186C33.7971 0.0238092 33.739 0 33.6733 0H2.2962C1.02997 0 0 1.03 0 2.2962V61.7028C0 62.9691 1.03 64 2.2962 64H47.891C49.1572 64 50.1882 62.9691 50.1882 61.7028L50.1887 16.4567C50.1887 16.4014 50.1668 16.3533 50.1572 16.3009L50.1568 16.3012ZM48.1221 15.3017C48.5364 15.7145 48.3835 16.1907 48.3269 16.3269C48.2702 16.4631 48.0416 16.9079 47.4573 16.9079H37.8193C35.3175 16.9079 33.2812 14.8712 33.2812 12.3689L33.2816 2.73035C33.2816 2.1475 33.724 1.91844 33.8612 1.86178C33.9245 1.83463 34.064 1.78749 34.2383 1.78749C34.4321 1.78749 34.6678 1.84749 34.8855 2.06558L48.1221 15.3017ZM47.8912 62.2131H2.29633C2.0149 62.2131 1.78538 61.9845 1.78538 61.7031V2.29644C1.78538 2.01501 2.01538 1.78549 2.29633 1.78549H31.6766C31.5685 2.08263 31.4947 2.39501 31.4947 2.73025V12.3693C31.4947 15.8563 34.3323 18.6931 37.82 18.6931H47.458C47.7928 18.6931 48.1051 18.6197 48.4018 18.5121V61.703C48.4018 61.9844 48.1728 62.2134 47.8918 62.2134L47.8912 62.2131Z" fill="#232323"/>
<path d="M44.9016 57.7495H6.17977V36.4637C6.17977 35.9713 5.77977 35.5713 5.28739 35.5713C4.795 35.5713 4.39501 35.9713 4.39501 36.4637L4.39453 58.6442C4.39453 59.1366 4.79452 59.538 5.28691 59.538H44.9011C45.3935 59.538 45.7949 59.1371 45.7949 58.6442C45.7949 58.1514 45.3939 57.7504 44.9016 57.7504L44.9016 57.7495Z" fill="#232323"/>
<path d="M41.46 42.2073L35.0433 45.1368C34.7252 45.2815 34.5204 45.5987 34.5204 45.9487V50.1944L30.778 52.511L26.9376 47.0391C26.8223 46.8734 26.6523 46.7524 26.458 46.6948L21.2966 45.192C21.0047 45.1091 20.6995 45.1734 20.4747 45.3629L15.0042 49.9181H9.46802C8.97564 49.9181 8.57422 50.3181 8.57422 50.8105C8.57422 51.3029 8.97518 51.7029 9.46802 51.7029H15.3266C15.5357 51.7029 15.7362 51.63 15.8976 51.4967L21.2529 47.0387L25.6557 48.3215L29.801 54.2267C29.9729 54.4728 30.25 54.6057 30.531 54.6057C30.6924 54.6057 30.8557 54.5619 31.0019 54.4728L35.8838 51.4485C36.1453 51.2861 36.3067 50.9995 36.3067 50.6899V46.5214L42.2001 43.8295C42.6491 43.6247 42.8472 43.0947 42.6424 42.6471C42.4386 42.1986 41.9067 42 41.4601 42.2071L41.46 42.2073Z" fill="#232323"/>
<path d="M7.79615 7.60898H25.6503C26.1427 7.60898 26.5441 7.20898 26.5441 6.7166C26.5441 6.22421 26.1432 5.82422 25.6503 5.82422H7.79615C7.30376 5.82422 6.90234 6.22421 6.90234 6.7166C6.90282 7.20898 7.30378 7.60898 7.79615 7.60898Z" fill="#232323"/>
<path d="M7.79615 14.6016H25.6503C26.1427 14.6016 26.5441 14.2016 26.5441 13.7093C26.5441 13.2169 26.1432 12.8169 25.6503 12.8169L7.79615 12.8164C7.30376 12.8164 6.90234 13.2164 6.90234 13.7088C6.90282 14.2016 7.30378 14.6016 7.79615 14.6016Z" fill="#232323"/>
<path d="M7.79615 23.294H41.2736C41.766 23.294 42.1674 22.894 42.1674 22.4016C42.1674 21.9093 41.7665 21.5093 41.2736 21.5093L7.79615 21.5088C7.30376 21.5088 6.90234 21.9088 6.90234 22.4012C6.90282 22.894 7.30378 23.294 7.79615 23.294Z" fill="#232323"/>
<path d="M7.79615 33.5899H41.2736C41.766 33.5899 42.1674 33.1899 42.1674 32.6975C42.1674 32.2052 41.7665 31.8052 41.2736 31.8052L7.79615 31.8047C7.30376 31.8047 6.90234 32.2047 6.90234 32.6971C6.90282 33.1899 7.30378 33.5899 7.79615 33.5899Z" fill="#232323"/>
</svg>
