<svg width="64" height="62" viewBox="0 0 64 62" fill="none" xmlns="http://www.w3.org/2000/svg">
<path fill-rule="evenodd" clip-rule="evenodd" d="M33.3603 45.0606C33.3617 45.321 33.2588 45.5712 33.0753 45.7556C32.8914 45.9405 32.6416 46.0443 32.3812 46.0443H32.3715C31.9739 46.0424 31.6167 45.8015 31.4657 45.434C31.3146 45.0661 31.3999 44.6436 31.6816 44.3632C31.9633 44.0829 32.3859 43.9995 32.7533 44.152C33.1203 44.3044 33.3594 44.663 33.3594 45.0606L33.3603 45.0606ZM4.96812 1.96584H59.787C60.3411 1.96677 60.8721 2.18686 61.2636 2.57885C61.6551 2.97084 61.8757 3.50183 61.8762 4.05599V41.0348H2.87964V4.05599C2.8801 3.50182 3.1002 2.97083 3.49173 2.57933C3.88326 2.18733 4.41425 1.96678 4.96792 1.96585L4.96812 1.96584ZM59.787 47.1186C60.3407 47.1181 60.8717 46.8976 61.2631 46.506C61.6551 46.114 61.8752 45.5835 61.8762 45.0294V43.0017H2.87963V45.0294C2.88009 45.5831 3.10019 46.1141 3.49172 46.506C3.88325 46.8976 4.41424 47.1181 4.9679 47.1186H59.787ZM38.6482 54.3663H26.1069C27.0998 52.7771 27.6618 50.957 27.7388 49.0851H37.0169C37.0938 50.957 37.6563 52.7771 38.6488 54.3663H38.6482ZM44.8372 58.1834V60.0341H19.9181V58.183C19.9191 57.6924 20.1141 57.2221 20.4612 56.8755C20.8082 56.5285 21.279 56.3334 21.7696 56.3325H42.9867C43.4773 56.333 43.9481 56.528 44.2951 56.8751C44.6422 57.2221 44.8372 57.6924 44.8377 58.1831L44.8372 58.1834ZM4.96883 49.0851H25.7707C25.6993 51.0414 24.9422 52.911 23.6329 54.3663H21.7702C20.7583 54.3672 19.788 54.7699 19.0722 55.4853C18.3567 56.2007 17.9541 57.171 17.9532 58.1829V61.0172C17.9527 61.2776 18.0565 61.5278 18.2404 61.7123C18.4249 61.8967 18.6746 62 18.9355 62H45.8212C46.3638 62 46.804 61.5598 46.804 61.0172V58.1829C46.803 57.1709 46.4004 56.2007 45.685 55.4853C44.9691 54.7699 43.9988 54.3672 42.9869 54.3663H41.1228C39.8134 52.9105 39.0568 51.0414 38.985 49.0851H59.7881C60.863 49.0837 61.894 48.6561 62.6543 47.8958C63.4147 47.1354 63.8424 46.1049 63.8432 45.0295V4.05563C63.8423 2.9802 63.4146 1.94971 62.6543 1.18937C61.894 0.429014 60.863 0.00130479 59.7881 0H4.96922C3.89426 0.00139007 2.8633 0.429061 2.10296 1.18937C1.3426 1.94973 0.914893 2.98025 0.914062 4.05563V45.0295C0.914989 46.1049 1.34266 47.1359 2.10296 47.8958C2.86332 48.6561 3.89431 49.0838 4.96922 49.0851H4.96883Z" fill="#232323"/>
</svg>
