<svg width="300" height="300" viewBox="0 0 300 300" fill="none" xmlns="http://www.w3.org/2000/svg">
<path d="M150 300C232.843 300 300 232.843 300 150C300 67.1573 232.843 0 150 0C67.1573 0 0 67.1573 0 150C0 232.843 67.1573 300 150 300Z" fill="white"/>
<g clip-path="url(#clip0_385_51)">
<path fill-rule="evenodd" clip-rule="evenodd" d="M142.257 38.2426C118.385 40.0502 96.7994 48.755 78.2638 64.0242C74.6424 67.0209 67.0662 74.5842 64.0642 78.1993C47.0534 98.7484 38 123.674 38 149.979C38 176.283 47.0534 201.209 64.0642 221.805C67.0662 225.421 74.6424 232.984 78.2638 235.981C98.896 252.962 123.864 262 150.214 262C176.565 262 201.533 252.962 222.165 235.981C225.786 232.984 233.363 225.421 236.365 221.805C249.802 205.585 258.045 187.224 261.285 166.389C261.714 163.63 261.809 161.823 261.905 155.068L262 147.029L260.714 145.983C258.76 144.366 257.14 143.985 255.043 144.603C253.757 144.984 251.803 146.934 251.422 148.219C251.279 148.742 251.136 150.264 251.136 151.501C251.136 158.16 249.849 167.626 247.991 175.047C245.609 184.37 241.082 194.93 235.936 203.159C228.925 214.226 219.889 223.876 209.3 231.604C199.579 238.692 187.143 244.495 175.469 247.492C151.549 253.533 126.628 250.822 104.852 239.786C90.462 232.508 78.1685 222.043 68.5433 208.82C61.4435 199.116 55.6303 186.701 52.6284 175.047C46.5769 151.168 49.2929 126.29 60.3476 104.552C63.826 97.6544 67.5903 91.8987 72.5935 85.8101C75.0713 82.6706 80.8368 76.7723 84.1723 73.8707C97.3712 62.502 113.143 54.7485 130.154 51.2761C135.729 50.1345 143.734 49.2783 148.642 49.2783C151.739 49.2783 152.645 48.9929 154.122 47.5183C156.457 45.1875 156.504 42.2859 154.312 39.8599C152.883 38.2426 151.882 37.9572 148.023 38.0048C146.26 38.0523 143.686 38.1475 142.257 38.2426Z" fill="#01426A"/>
<path d="M130.966 127.709V199.092H113.206V127.709H130.966ZM112 109.038C112 106.443 112.893 104.288 114.681 102.573C116.513 100.857 118.97 100 122.053 100C125.135 100 127.571 100.857 129.358 102.573C131.19 104.288 132.106 106.443 132.106 109.038C132.106 111.589 131.19 113.722 129.358 115.438C127.571 117.153 125.135 118.011 122.053 118.011C118.97 118.011 116.513 117.153 114.681 115.438C112.893 113.722 112 111.589 112 109.038Z" fill="#01426A"/>
<path d="M188.894 102.771V199.092H171.134V123.156L147.611 130.809V116.691L186.884 102.771H188.894Z" fill="#01426A"/>
</g>
<defs>
<clipPath id="clip0_385_51">
<rect width="224" height="224" fill="white" transform="translate(38 38)"/>
</clipPath>
</defs>
</svg>
