<svg width="531" height="51" viewBox="0 0 531 51" fill="none" xmlns="http://www.w3.org/2000/svg">
<path d="M23.8631 12.3808L34.4133 9.56737L42.1366 17.2541L39.3097 27.7542L28.7594 30.5677L21.0361 22.881L23.8631 12.3808Z" fill="url(#paint0_linear_74_2)"/>
<path d="M2.82694 6.81351L13.3772 4L21.1005 11.6867L18.2735 22.1868L7.72331 25.0003L0 17.3136L2.82694 6.81351Z" fill="url(#paint1_linear_74_2)"/>
<path d="M8.48286 27.8132L19.0331 24.9997L26.7565 32.6863L23.9295 43.1864L13.3793 46L5.65594 38.3134L8.48286 27.8132Z" fill="url(#paint2_linear_74_2)"/>
<path d="M82.1749 46.0723H71.6055V4.07227H82.1749V46.0723ZM136.793 14.6417H117.532V46.0723H106.684V14.6417H87.4223V4.07227H136.793V14.6417Z" fill="#00B2FF"/>
<path d="M209.741 4.07227L186.794 46.0723H175.948L153 4.07227H165.933L181.44 33.9728L196.878 4.07227H209.741ZM259.103 46.0723H220.302L209.733 35.4333V14.6417L220.302 4.07227H259.103V14.6417H220.302V19.996H259.103V30.079H220.302V35.4333H259.103V46.0723ZM313.699 46.0723H274.898L264.327 35.4333V14.6417L274.898 4.07227H313.699V14.6417H274.898V35.4333H313.699V46.0723ZM366.166 14.6417H346.906V46.0723H336.057V14.6417H316.797V4.07227H366.166V14.6417ZM419.727 35.4333L409.156 46.0723H380.923L370.355 35.4333V4.07227H380.923V35.4333H409.156V4.07227H419.727V35.4333ZM476.383 46.0723H457.123L446.274 35.4333V30.079H437.582V46.0723H427.014V4.07227H465.814L476.383 14.6417V19.996L465.814 30.079H457.123V35.4333H476.383V46.0723ZM465.814 19.996V14.6417H437.582V19.996H465.814ZM530.956 46.0723H520.385V30.079H492.155V46.0723H481.584V14.6417L492.155 4.07227H520.385L530.956 14.6417V46.0723ZM520.385 19.996V14.6417H492.155V19.996H520.385Z" fill="white"/>
<path d="M57 0V50.9091" stroke="#00B2FF"/>
<defs>
<linearGradient id="paint0_linear_74_2" x1="23.8631" y1="12.3808" x2="39.2361" y2="27.8274" gradientUnits="userSpaceOnUse">
<stop stop-color="#00B2FF"/>
<stop offset="1" stop-color="#1281FD"/>
</linearGradient>
<linearGradient id="paint1_linear_74_2" x1="2.82694" y1="6.81351" x2="18.2001" y2="22.26" gradientUnits="userSpaceOnUse">
<stop stop-color="#00B2FF"/>
<stop offset="1" stop-color="#1281FD"/>
</linearGradient>
<linearGradient id="paint2_linear_74_2" x1="8.48286" y1="27.8132" x2="23.856" y2="43.2596" gradientUnits="userSpaceOnUse">
<stop stop-color="#00B2FF"/>
<stop offset="1" stop-color="#1281FD"/>
</linearGradient>
</defs>
</svg>
