<svg width="300" height="300" viewBox="0 0 300 300" fill="none" xmlns="http://www.w3.org/2000/svg">
<path d="M150 300C232.843 300 300 232.843 300 150C300 67.1573 232.843 0 150 0C67.1573 0 0 67.1573 0 150C0 232.843 67.1573 300 150 300Z" fill="white"/>
<path fill-rule="evenodd" clip-rule="evenodd" d="M142.257 38.2426C118.385 40.0502 96.799 48.755 78.2638 64.0242C74.6424 67.0209 67.0662 74.5842 64.0642 78.1993C47.0534 98.748 38 123.674 38 149.979C38 176.283 47.0534 201.209 64.0642 221.805C67.0662 225.421 74.6424 232.984 78.2638 235.981C98.896 252.962 123.864 262 150.214 262C176.565 262 201.533 252.962 222.165 235.981C225.786 232.984 233.363 225.421 236.365 221.805C249.802 205.585 258.045 187.224 261.285 166.389C261.714 163.63 261.809 161.823 261.905 155.068L262 147.029L260.713 145.983C258.76 144.366 257.14 143.985 255.043 144.603C253.757 144.984 251.803 146.934 251.422 148.219C251.279 148.742 251.136 150.264 251.136 151.501C251.136 158.16 249.849 167.626 247.991 175.047C245.609 184.37 241.082 194.93 235.936 203.159C228.925 214.226 219.889 223.876 209.3 231.604C199.579 238.692 187.143 244.495 175.469 247.492C151.549 253.533 126.628 250.822 104.852 239.786C90.462 232.508 78.1685 222.043 68.5433 208.82C61.4435 199.116 55.6303 186.701 52.6284 175.047C46.5769 151.168 49.2929 126.29 60.3476 104.552C63.826 97.654 67.5903 91.899 72.5935 85.81C75.0713 82.6706 80.8368 76.7723 84.172 73.8707C97.371 62.502 113.143 54.7485 130.154 51.2761C135.729 50.1345 143.734 49.2783 148.642 49.2783C151.739 49.2783 152.645 48.9929 154.122 47.5183C156.457 45.1875 156.504 42.2859 154.312 39.8599C152.883 38.2426 151.882 37.9572 148.023 38.0048C146.26 38.0523 143.686 38.1475 142.257 38.2426ZM178.042 143.272V193.836H191.479V92.66H178.042V143.272ZM144.735 121.105V135.613H134.824V148.076H144.735V193.836H158.172V148.076H168.083V135.613L163.175 135.566L158.267 135.518L158.22 121.105L158.172 106.692H144.782V121.105H144.735ZM117.05 118.251C115.573 118.822 114.287 119.773 113.572 120.962C112.667 122.437 112.333 123.674 112.476 125.291C113 130.999 119.814 133.473 123.864 129.429C128.01 125.291 125.341 118.394 119.481 118.061C118.528 117.918 117.622 118.013 117.05 118.251ZM112.381 164.725V193.836H125.818V135.613H112.381V164.725Z" fill="#01426A"/>
</svg>
