<svg width="100" height="100" viewBox="0 0 100 100" fill="none" xmlns="http://www.w3.org/2000/svg">
<path d="M76.8806 49.3641C76.7666 49.0921 76.5748 48.8597 76.3294 48.6961C76.0839 48.5324 75.7956 48.4448 75.5006 48.4441H58.2306L68.2306 7.82414C68.3009 7.50669 68.2661 7.175 68.1315 6.87904C67.9969 6.58307 67.7698 6.33885 67.4844 6.18316C67.1989 6.02747 66.8706 5.96873 66.5489 6.0158C66.2272 6.06288 65.9295 6.2132 65.7006 6.44414L23.4406 48.8841C23.2311 49.0939 23.0885 49.3611 23.0307 49.6519C22.9729 49.9427 23.0026 50.2441 23.1161 50.518C23.2295 50.7919 23.4215 51.0261 23.668 51.1909C23.9144 51.3558 24.2042 51.4439 24.5006 51.4441H41.7706L31.7706 92.0641C31.7004 92.3816 31.7352 92.7133 31.8698 93.0093C32.0044 93.3052 32.2315 93.5494 32.5169 93.7051C32.8024 93.8608 33.1306 93.9196 33.4524 93.8725C33.7741 93.8254 34.0718 93.6751 34.3006 93.4441L76.5606 51.0041C76.7706 50.7933 76.9132 50.5249 76.9701 50.2328C77.0271 49.9408 76.996 49.6384 76.8806 49.3641ZM36.0006 87.5341L45.1606 50.3041C45.2156 50.082 45.2189 49.8503 45.1705 49.6267C45.1221 49.4031 45.0232 49.1935 44.8813 49.014C44.7395 48.8345 44.5584 48.6898 44.352 48.5911C44.1457 48.4923 43.9194 48.442 43.6906 48.4441H28.1106L64.0006 12.3541L54.8606 49.5841C54.8061 49.8046 54.8024 50.0346 54.8497 50.2567C54.897 50.4788 54.9942 50.6873 55.1338 50.8664C55.2734 51.0455 55.4519 51.1906 55.6558 51.2906C55.8596 51.3907 56.0835 51.4432 56.3106 51.4441H71.8906L36.0006 87.5341Z" fill="white"/>
<path d="M71.0597 68.384C70.7753 68.1191 70.3993 67.9748 70.0106 67.9817C69.622 67.9885 69.2513 68.146 68.9764 68.4208C68.7016 68.6956 68.5442 69.0664 68.5373 69.455C68.5305 69.8436 68.6747 70.2197 68.9397 70.504L80.9397 82.504C81.224 82.769 81.6001 82.9132 81.9887 82.9064C82.3773 82.8995 82.7481 82.7421 83.0229 82.4673C83.2978 82.1924 83.4552 81.8217 83.462 81.4331C83.4689 81.0445 83.3246 80.6684 83.0597 80.384L71.0597 68.384Z" fill="white"/>
<path d="M27.9997 29.944C28.2962 29.9438 28.5859 29.8557 28.8324 29.6908C29.0788 29.526 29.2708 29.2918 29.3843 29.0179C29.4977 28.7439 29.5274 28.4426 29.4696 28.1518C29.4119 27.861 29.2692 27.5938 29.0597 27.384L17.0597 15.384C16.7753 15.1191 16.3993 14.9748 16.0106 14.9817C15.622 14.9885 15.2513 15.146 14.9764 15.4208C14.7016 15.6956 14.5442 16.0664 14.5373 16.455C14.5305 16.8436 14.6747 17.2197 14.9397 17.504L26.9397 29.504C27.2207 29.7854 27.602 29.9437 27.9997 29.944Z" fill="white"/>
<path d="M68.4406 29.004C68.7219 29.2849 69.1031 29.4427 69.5006 29.4427C69.8981 29.4427 70.2794 29.2849 70.5606 29.004L82.5606 17.004C82.8256 16.7197 82.9698 16.3436 82.963 15.955C82.9561 15.5664 82.7987 15.1956 82.5239 14.9208C82.2491 14.646 81.8783 14.4885 81.4897 14.4817C81.1011 14.4748 80.725 14.6191 80.4406 14.884L68.4406 26.884C68.1597 27.1653 68.002 27.5465 68.002 27.944C68.002 28.3415 68.1597 28.7228 68.4406 29.004Z" fill="white"/>
<path d="M27.4403 68.884L15.4403 80.884C15.2929 81.0214 15.1747 81.187 15.0927 81.371C15.0108 81.555 14.9667 81.7536 14.9631 81.955C14.9596 82.1564 14.9966 82.3564 15.0721 82.5432C15.1475 82.73 15.2598 82.8997 15.4022 83.0421C15.5447 83.1845 15.7143 83.2968 15.9011 83.3723C16.0879 83.4477 16.2879 83.4848 16.4894 83.4812C16.6908 83.4777 16.8894 83.4336 17.0734 83.3516C17.2574 83.2696 17.423 83.1514 17.5603 83.004L29.5603 71.004C29.8253 70.7197 29.9695 70.3436 29.9627 69.955C29.9558 69.5664 29.7984 69.1956 29.5236 68.9208C29.2487 68.646 28.878 68.4885 28.4894 68.4817C28.1007 68.4748 27.7247 68.6191 27.4403 68.884Z" fill="white"/>
<path d="M18.5 64.4443C19.8807 64.4443 21 63.325 21 61.9443C21 60.5636 19.8807 59.4443 18.5 59.4443C17.1193 59.4443 16 60.5636 16 61.9443C16 63.325 17.1193 64.4443 18.5 64.4443Z" fill="white"/>
<path d="M9.5 57.4443C10.8807 57.4443 12 56.325 12 54.9443C12 53.5636 10.8807 52.4443 9.5 52.4443C8.11929 52.4443 7 53.5636 7 54.9443C7 56.325 8.11929 57.4443 9.5 57.4443Z" fill="white"/>
<path d="M89.5 44.4443C90.8807 44.4443 92 43.325 92 41.9443C92 40.5636 90.8807 39.4443 89.5 39.4443C88.1193 39.4443 87 40.5636 87 41.9443C87 43.325 88.1193 44.4443 89.5 44.4443Z" fill="white"/>
<path d="M31.5 19.4443C32.8807 19.4443 34 18.325 34 16.9443C34 15.5636 32.8807 14.4443 31.5 14.4443C30.1193 14.4443 29 15.5636 29 16.9443C29 18.325 30.1193 19.4443 31.5 19.4443Z" fill="white"/>
</svg>
