<svg width="55" height="91" viewBox="0 0 55 91" fill="none" xmlns="http://www.w3.org/2000/svg">
<path d="M35.2306 65.9919L50.2236 41.8839C50.2726 41.8059 50.3136 41.7239 50.3456 41.6389C52.9346 37.4169 54.3016 32.5939 54.3016 27.6699C54.3016 12.8979 42.2836 0.879883 27.5116 0.879883C12.7396 0.879883 0.720577 12.8979 0.720577 27.6699C0.720577 32.5949 2.08958 37.4199 4.68058 41.6449C4.71058 41.7189 4.74558 41.7909 4.78758 41.8609L19.2426 66.0519C8.02158 67.6379 0.642578 72.2519 0.642578 77.8489C0.642578 84.7839 12.4276 90.2149 27.4716 90.2149C42.5156 90.2149 54.3006 84.7829 54.3006 77.8489C54.3016 72.2259 46.5786 67.5089 35.2306 65.9919ZM7.37358 40.2939C4.98358 36.4899 3.72058 32.1249 3.72058 27.6699C3.72058 14.5519 14.3926 3.87988 27.5116 3.87988C40.6296 3.87988 51.3016 14.5519 51.3016 27.6699C51.3016 32.1269 50.0386 36.4919 47.6496 40.2939C47.5996 40.3739 47.5586 40.4569 47.5256 40.5429L31.6856 66.0099C31.4476 66.3749 31.4006 66.4579 31.1096 66.9359L27.1096 73.3679L7.50758 40.5639C7.47258 40.4709 7.42758 40.3799 7.37358 40.2939ZM27.4726 87.2149C13.4296 87.2149 3.64358 82.2779 3.64358 77.8489C3.64358 73.8289 11.0136 70.0409 20.9266 68.8679L25.7966 77.0189C26.0656 77.4679 26.5476 77.7449 27.0706 77.7489C27.0746 77.7489 27.0796 77.7489 27.0836 77.7489C27.6016 77.7489 28.0836 77.4809 28.3576 77.0409L33.4776 68.8089C43.5486 69.8999 51.3006 73.7839 51.3006 77.8489C51.3016 82.2789 41.5156 87.2149 27.4726 87.2149Z" fill="white"/>
<path d="M37.2144 27.6697C37.2144 22.2987 32.8444 17.9287 27.4734 17.9287C22.1024 17.9287 17.7324 22.2987 17.7324 27.6697C17.7324 33.0407 22.1024 37.4107 27.4734 37.4107C32.8444 37.4107 37.2144 33.0407 37.2144 27.6697ZM20.7324 27.6697C20.7324 23.9527 23.7564 20.9287 27.4734 20.9287C31.1904 20.9287 34.2144 23.9527 34.2144 27.6697C34.2144 31.3867 31.1914 34.4107 27.4734 34.4107C23.7554 34.4107 20.7324 31.3867 20.7324 27.6697Z" fill="white"/>
</svg>
