<svg width="73" height="76" viewBox="0 0 73 76" fill="none" xmlns="http://www.w3.org/2000/svg">
<path d="M72.424 22.402C72.424 22.397 72.422 22.392 72.422 22.386C72.421 22.326 72.412 22.267 72.404 22.207C72.399 22.167 72.398 22.126 72.389 22.086C72.38 22.047 72.364 22.008 72.353 21.969C72.336 21.912 72.32 21.854 72.296 21.799C72.294 21.794 72.293 21.789 72.291 21.784C66.135 8.144 53.287 0 37.924 0C17.013 0 0 17.012 0 37.922C0 58.832 17.013 75.843 37.924 75.843C45.869 75.843 53.477 73.411 59.923 68.812C60.598 68.332 60.754 67.394 60.273 66.72C59.793 66.045 58.854 65.889 58.181 66.37C52.245 70.604 45.241 72.843 37.924 72.843C18.667 72.843 3 57.177 3 37.922C3 18.666 18.667 3 37.924 3C52.181 3 63.64 10.198 69.424 22.75L69.431 42.978C69.431 47.439 65.802 51.069 61.342 51.069C56.99 51.069 53.029 47.092 52.874 42.654C53.328 41.155 53.578 39.567 53.578 37.922C53.578 28.904 46.241 21.568 37.224 21.568C28.207 21.568 20.87 28.904 20.87 37.922C20.87 46.94 28.206 54.276 37.224 54.276C42.906 54.276 47.916 51.36 50.848 46.95C52.67 51.052 56.796 54.069 61.342 54.069C67.456 54.069 72.431 49.093 72.431 42.977L72.424 22.402ZM37.224 51.276C29.861 51.276 23.87 45.286 23.87 37.922C23.87 30.559 29.861 24.568 37.224 24.568C44.587 24.568 50.578 30.559 50.578 37.922C50.578 39.245 50.378 40.521 50.018 41.729C49.955 41.858 49.909 41.995 49.884 42.141C48.113 47.441 43.112 51.276 37.224 51.276Z" fill="white"/>
</svg>
