<svg width="78" height="80" viewBox="0 0 78 80" fill="none" xmlns="http://www.w3.org/2000/svg">
<path d="M28.5131 76.6374C32.4881 78.8634 36.4031 79.9814 40.0501 79.9814C43.1031 79.9804 45.9681 79.1964 48.5181 77.6224L57.9171 71.8244C58.2561 71.6154 58.4981 71.2814 58.5901 70.8934C58.6821 70.5064 58.6151 70.0984 58.4061 69.7594L50.2591 56.5554C50.0501 56.2174 49.7151 55.9754 49.3281 55.8834C48.9381 55.7924 48.5321 55.8584 48.1941 56.0674L38.7241 61.9124C37.2681 62.8104 35.4001 63.0974 33.6031 62.7024C31.8061 62.3064 30.2721 61.2644 29.3941 59.8404L16.5231 38.9814C14.6621 35.9654 15.6001 31.9974 18.6141 30.1364L18.6151 30.1354L28.4441 24.0674C29.1491 23.6324 29.3671 22.7084 28.9321 22.0034L20.7841 8.80237C20.3491 8.09737 19.4241 7.87637 18.7201 8.31337L8.89914 14.3754C-2.04686 21.1314 -1.66286 38.8664 9.83514 57.5044C15.1061 66.0504 21.7401 72.8454 28.5131 76.6374ZM10.4761 16.9274L19.0201 11.6544L25.5931 22.3024L17.0401 27.5824C17.0381 27.5834 17.0361 27.5854 17.0361 27.5854C12.6181 30.3164 11.2421 36.1334 13.9711 40.5554L26.8421 61.4134C28.1431 63.5244 30.3731 65.0614 32.9591 65.6314C35.5101 66.1904 38.1871 65.7674 40.3001 64.4634L48.4931 59.4064L55.0651 70.0564L46.9421 75.0674C41.0101 78.7274 34.4431 76.5174 29.9791 74.0184C23.6441 70.4704 17.3961 64.0464 12.3881 55.9284C1.81814 38.7944 1.03214 22.7564 10.4761 16.9274Z" fill="white"/>
<path d="M38.5796 24.5521C43.4336 24.8391 47.7296 27.3331 50.3676 31.3961C52.8896 35.2681 53.4966 40.0131 52.0316 44.4151C51.7696 45.2011 52.1946 46.0511 52.9806 46.3111C53.1376 46.3641 53.2966 46.3881 53.4546 46.3881C54.0836 46.3881 54.6686 45.9911 54.8776 45.3621C56.6336 40.0881 55.9056 34.4001 52.8826 29.7601C49.7686 24.9621 44.4866 21.8951 38.7566 21.5561C37.9216 21.5211 37.2196 22.1381 37.1706 22.9651C37.1216 23.7931 37.7526 24.5031 38.5796 24.5521Z" fill="white"/>
<path d="M40.6806 13.4178C48.5406 14.3208 55.5176 18.6338 59.8226 25.2488C63.9936 31.6618 65.1756 39.5578 63.0646 46.9128C62.8356 47.7098 63.2956 48.5398 64.0916 48.7678C64.2306 48.8078 64.3686 48.8268 64.5066 48.8268C65.1576 48.8268 65.7586 48.3978 65.9466 47.7408C68.2976 39.5498 66.9816 30.7548 62.3366 23.6128C57.5426 16.2458 49.7746 11.4438 41.0226 10.4378C40.2156 10.3428 39.4566 10.9338 39.3616 11.7568C39.2666 12.5798 39.8566 13.3228 40.6806 13.4178Z" fill="white"/>
<path d="M42.7312 3.61234C53.1702 5.06334 62.4522 10.9633 68.1982 19.8003C73.8272 28.4473 75.5152 39.1273 72.8312 49.1013C72.6152 49.9013 73.0902 50.7243 73.8902 50.9393C74.0202 50.9743 74.1522 50.9913 74.2812 50.9913C74.9422 50.9913 75.5492 50.5513 75.7282 49.8813C78.6342 39.0853 76.8062 27.5243 70.7132 18.1643C64.4932 8.59934 54.4452 2.21234 43.1462 0.641341C42.3292 0.532341 41.5672 1.09934 41.4542 1.92034C41.3392 2.74034 41.9112 3.49834 42.7312 3.61234Z" fill="white"/>
</svg>
