<svg width="27" height="27" viewBox="0 0 27 27" fill="none" xmlns="http://www.w3.org/2000/svg">
<g clip-path="url(#clip0_46_4722)">
<path d="M24.3764 9.18555H5.53516V25.6073H24.3764V9.18555Z" fill="#EDEDED"/>
<path d="M25.6481 8.16516V25.6066H24.3776V9.18589H5.53626V25.6066H4.26562V8.16516L14.9558 3.72852L25.6481 8.16516Z" fill="#A8B2B4"/>
<path d="M25.6481 8.16516V8.85551L14.9558 4.41891L4.26562 8.85551V8.16516L14.9558 3.72852L25.6481 8.16516Z" fill="#D1DAD9"/>
<path d="M5.53626 24.7686H4.26562V25.6072H5.53626V24.7686Z" fill="#677375"/>
<path d="M25.6495 24.7686H24.3789V25.6072H25.6495V24.7686Z" fill="#677375"/>
<path d="M26.7308 6.164V8.61488L14.9542 3.72751L3.17969 8.61488V6.164L14.5201 1.49901C14.7911 1.3571 15.1152 1.3571 15.3883 1.49901L26.7308 6.164Z" fill="#FC8A8A"/>
<path d="M26.7308 7.88069V8.61555L14.9542 3.72786L3.17969 8.61555V7.88069L14.9542 2.99512L26.7308 7.88069Z" fill="#F96364"/>
<path d="M26.7308 6.16431V6.89706L15.3883 2.23175C15.1152 2.08985 14.7912 2.08985 14.5201 2.23175L3.17969 6.89706V6.16431L14.5201 1.49901C14.7911 1.3571 15.1152 1.3571 15.3883 1.49901L26.7308 6.16431Z" fill="#FCB0B0"/>
<path d="M17.0142 19.3623H10.7695V25.607H17.0142V19.3623Z" fill="#FEE9B4"/>
<path d="M17.0153 19.3614V25.6071H10.7695V24.2671H12.9012C14.4326 24.2671 15.6753 23.0277 15.6753 21.493V19.3613L17.0153 19.3614Z" fill="#FEDD8E"/>
<path d="M23.2603 19.3623H17.0156V25.607H23.2603V19.3623Z" fill="#FEE9B4"/>
<path d="M23.2614 19.3614V25.6071H17.0156V24.2671H19.1473C20.6787 24.2671 21.9213 23.0277 21.9213 21.493V19.3613L23.2614 19.3614Z" fill="#FEDD8E"/>
<path d="M20.1353 13.1172H13.8906V19.3619H20.1353V13.1172Z" fill="#FEE9B4"/>
<path d="M20.1403 13.1162V19.362H13.8945V18.022H16.0262C17.5576 18.022 18.8003 16.7825 18.8003 15.2479V13.1162H20.1403Z" fill="#FEDD8E"/>
<path d="M14.6497 19.3623H13.1328V21.2663H14.6497V19.3623Z" fill="#FC8A8A"/>
<path d="M17.7708 13.1172H16.2539V15.0212H17.7708V13.1172Z" fill="#FC8A8A"/>
<path d="M20.8958 19.3613H19.3789V21.2653H20.8958V19.3613Z" fill="#FC8A8A"/>
<path d="M14.6512 19.3623V21.2669H13.1328V20.6893H13.4963C13.8142 20.6893 14.0737 20.433 14.0737 20.1118V19.3623H14.6512Z" fill="#F96364"/>
<path d="M17.7723 13.1162V15.0208H16.2539V14.4465H16.6172C16.9385 14.4465 17.1948 14.1869 17.1948 13.8689V13.1162H17.7723Z" fill="#F96364"/>
<path d="M20.8941 19.3613V21.2659H19.3789V20.6883H19.7424C20.0603 20.6883 20.3198 20.432 20.3198 20.1108V19.3613H20.8941Z" fill="#F96364"/>
<path d="M4.76977 20.9941H0.15625V25.6077H4.76977V20.9941Z" fill="#FEDD8E"/>
<path d="M4.77056 20.9932V25.6075H0.15625V24.6175H1.73106C2.86247 24.6175 3.78053 23.7018 3.78053 22.568V20.9932H4.77056Z" fill="#FDD367"/>
<path d="M9.38305 20.9941H4.76953V25.6077H9.38305V20.9941Z" fill="#FEDD8E"/>
<path d="M9.38384 20.9932V25.6075H4.76953V24.6175H6.34434C7.47575 24.6175 8.39381 23.7018 8.39381 22.568V20.9932H9.38384Z" fill="#FDD367"/>
<path d="M7.07836 16.3799H2.46484V20.9934H7.07836V16.3799Z" fill="#FEDD8E"/>
<path d="M7.07915 16.3789V20.9932H2.46484V20.0032H4.03965C5.17107 20.0032 6.08912 19.0876 6.08912 17.9538V16.3789H7.07915Z" fill="#FDD367"/>
<path d="M3.023 20.9932H1.90234V22.3998H3.023V20.9932Z" fill="#FC8A8A"/>
<path d="M5.3316 16.3799H4.21094V17.7865H5.3316V16.3799Z" fill="#FC8A8A"/>
<path d="M7.63628 20.9932H6.51562V22.3998H7.63628V20.9932Z" fill="#FC8A8A"/>
<path d="M3.02416 20.9932V22.4002H1.90234V21.9735H2.17087C2.40575 21.9735 2.59749 21.7842 2.59749 21.5469V20.9932H3.02416Z" fill="#F96364"/>
<path d="M5.32885 16.3789V17.786H4.20703V17.3617H4.47545C4.71275 17.3617 4.90212 17.1699 4.90212 16.935V16.3789H5.32885Z" fill="#F96364"/>
<path d="M7.63502 20.9932V22.4002H6.51562V21.9735H6.78415C7.01903 21.9735 7.21077 21.7842 7.21077 21.5469V20.9932H7.63502Z" fill="#F96364"/>
<path d="M26.8412 25.4479H25.8057V8.40292L26.6706 8.76189C26.7191 8.78256 26.7754 8.77676 26.8194 8.74744C26.8637 8.71785 26.8902 8.66839 26.8902 8.61528V6.1644C26.8902 6.10007 26.8513 6.04201 26.7917 6.01759L15.4621 1.3584C15.1433 1.19271 14.7635 1.19271 14.4602 1.3526L3.11987 6.01759C3.06033 6.04201 3.02142 6.10007 3.02142 6.1644V8.61528C3.02142 8.66844 3.04789 8.71785 3.09213 8.74744C3.11861 8.765 3.14924 8.77412 3.1802 8.77412C3.20092 8.77412 3.22154 8.77016 3.241 8.76194L4.10527 8.40319V16.2211H2.46549C2.37779 16.2211 2.30665 16.2922 2.30665 16.3799V20.8346H0.158836C0.0711387 20.8346 0 20.9057 0 20.9934V25.6069C0 25.6946 0.0711387 25.7657 0.158836 25.7657H26.8412C26.9289 25.7657 27.0001 25.6946 27.0001 25.6069C27.0001 25.5192 26.9289 25.4479 26.8412 25.4479ZM3.33914 8.3774V6.27066L14.5943 1.64C14.8195 1.52272 15.0892 1.52251 15.3287 1.64623L26.5726 6.27082V8.37735L15.0158 3.5811C14.9963 3.57303 14.9757 3.56892 14.955 3.56892C14.9343 3.56892 14.9136 3.57303 14.8942 3.5811L3.33914 8.3774ZM4.37094 16.5387H5.17398V17.6275H4.37094V16.5387ZM2.06423 21.1521H2.46565H2.86727V22.2412H2.06423V21.1521ZM4.61352 25.4479H0.317672V21.1521H1.74651V22.4C1.74651 22.4877 1.81765 22.5588 1.90535 22.5588H3.026C3.1137 22.5588 3.18484 22.4877 3.18484 22.4V21.1521H4.61347L4.61352 25.4479ZM2.62443 20.8345V16.5386H4.05327V17.7863C4.05327 17.874 4.12441 17.9452 4.21211 17.9452H5.33282C5.42046 17.9452 5.49165 17.874 5.49165 17.7863V16.5386H6.92028V20.8345H4.77241H2.62443ZM7.07906 21.1521H7.48069V22.2412H6.67765V21.1521H7.07906ZM9.2272 25.4479H4.93119V21.1521H6.36003V22.4C6.36003 22.4877 6.43117 22.5588 6.51887 22.5588H7.63958C7.72727 22.5588 7.79841 22.4877 7.79841 22.4V21.1521H9.22725L9.2272 25.4479ZM13.1346 21.4249H14.6516C14.7393 21.4249 14.8104 21.3537 14.8104 21.2661V19.521H16.8565V25.4479H10.9294V19.521H12.9758V21.2661C12.9758 21.3537 13.0469 21.4249 13.1346 21.4249ZM16.2568 15.1801H17.7738C17.8614 15.1801 17.9326 15.109 17.9326 15.0213V13.2763H19.9789V19.2034H17.0154H14.0519V13.2763H16.098V15.0213C16.098 15.109 16.1691 15.1801 16.2568 15.1801ZM16.4156 14.8625V13.2763H17.6149V14.8625H16.4156ZM23.1013 25.4479H17.1742V19.521H19.2203V21.2661C19.2203 21.3537 19.2915 21.4249 19.3791 21.4249H20.8961C20.9838 21.4249 21.0549 21.3537 21.0549 21.2661V19.521H23.1013V25.4479ZM20.7373 21.1073H19.538V19.521H20.1377H20.7373V21.1073ZM14.4927 19.521V21.1073H13.2934V19.521H13.893H14.4927ZM24.2174 25.4479H23.4189V19.3622C23.4189 19.2745 23.3478 19.2033 23.2601 19.2033H20.2965V13.1175C20.2965 13.0298 20.2254 12.9586 20.1377 12.9586H13.893C13.8053 12.9586 13.7341 13.0298 13.7341 13.1175V19.2034H10.7706C10.6829 19.2034 10.6117 19.2745 10.6117 19.3622V25.4479H9.54487V20.9933C9.54487 20.9056 9.47368 20.8345 9.38603 20.8345H7.2379V16.3798C7.2379 16.2921 7.16676 16.221 7.07906 16.221H5.69368V9.34481H24.2175L24.2174 25.4479ZM25.4881 25.4479H24.5351V9.18603C24.5351 9.09833 24.464 9.02719 24.3763 9.02719H5.53484C5.44714 9.02719 5.37601 9.09833 5.37601 9.18603V16.221H4.42304V8.2713L14.9549 3.89983L25.4881 8.27114V25.4479Z" fill="#333333"/>
</g>
<defs>
<clipPath id="clip0_46_4722">
<rect width="27" height="27" fill="white"/>
</clipPath>
</defs>
</svg>
