<svg width="323" height="29" viewBox="0 0 323 29" fill="none" xmlns="http://www.w3.org/2000/svg">
<path d="M8.176 29H0.88V0.00799847H8.176V29ZM45.8781 7.304H32.5821V29H25.0941V7.304H11.7981V0.00799847H45.8781V7.304Z" fill="#00B2FF"/>
<path d="M101.119 0.00799847L85.2786 29H77.7906L61.9506 0.00799847H70.8786L81.5826 20.648L92.2386 0.00799847H101.119ZM135.192 29H108.408L101.112 21.656V7.304L108.408 0.00799847H135.192V7.304H108.408V11H135.192V17.96H108.408V21.656H135.192V29ZM172.879 29H146.095L138.799 21.656V7.304L146.095 0.00799847H172.879V7.304H146.095V21.656H172.879V29ZM209.097 7.304H195.801V29H188.313V7.304H175.017V0.00799847H209.097V7.304ZM246.068 21.656L238.772 29H219.284L211.988 21.656V0.00799847H219.284V21.656H238.772V0.00799847H246.068V21.656ZM285.179 29H271.883L264.395 21.656V17.96H258.395V29H251.099V0.00799847H277.883L285.179 7.304V11L277.883 17.96H271.883V21.656H285.179V29ZM277.883 11V7.304H258.395V11H277.883ZM322.849 29H315.553V17.96H296.065V29H288.769V7.304L296.065 0.00799847H315.553L322.849 7.304V29ZM315.553 11V7.304H296.065V11H315.553Z" fill="white"/>
</svg>
