<svg width="250" height="50" viewBox="0 0 250 50" fill="none" xmlns="http://www.w3.org/2000/svg">
<g clip-path="url(#clip0_288_38)">
<mask id="mask0_288_38" style="mask-type:luminance" maskUnits="userSpaceOnUse" x="0" y="0" width="250" height="50">
<path d="M249.091 0H0V50H249.091V0Z" fill="white"/>
</mask>
<g mask="url(#mask0_288_38)">
<path d="M27.7918 11.2659L39.6542 8.10254L48.338 16.7452L45.1595 28.5512L33.2971 31.7146L24.6133 23.072L27.7918 11.2659Z" fill="url(#paint0_linear_288_38)"/>
<path d="M4.13946 5.00619L16.0018 1.84277L24.6857 10.4854L21.5071 22.2914L9.64478 25.4548L0.960938 16.8122L4.13946 5.00619Z" fill="url(#paint1_linear_288_38)"/>
<path d="M10.4988 28.6176L22.3612 25.4541L31.0451 34.0967L27.8665 45.9027L16.0042 49.0662L7.32031 40.4236L10.4988 28.6176Z" fill="url(#paint2_linear_288_38)"/>
<path d="M68.7509 24.545H64.6055V8.07227H68.7509V24.545ZM90.1727 12.2177H82.6181V24.545H78.3636V12.2177H70.809V8.07227H90.1727V12.2177Z" fill="#00B2FF"/>
<path d="M121.559 8.07227L112.559 24.545H108.305L99.3047 8.07227H104.377L110.459 19.7995L116.514 8.07227H121.559ZM140.919 24.545H125.701L121.556 20.3723V12.2177L125.701 8.07227H140.919V12.2177H125.701V14.3177H140.919V18.2723H125.701V20.3723H140.919V24.545ZM162.332 24.545H147.114L142.968 20.3723V12.2177L147.114 8.07227H162.332V12.2177H147.114V20.3723H162.332V24.545ZM182.91 12.2177H175.356V24.545H171.101V12.2177H163.547V8.07227H182.91V12.2177ZM203.917 20.3723L199.771 24.545H188.698L184.553 20.3723V8.07227H188.698V20.3723H199.771V8.07227H203.917V20.3723ZM226.138 24.545H218.584L214.329 20.3723V18.2723H210.92V24.545H206.775V8.07227H221.993L226.138 12.2177V14.3177L221.993 18.2723H218.584V20.3723H226.138V24.545ZM221.993 14.3177V12.2177H210.92V14.3177H221.993ZM247.542 24.545H243.396V18.2723H232.324V24.545H228.178V12.2177L232.324 8.07227H243.396L247.542 12.2177V24.545ZM243.396 14.3177V12.2177H232.324V14.3177H243.396Z" fill="white"/>
<path d="M64.3164 45.4542V37.1814H65.191V44.6978H69.8237V45.4542H64.3164ZM73.5352 45.5132C72.9365 45.5132 72.3968 45.3793 71.9161 45.1114C71.4434 44.8357 71.0692 44.4614 70.7934 43.9887C70.5177 43.5081 70.3798 42.9605 70.3798 42.346C70.3798 41.7235 70.5177 41.176 70.7934 40.7032C71.0692 40.2305 71.4434 39.8602 71.9161 39.5923C72.3889 39.3244 72.9286 39.1905 73.5352 39.1905C74.1498 39.1905 74.6934 39.3244 75.1661 39.5923C75.6468 39.8602 76.021 40.2305 76.2889 40.7032C76.5647 41.176 76.7025 41.7235 76.7025 42.346C76.7025 42.9605 76.5647 43.5081 76.2889 43.9887C76.021 44.4614 75.6468 44.8357 75.1661 45.1114C74.6856 45.3793 74.142 45.5132 73.5352 45.5132ZM73.5352 44.7687C73.9843 44.7687 74.3822 44.6702 74.7289 44.4732C75.0756 44.2684 75.3474 43.9848 75.5443 43.6223C75.7492 43.2521 75.8516 42.8266 75.8516 42.346C75.8516 41.8575 75.7492 41.4321 75.5443 41.0696C75.3474 40.7072 75.0756 40.4275 74.7289 40.2305C74.3822 40.0257 73.9883 39.9232 73.547 39.9232C73.1059 39.9232 72.712 40.0257 72.3652 40.2305C72.0186 40.4275 71.7429 40.7072 71.538 41.0696C71.3331 41.4321 71.2307 41.8575 71.2307 42.346C71.2307 42.8266 71.3331 43.2521 71.538 43.6223C71.7429 43.9848 72.0186 44.2684 72.3652 44.4732C72.712 44.6702 73.102 44.7687 73.5352 44.7687ZM81.0629 47.806C80.4956 47.806 79.952 47.7232 79.432 47.5578C78.912 47.3923 78.4905 47.156 78.1674 46.8487L78.5929 46.2105C78.8844 46.4705 79.2429 46.6753 79.6683 46.8251C80.1017 46.9826 80.5587 47.0614 81.0392 47.0614C81.8271 47.0614 82.4062 46.8762 82.7765 46.506C83.1469 46.1435 83.332 45.5762 83.332 44.8042V43.256L83.4501 42.1923L83.3674 41.1287V39.2496H84.171V44.6978C84.171 45.7693 83.9071 46.5532 83.3792 47.0496C82.8592 47.5539 82.0871 47.806 81.0629 47.806ZM80.9092 45.2178C80.3183 45.2178 79.7865 45.0917 79.3138 44.8396C78.841 44.5796 78.4669 44.2212 78.191 43.7642C77.9232 43.3072 77.7892 42.7832 77.7892 42.1923C77.7892 41.6014 77.9232 41.0814 78.191 40.6323C78.4669 40.1753 78.841 39.8208 79.3138 39.5687C79.7865 39.3166 80.3183 39.1905 80.9092 39.1905C81.4608 39.1905 81.9571 39.3048 82.3983 39.5332C82.8396 39.7617 83.1901 40.1005 83.4501 40.5496C83.7101 40.9987 83.8401 41.5462 83.8401 42.1923C83.8401 42.8384 83.7101 43.386 83.4501 43.8351C83.1901 44.2842 82.8396 44.6269 82.3983 44.8632C81.9571 45.0996 81.4608 45.2178 80.9092 45.2178ZM80.992 44.4732C81.449 44.4732 81.8547 44.3787 82.2092 44.1896C82.5638 43.9926 82.8435 43.7248 83.0483 43.386C83.2532 43.0393 83.3556 42.6414 83.3556 42.1923C83.3556 41.7432 83.2532 41.3493 83.0483 41.0105C82.8435 40.6717 82.5638 40.4078 82.2092 40.2187C81.8547 40.0217 81.449 39.9232 80.992 39.9232C80.5429 39.9232 80.1371 40.0217 79.7747 40.2187C79.4201 40.4078 79.1405 40.6717 78.9356 41.0105C78.7387 41.3493 78.6401 41.7432 78.6401 42.1923C78.6401 42.6414 78.7387 43.0393 78.9356 43.386C79.1405 43.7248 79.4201 43.9926 79.7747 44.1896C80.1371 44.3787 80.5429 44.4732 80.992 44.4732ZM86.506 45.4542V39.2496H87.345V45.4542H86.506ZM86.9314 37.8787C86.7581 37.8787 86.6123 37.8196 86.4941 37.7014C86.376 37.5832 86.3169 37.4414 86.3169 37.276C86.3169 37.1105 86.376 36.9726 86.4941 36.8623C86.6123 36.7442 86.7581 36.6851 86.9314 36.6851C87.1048 36.6851 87.2505 36.7402 87.3687 36.8505C87.4869 36.9608 87.546 37.0987 87.546 37.2642C87.546 37.4375 87.4869 37.5832 87.3687 37.7014C87.2584 37.8196 87.1127 37.8787 86.9314 37.8787ZM91.3459 45.5132C90.834 45.5132 90.3495 45.4423 89.8926 45.3005C89.4356 45.1508 89.0771 44.9657 88.8171 44.7451L89.1953 44.0832C89.4474 44.2723 89.7704 44.4378 90.1644 44.5796C90.5583 44.7135 90.9722 44.7805 91.405 44.7805C91.9959 44.7805 92.4213 44.6899 92.6813 44.5087C92.9413 44.3196 93.0713 44.0714 93.0713 43.7642C93.0713 43.5357 92.9968 43.3584 92.8468 43.2323C92.705 43.0984 92.5159 42.9999 92.2795 42.9369C92.0431 42.866 91.7795 42.8069 91.4877 42.7596C91.1968 42.7123 90.905 42.6572 90.6135 42.5942C90.3299 42.5312 90.0699 42.4405 89.8335 42.3223C89.5971 42.1962 89.404 42.0269 89.2544 41.8142C89.1126 41.6014 89.0417 41.3178 89.0417 40.9632C89.0417 40.6244 89.1362 40.3212 89.3253 40.0532C89.5144 39.7853 89.7901 39.5766 90.1526 39.4269C90.5229 39.2693 90.9722 39.1905 91.4995 39.1905C91.9013 39.1905 92.3031 39.2457 92.705 39.356C93.1068 39.4584 93.4377 39.5962 93.6977 39.7696L93.3313 40.4432C93.0559 40.2542 92.7604 40.1202 92.445 40.0414C92.1304 39.9548 91.815 39.9114 91.4995 39.9114C90.9404 39.9114 90.5268 40.0099 90.259 40.2069C89.999 40.396 89.869 40.6402 89.869 40.9396C89.869 41.176 89.9399 41.3612 90.0817 41.4951C90.2313 41.629 90.4244 41.7353 90.6608 41.8142C90.905 41.8851 91.1686 41.9442 91.4522 41.9914C91.744 42.0387 92.0313 42.0978 92.315 42.1687C92.6068 42.2317 92.8704 42.3223 93.1068 42.4405C93.3513 42.5508 93.544 42.7123 93.6859 42.9251C93.8359 43.1299 93.9104 43.4017 93.9104 43.7405C93.9104 44.103 93.8086 44.4181 93.6031 44.686C93.4068 44.946 93.115 45.1508 92.7286 45.3005C92.3504 45.4423 91.8895 45.5132 91.3459 45.5132ZM97.4122 45.5132C96.8295 45.5132 96.3804 45.3557 96.065 45.0405C95.7495 44.7253 95.5922 44.2802 95.5922 43.7051V37.8787H96.4313V43.6578C96.4313 44.0202 96.5222 44.2999 96.7031 44.4969C96.8922 44.6939 97.1604 44.7923 97.5068 44.7923C97.8768 44.7923 98.184 44.686 98.4286 44.4732L98.724 45.076C98.5586 45.2257 98.3577 45.336 98.1213 45.4069C97.8931 45.4778 97.6568 45.5132 97.4122 45.5132ZM94.4813 39.9469V39.2496H98.3222V39.9469H94.4813ZM100.251 45.4542V39.2496H101.09V45.4542H100.251ZM100.677 37.8787C100.504 37.8787 100.358 37.8196 100.24 37.7014C100.121 37.5832 100.062 37.4414 100.062 37.276C100.062 37.1105 100.121 36.9726 100.24 36.8623C100.358 36.7442 100.504 36.6851 100.677 36.6851C100.85 36.6851 100.996 36.7402 101.114 36.8505C101.232 36.9608 101.291 37.0987 101.291 37.2642C101.291 37.4375 101.232 37.5832 101.114 37.7014C101.004 37.8196 100.859 37.8787 100.677 37.8787ZM106.001 45.5132C105.387 45.5132 104.836 45.3793 104.347 45.1114C103.867 44.8357 103.489 44.4614 103.212 43.9887C102.937 43.5081 102.799 42.9605 102.799 42.346C102.799 41.7235 102.937 41.176 103.212 40.7032C103.489 40.2305 103.867 39.8602 104.347 39.5923C104.836 39.3244 105.387 39.1905 106.001 39.1905C106.529 39.1905 107.006 39.293 107.431 39.4978C107.857 39.7026 108.192 40.0099 108.436 40.4196L107.809 40.8451C107.597 40.5299 107.333 40.2975 107.018 40.1478C106.703 39.9981 106.36 39.9232 105.989 39.9232C105.549 39.9232 105.15 40.0257 104.796 40.2305C104.441 40.4275 104.162 40.7072 103.957 41.0696C103.752 41.4321 103.65 41.8575 103.65 42.346C103.65 42.8344 103.752 43.2599 103.957 43.6223C104.162 43.9848 104.441 44.2684 104.796 44.4732C105.15 44.6702 105.549 44.7687 105.989 44.7687C106.36 44.7687 106.703 44.6939 107.018 44.5442C107.333 44.3944 107.597 44.166 107.809 43.8587L108.436 44.2842C108.192 44.686 107.857 44.9932 107.431 45.206C107.006 45.4108 106.529 45.5132 106.001 45.5132ZM111.751 45.5132C111.239 45.5132 110.754 45.4423 110.298 45.3005C109.84 45.1508 109.482 44.9657 109.222 44.7451L109.6 44.0832C109.852 44.2723 110.175 44.4378 110.57 44.5796C110.963 44.7135 111.377 44.7805 111.81 44.7805C112.401 44.7805 112.827 44.6899 113.087 44.5087C113.347 44.3196 113.477 44.0714 113.477 43.7642C113.477 43.5357 113.401 43.3584 113.252 43.2323C113.11 43.0984 112.921 42.9999 112.685 42.9369C112.449 42.866 112.184 42.8069 111.893 42.7596C111.601 42.7123 111.31 42.6572 111.019 42.5942C110.735 42.5312 110.475 42.4405 110.239 42.3223C110.002 42.1962 109.809 42.0269 109.66 41.8142C109.518 41.6014 109.447 41.3178 109.447 40.9632C109.447 40.6244 109.541 40.3212 109.73 40.0532C109.92 39.7853 110.195 39.5766 110.558 39.4269C110.928 39.2693 111.377 39.1905 111.905 39.1905C112.307 39.1905 112.709 39.2457 113.11 39.356C113.512 39.4584 113.843 39.5962 114.103 39.7696L113.737 40.4432C113.46 40.2542 113.165 40.1202 112.85 40.0414C112.535 39.9548 112.22 39.9114 111.905 39.9114C111.345 39.9114 110.931 40.0099 110.664 40.2069C110.404 40.396 110.274 40.6402 110.274 40.9396C110.274 41.176 110.345 41.3612 110.487 41.4951C110.636 41.629 110.829 41.7353 111.066 41.8142C111.309 41.8851 111.574 41.9442 111.858 41.9914C112.149 42.0387 112.437 42.0978 112.72 42.1687C113.011 42.2317 113.276 42.3223 113.512 42.4405C113.756 42.5508 113.95 42.7123 114.091 42.9251C114.24 43.1299 114.316 43.4017 114.316 43.7405C114.316 44.103 114.213 44.4181 114.009 44.686C113.811 44.946 113.52 45.1508 113.134 45.3005C112.756 45.4423 112.295 45.5132 111.751 45.5132ZM119.126 45.4542V37.1814H120V45.4542H119.126ZM124.3 45.4542V37.9378H121.392V37.1814H128.081V37.9378H125.174V45.4542H124.3ZM134.06 45.5132C133.548 45.5132 133.063 45.4423 132.607 45.3005C132.15 45.1508 131.791 44.9657 131.531 44.7451L131.91 44.0832C132.161 44.2723 132.484 44.4378 132.879 44.5796C133.272 44.7135 133.686 44.7805 134.12 44.7805C134.71 44.7805 135.136 44.6899 135.396 44.5087C135.656 44.3196 135.786 44.0714 135.786 43.7642C135.786 43.5357 135.71 43.3584 135.561 43.2323C135.42 43.0984 135.23 42.9999 134.994 42.9369C134.758 42.866 134.493 42.8069 134.202 42.7596C133.91 42.7123 133.619 42.6572 133.328 42.5942C133.044 42.5312 132.784 42.4405 132.548 42.3223C132.311 42.1962 132.118 42.0269 131.969 41.8142C131.827 41.6014 131.756 41.3178 131.756 40.9632C131.756 40.6244 131.85 40.3212 132.039 40.0532C132.229 39.7853 132.504 39.5766 132.867 39.4269C133.237 39.2693 133.686 39.1905 134.214 39.1905C134.616 39.1905 135.018 39.2457 135.42 39.356C135.821 39.4584 136.152 39.5962 136.412 39.7696L136.046 40.4432C135.769 40.2542 135.474 40.1202 135.16 40.0414C134.844 39.9548 134.529 39.9114 134.214 39.9114C133.654 39.9114 133.24 40.0099 132.973 40.2069C132.713 40.396 132.583 40.6402 132.583 40.9396C132.583 41.176 132.654 41.3612 132.796 41.4951C132.945 41.629 133.139 41.7353 133.375 41.8142C133.619 41.8851 133.883 41.9442 134.167 41.9914C134.458 42.0387 134.746 42.0978 135.03 42.1687C135.32 42.2317 135.585 42.3223 135.821 42.4405C136.065 42.5508 136.259 42.7123 136.4 42.9251C136.549 43.1299 136.625 43.4017 136.625 43.7405C136.625 44.103 136.522 44.4181 136.318 44.686C136.12 44.946 135.829 45.1508 135.443 45.3005C135.065 45.4423 134.604 45.5132 134.06 45.5132ZM140.693 45.5132C140.095 45.5132 139.555 45.3793 139.074 45.1114C138.601 44.8357 138.228 44.4614 137.951 43.9887C137.676 43.5081 137.538 42.9605 137.538 42.346C137.538 41.7235 137.676 41.176 137.951 40.7032C138.228 40.2305 138.601 39.8602 139.074 39.5923C139.547 39.3244 140.087 39.1905 140.693 39.1905C141.308 39.1905 141.851 39.3244 142.324 39.5923C142.805 39.8602 143.18 40.2305 143.447 40.7032C143.723 41.176 143.86 41.7235 143.86 42.346C143.86 42.9605 143.723 43.5081 143.447 43.9887C143.18 44.4614 142.805 44.8357 142.324 45.1114C141.844 45.3793 141.3 45.5132 140.693 45.5132ZM140.693 44.7687C141.142 44.7687 141.54 44.6702 141.887 44.4732C142.234 44.2684 142.506 43.9848 142.702 43.6223C142.908 43.2521 143.01 42.8266 143.01 42.346C143.01 41.8575 142.908 41.4321 142.702 41.0696C142.506 40.7072 142.234 40.4275 141.887 40.2305C141.54 40.0257 141.147 39.9232 140.705 39.9232C140.264 39.9232 139.87 40.0257 139.523 40.2305C139.177 40.4275 138.901 40.7072 138.696 41.0696C138.491 41.4321 138.389 41.8575 138.389 42.346C138.389 42.8266 138.491 43.2521 138.696 43.6223C138.901 43.9848 139.177 44.2684 139.523 44.4732C139.87 44.6702 140.26 44.7687 140.693 44.7687ZM145.716 45.4542V38.4696C145.716 37.9181 145.877 37.473 146.2 37.1342C146.523 36.7953 146.988 36.626 147.595 36.626C147.831 36.626 148.06 36.6575 148.28 36.7205C148.5 36.7835 148.686 36.8821 148.836 37.016L148.552 37.6423C148.434 37.5399 148.296 37.4651 148.139 37.4178C147.98 37.3626 147.811 37.3351 147.63 37.3351C147.276 37.3351 147.004 37.4335 146.815 37.6305C146.626 37.8275 146.531 38.119 146.531 38.5051V39.4505L146.555 39.8405V45.4542H145.716ZM144.605 39.9469V39.2496H148.446V39.9469H144.605ZM151.54 45.5132C150.958 45.5132 150.509 45.3557 150.193 45.0405C149.878 44.7253 149.72 44.2802 149.72 43.7051V37.8787H150.56V43.6578C150.56 44.0202 150.65 44.2999 150.831 44.4969C151.02 44.6939 151.289 44.7923 151.635 44.7923C152.005 44.7923 152.312 44.686 152.557 44.4732L152.852 45.076C152.687 45.2257 152.486 45.336 152.25 45.4069C152.021 45.4778 151.785 45.5132 151.54 45.5132ZM148.61 39.9469V39.2496H152.45V39.9469H148.61ZM155.529 45.4542L153.189 39.2496H153.992L156.12 45.0051H155.753L157.94 39.2496H158.66L160.823 45.0051H160.457L162.62 39.2496H163.388L161.036 45.4542H160.244L158.164 40.0414H158.412L156.32 45.4542H155.529ZM168.355 45.4542V44.0832L168.32 43.8587V41.566C168.32 41.0381 168.17 40.6323 167.87 40.3487C167.579 40.0651 167.141 39.9232 166.559 39.9232C166.157 39.9232 165.775 39.9902 165.412 40.1242C165.05 40.2581 164.742 40.4353 164.49 40.656L164.112 40.0296C164.428 39.7617 164.806 39.5569 165.247 39.4151C165.688 39.2653 166.153 39.1905 166.641 39.1905C167.445 39.1905 168.063 39.3914 168.497 39.7932C168.938 40.1872 169.159 40.7899 169.159 41.6014V45.4542H168.355ZM166.216 45.5132C165.751 45.5132 165.345 45.4384 164.999 45.2887C164.66 45.1312 164.4 44.9184 164.219 44.6505C164.038 44.3748 163.947 44.0596 163.947 43.7051C163.947 43.3821 164.021 43.0905 164.171 42.8305C164.329 42.5626 164.581 42.3499 164.928 42.1923C165.282 42.0269 165.755 41.9442 166.346 41.9442H168.485V42.5705H166.37C165.77 42.5705 165.353 42.6769 165.117 42.8896C164.889 43.1023 164.774 43.3662 164.774 43.6814C164.774 44.036 164.912 44.3196 165.188 44.5323C165.463 44.7451 165.849 44.8514 166.346 44.8514C166.819 44.8514 167.224 44.7451 167.563 44.5323C167.91 44.3117 168.162 43.9966 168.32 43.5869L168.509 44.166C168.351 44.5757 168.075 44.9026 167.681 45.1469C167.295 45.3912 166.807 45.5132 166.216 45.5132ZM171.438 45.4542V39.2496H172.241V40.9396L172.159 40.6442C172.332 40.1714 172.623 39.813 173.033 39.5687C173.443 39.3166 173.951 39.1905 174.558 39.1905V40.006C174.526 40.006 174.495 40.006 174.463 40.006C174.431 39.9981 174.4 39.9942 174.369 39.9942C173.715 39.9942 173.202 40.1951 172.832 40.5969C172.462 40.9908 172.277 41.5542 172.277 42.2869V45.4542H171.438ZM178.667 45.5132C178.02 45.5132 177.453 45.3793 176.965 45.1114C176.476 44.8357 176.094 44.4614 175.819 43.9887C175.542 43.5081 175.405 42.9605 175.405 42.346C175.405 41.7314 175.535 41.1878 175.795 40.7151C176.062 40.2423 176.425 39.8721 176.882 39.6042C177.347 39.3284 177.867 39.1905 178.442 39.1905C179.025 39.1905 179.541 39.3244 179.99 39.5923C180.447 39.8523 180.806 40.2226 181.066 40.7032C181.326 41.176 181.456 41.7235 181.456 42.346C181.456 42.3853 181.451 42.4287 181.444 42.476C181.444 42.5153 181.444 42.5587 181.444 42.606H176.043V41.9796H180.995L180.664 42.2278C180.664 41.7787 180.565 41.3808 180.369 41.0342C180.18 40.6796 179.92 40.4039 179.589 40.2069C179.258 40.0099 178.875 39.9114 178.442 39.9114C178.017 39.9114 177.634 40.0099 177.296 40.2069C176.957 40.4039 176.693 40.6796 176.504 41.0342C176.315 41.3887 176.22 41.7944 176.22 42.2514V42.3814C176.22 42.8542 176.322 43.2717 176.528 43.6342C176.74 43.9887 177.031 44.2684 177.402 44.4732C177.78 44.6702 178.21 44.7687 178.69 44.7687C179.069 44.7687 179.419 44.7017 179.742 44.5678C180.073 44.4339 180.357 44.229 180.593 43.9532L181.066 44.4969C180.79 44.8278 180.443 45.0799 180.026 45.2532C179.616 45.4266 179.163 45.5132 178.667 45.5132Z" fill="#00B2FF"/>
<path d="M56.125 0V50.9091" stroke="#00B2FF"/>
</g>
</g>
<defs>
<linearGradient id="paint0_linear_288_38" x1="27.7918" y1="11.2659" x2="45.0768" y2="28.6335" gradientUnits="userSpaceOnUse">
<stop stop-color="#00B2FF"/>
<stop offset="1" stop-color="#1281FD"/>
</linearGradient>
<linearGradient id="paint1_linear_288_38" x1="4.13946" y1="5.00619" x2="21.4245" y2="22.3737" gradientUnits="userSpaceOnUse">
<stop stop-color="#00B2FF"/>
<stop offset="1" stop-color="#1281FD"/>
</linearGradient>
<linearGradient id="paint2_linear_288_38" x1="10.4988" y1="28.6176" x2="27.7839" y2="45.985" gradientUnits="userSpaceOnUse">
<stop stop-color="#00B2FF"/>
<stop offset="1" stop-color="#1281FD"/>
</linearGradient>
<clipPath id="clip0_288_38">
<rect width="249.091" height="50" fill="white"/>
</clipPath>
</defs>
</svg>
