<svg width="16" height="10" viewBox="0 0 16 10" fill="none" xmlns="http://www.w3.org/2000/svg">
<g clip-path="url(#clip0_382_13)">
<path d="M14.8569 0.125H1.14258C0.590293 0.125 0.142578 0.516751 0.142578 1V9C0.142578 9.48325 0.590293 9.875 1.14258 9.875H14.8569C15.4091 9.875 15.8569 9.48325 15.8569 9V1C15.8569 0.516751 15.4091 0.125 14.8569 0.125Z" fill="white" stroke="#F5F5F5" stroke-width="0.5"/>
<mask id="mask0_382_13" style="mask-type:luminance" maskUnits="userSpaceOnUse" x="-1" y="-1" width="18" height="12">
<path d="M14.8569 0.125H1.14258C0.590293 0.125 0.142578 0.516751 0.142578 1V9C0.142578 9.48325 0.590293 9.875 1.14258 9.875H14.8569C15.4091 9.875 15.8569 9.48325 15.8569 9V1C15.8569 0.516751 15.4091 0.125 14.8569 0.125Z" fill="white" stroke="white" stroke-width="0.5"/>
</mask>
<g mask="url(#mask0_382_13)">
<path fill-rule="evenodd" clip-rule="evenodd" d="M4.57227 3.33333H16.0008V0H4.57227V3.33333Z" fill="#12833B"/>
<path fill-rule="evenodd" clip-rule="evenodd" d="M4.57227 10.0003H16.0008V6.66699H4.57227V10.0003Z" fill="#262626"/>
<path fill-rule="evenodd" clip-rule="evenodd" d="M0 10H4.57143V0H0V10Z" fill="#FF323E"/>
</g>
</g>
<defs>
<clipPath id="clip0_382_13">
<rect width="16" height="10" fill="white"/>
</clipPath>
</defs>
</svg>
