<svg width="34" height="33" viewBox="0 0 34 33" fill="none" xmlns="http://www.w3.org/2000/svg">
<path d="M16.9984 16.5V21.0375C16.9984 21.4751 16.8246 21.8948 16.5152 22.2042C16.2057 22.5137 15.786 22.6875 15.3484 22.6875H11.8422C11.4593 22.6875 11.0921 22.8396 10.8213 23.1104C10.5505 23.3811 10.3984 23.7483 10.3984 24.1312C10.3984 24.5142 10.5505 24.8814 10.8213 25.1521C11.0921 25.4229 11.4593 25.575 11.8422 25.575H19.4734" stroke="black" stroke-width="1.65" stroke-linecap="round" stroke-linejoin="round"/>
<path d="M23.601 24.3379H22.293" stroke="black" stroke-width="1.65" stroke-linecap="round" stroke-linejoin="round"/>
<path d="M23.6011 26.8125H22.293" stroke="black" stroke-width="1.65" stroke-linecap="round" stroke-linejoin="round"/>
<path d="M21.1266 23.5127H20.7141C20.0306 23.5127 19.4766 24.0667 19.4766 24.7502V26.4002C19.4766 27.0836 20.0306 27.6377 20.7141 27.6377H21.1266C21.81 27.6377 22.3641 27.0836 22.3641 26.4002V24.7502C22.3641 24.0667 21.81 23.5127 21.1266 23.5127Z" fill="#FFDA00"/>
<path d="M22.3641 26.4V24.75C22.3641 25.0782 22.2337 25.393 22.0016 25.625C21.7695 25.8571 21.4548 25.9875 21.1266 25.9875H20.7141C20.3859 25.9875 20.0711 25.8571 19.839 25.625C19.6069 25.393 19.4766 25.0782 19.4766 24.75V26.4C19.4766 26.7282 19.6069 27.043 19.839 27.275C20.0711 27.5071 20.3859 27.6375 20.7141 27.6375H21.1266C21.4548 27.6375 21.7695 27.5071 22.0016 27.275C22.2337 27.043 22.3641 26.7282 22.3641 26.4Z" fill="#EABD00"/>
<path d="M21.1266 23.5127H20.7141C20.0306 23.5127 19.4766 24.0667 19.4766 24.7502V26.4002C19.4766 27.0836 20.0306 27.6377 20.7141 27.6377H21.1266C21.81 27.6377 22.3641 27.0836 22.3641 26.4002V24.7502C22.3641 24.0667 21.81 23.5127 21.1266 23.5127Z" stroke="black" stroke-width="1.65" stroke-linecap="round" stroke-linejoin="round"/>
<path d="M4.78019 16.0873H29.2171C29.3951 15.9339 29.538 15.7439 29.6361 15.5304C29.7343 15.3169 29.7854 15.0848 29.7859 14.8498V11.9623L23.5984 5.3623H4.21094V14.8498C4.21156 15.0848 4.26271 15.317 4.36093 15.5305C4.45914 15.744 4.60213 15.9339 4.78019 16.0873Z" fill="#FFDA00"/>
<path d="M28.1359 14.4371H5.86094C5.42333 14.4371 5.00365 14.2633 4.69421 13.9538C4.38478 13.6444 4.21094 13.2247 4.21094 12.7871V14.8496C4.21094 15.2872 4.38478 15.7069 4.69421 16.0163C5.00365 16.3258 5.42333 16.4996 5.86094 16.4996H28.1359C28.5735 16.4996 28.9932 16.3258 29.3027 16.0163C29.6121 15.7069 29.7859 15.2872 29.7859 14.8496V12.7871C29.7859 13.2247 29.6121 13.6444 29.3027 13.9538C28.9932 14.2633 28.5735 14.4371 28.1359 14.4371Z" fill="#EABD00"/>
<path d="M22.7734 5.3623V10.7248C22.7734 11.1624 22.9473 11.5821 23.2567 11.8915C23.5661 12.201 23.9858 12.3748 24.4234 12.3748H29.7727L23.2622 5.3623H22.7734Z" fill="#76D1FF"/>
<path d="M19.0625 16.4586V7.0123C19.0625 6.5747 19.2363 6.15501 19.5458 5.84558C19.8552 5.53614 20.2749 5.3623 20.7125 5.3623H23.2638C23.4989 5.36232 23.7314 5.41261 23.9455 5.50979C24.1597 5.60697 24.3505 5.7488 24.5054 5.92578L29.3791 11.4957C29.6424 11.7965 29.7875 12.1826 29.7875 12.5823V14.8498C29.7875 15.2874 29.6137 15.7071 29.3042 16.0165C28.9948 16.326 28.5751 16.4998 28.1375 16.4998" stroke="black" stroke-width="1.65" stroke-linecap="round" stroke-linejoin="round"/>
<path d="M15.3516 16.5H20.8579" stroke="black" stroke-width="1.65" stroke-linecap="round" stroke-linejoin="round"/>
<path d="M19.0609 7.0123C19.0609 6.5747 18.8871 6.15501 18.5777 5.84558C18.2682 5.53614 17.8485 5.3623 17.4109 5.3623H5.86094C5.42333 5.3623 5.00365 5.53614 4.69421 5.84558C4.38478 6.15501 4.21094 6.5747 4.21094 7.0123V14.8498C4.21094 15.2874 4.38478 15.7071 4.69421 16.0165C5.00365 16.326 5.42333 16.4998 5.86094 16.4998H8.06732" stroke="black" stroke-width="1.65" stroke-linecap="round" stroke-linejoin="round"/>
<path d="M10.4008 19.7996C11.7677 19.7996 12.8758 18.6915 12.8758 17.3246C12.8758 15.9577 11.7677 14.8496 10.4008 14.8496C9.03388 14.8496 7.92578 15.9577 7.92578 17.3246C7.92578 18.6915 9.03388 19.7996 10.4008 19.7996Z" fill="#3A3A3A" stroke="black" stroke-width="1.65" stroke-linecap="round" stroke-linejoin="round"/>
<path d="M23.1859 19.7996C24.5528 19.7996 25.6609 18.6915 25.6609 17.3246C25.6609 15.9577 24.5528 14.8496 23.1859 14.8496C21.819 14.8496 20.7109 15.9577 20.7109 17.3246C20.7109 18.6915 21.819 19.7996 23.1859 19.7996Z" fill="#3A3A3A" stroke="black" stroke-width="1.65" stroke-linecap="round" stroke-linejoin="round"/>
<path d="M29.7562 12.3754H24.4234C23.9858 12.3754 23.5661 12.2016 23.2567 11.8921C22.9473 11.5827 22.7734 11.163 22.7734 10.7254V7.83789" stroke="black" stroke-width="1.65" stroke-linecap="round" stroke-linejoin="round"/>
</svg>
