<svg width="29" height="22" viewBox="0 0 29 22" fill="none" xmlns="http://www.w3.org/2000/svg">
<path d="M26.5508 1.81562V19.0805H1.44922V1.81562C1.44922 0.935156 2.16016 0.21875 3.04609 0.21875H24.9594C25.8398 0.21875 26.5508 0.935156 26.5508 1.81562Z" fill="#D3D9D9"/>
<path d="M26.5516 1.81562V19.0805H24.9602V1.81562C24.9602 0.935156 24.2438 0.21875 23.3633 0.21875H24.9547C25.8406 0.21875 26.5516 0.935156 26.5516 1.81562Z" fill="#A8B2B4"/>
<path d="M4.63203 0.21875C3.75156 0.21875 3.03516 0.935156 3.03516 1.81562V19.0805H1.44922V1.81562C1.44922 0.935156 2.16016 0.21875 3.04062 0.21875H4.63203Z" fill="#EDEDED"/>
<path d="M11.8508 12.1848L15.843 6.79805L20.825 9.51602L24.9648 5.05898V2.25352C24.9648 2.00742 24.768 1.81055 24.5273 1.81055H3.47812C3.2375 1.81055 3.03516 2.00742 3.03516 2.25352V14.241L7.16406 10.0191L11.8508 12.1848Z" fill="#0045AD"/>
<path d="M20.825 9.52148L15.843 6.80352L11.8508 12.1848L7.16406 10.0191L3.03516 14.241V17.4895H24.9648V5.06445L20.825 9.52148Z" fill="#201DB8"/>
<path d="M27.7812 19.0801V20.1465C27.7812 21.0434 27.0539 21.7762 26.1516 21.7762H1.84844C0.946094 21.7762 0.21875 21.0488 0.21875 20.1465V19.0801H27.7812Z" fill="#A8B2B4"/>
<path d="M3.43984 21.7762H1.84297C0.946094 21.7762 0.21875 21.0488 0.21875 20.1465V19.0801H1.81563V20.1465C1.81563 21.0488 2.54297 21.7762 3.43984 21.7762Z" fill="#D3D9D9"/>
<path d="M27.7812 19.0801V20.1465C27.7812 21.0434 27.0539 21.7762 26.1516 21.7762H24.5547C25.4516 21.7762 26.1844 21.0488 26.1844 20.1465V19.0801H27.7812Z" fill="#7C8B8E"/>
<path d="M17.9602 19.0801V19.8457C17.9602 20.1137 17.7414 20.327 17.4789 20.327H10.5281C10.2602 20.327 10.0469 20.1082 10.0469 19.8457V19.0801H17.9602Z" fill="white"/>
<path d="M17.9594 19.0801V19.8512C17.9594 20.1191 17.7406 20.3324 17.4781 20.3324H16.1875C16.4555 20.3324 16.6687 20.1191 16.6687 19.8512V19.0801H17.9594Z" fill="#EDEDED"/>
<path d="M8.12344 10.0246C8.12344 10.5715 7.675 11.0199 7.12813 11.0199C6.58125 11.0199 6.13281 10.577 6.13281 10.0246C6.13281 9.47227 6.58125 9.0293 7.12813 9.0293C7.675 9.0293 8.12344 9.47773 8.12344 10.0246Z" fill="white"/>
<path d="M16.8617 6.79805C16.8617 7.34492 16.4188 7.79336 15.8664 7.79336C15.3141 7.79336 14.8711 7.34492 14.8711 6.79805C14.8711 6.25117 15.3141 5.80273 15.8664 5.80273C16.4188 5.80273 16.8617 6.25117 16.8617 6.79805Z" fill="white"/>
<path d="M21.8227 9.52168C21.8227 10.0686 21.3797 10.517 20.8273 10.517C20.275 10.517 19.832 10.0686 19.832 9.52168C19.832 8.9748 20.275 8.52637 20.8273 8.52637C21.3797 8.52637 21.8227 8.9748 21.8227 9.52168Z" fill="white"/>
<path d="M12.8578 12.1789C12.8578 12.7258 12.4094 13.1742 11.8625 13.1742C11.3102 13.1742 10.8672 12.7258 10.8672 12.1789C10.8672 11.632 11.3102 11.1836 11.8625 11.1836C12.4094 11.1836 12.8578 11.632 12.8578 12.1789Z" fill="white"/>
<path d="M8.12266 10.0248C8.12266 10.5717 7.67422 11.0201 7.12734 11.0201C6.70625 11.0201 6.35078 10.7576 6.20312 10.3912C6.31797 10.435 6.44375 10.4623 6.575 10.4623C7.12187 10.4623 7.57031 10.0193 7.57031 9.46699C7.57031 9.33574 7.54844 9.21543 7.49922 9.10059C7.86563 9.24824 8.12266 9.60918 8.12266 10.0248Z" fill="#EDEDED"/>
<path d="M16.8609 6.79785C16.8609 7.34473 16.418 7.79316 15.8656 7.79316C15.4445 7.79316 15.0891 7.53066 14.9414 7.16426C15.0562 7.21348 15.1766 7.23535 15.3078 7.23535C15.8547 7.23535 16.3031 6.78691 16.3031 6.24004C16.3031 6.10879 16.2758 5.98301 16.232 5.86816C16.6039 6.02129 16.8609 6.38223 16.8609 6.79785Z" fill="#EDEDED"/>
<path d="M21.8219 9.5209C21.8219 10.0678 21.3789 10.5162 20.8266 10.5162C20.4055 10.5162 20.05 10.2592 19.9023 9.89277C20.0172 9.93652 20.143 9.96387 20.2688 9.96387C20.8156 9.96387 21.2641 9.51543 21.2641 8.96855C21.2641 8.8373 21.2367 8.71152 21.193 8.59668C21.5594 8.74434 21.8219 9.10527 21.8219 9.5209Z" fill="#EDEDED"/>
<path d="M12.857 12.1791C12.857 12.726 12.4086 13.1744 11.8617 13.1744C11.4406 13.1744 11.0852 12.9119 10.9375 12.5455C11.0523 12.5947 11.1727 12.6166 11.3039 12.6166C11.8508 12.6166 12.2992 12.1682 12.2992 11.6213C12.2992 11.49 12.2773 11.3697 12.2281 11.2549C12.5945 11.4025 12.857 11.758 12.857 12.1791Z" fill="#EDEDED"/>
<path d="M27.7812 18.8672H26.7695V1.81562C26.7695 0.814844 25.9547 0 24.9539 0H3.04062C2.03984 0 1.225 0.814844 1.225 1.81562V18.8617H0.21875C0.0984375 18.8617 0 18.9602 0 19.0805V20.1469C0 21.1641 0.825781 21.9953 1.84844 21.9953H26.157C27.1742 21.9953 28.0055 21.1695 28.0055 20.1469V19.0805C28 18.9602 27.9016 18.8672 27.7812 18.8672ZM10.2594 19.3047H17.7352V19.8516C17.7352 19.9992 17.6148 20.1141 17.4727 20.1141H10.5273C10.3797 20.1141 10.2648 19.9937 10.2648 19.8516V19.3047H10.2594ZM1.66797 1.81562C1.66797 1.05547 2.28594 0.4375 3.04609 0.4375H24.9594C25.7195 0.4375 26.3375 1.05547 26.3375 1.81562V18.8617H1.66797V1.81562ZM27.5625 20.1469C27.5625 20.9234 26.9281 21.5578 26.1516 21.5578H1.84844C1.07187 21.5578 0.4375 20.9234 0.4375 20.1469V19.2992H9.82188V19.8461C9.82188 20.2344 10.1391 20.5461 10.5219 20.5461H17.4727C17.8609 20.5461 18.1727 20.2289 18.1727 19.8461V19.2992H27.5625V20.1469Z" fill="#333333"/>
<path d="M24.5219 1.59668H3.47812C3.11719 1.59668 2.81641 1.89199 2.81641 2.2584V17.4943C2.81641 17.6146 2.91484 17.7131 3.03516 17.7131H24.9594C25.0797 17.7131 25.1781 17.6146 25.1781 17.4943V2.25293C25.1836 1.89199 24.8883 1.59668 24.5219 1.59668ZM3.47812 2.03418H24.5219C24.6422 2.03418 24.7406 2.13262 24.7406 2.2584V4.98184L21.4703 8.50371C21.2844 8.3834 21.0602 8.3123 20.8195 8.3123C20.4367 8.3123 20.0977 8.4873 19.8789 8.76074L17.0078 7.19121C17.0516 7.06543 17.0734 6.93418 17.0734 6.79746C17.0734 6.13027 16.532 5.5834 15.8594 5.5834C15.1922 5.5834 14.6453 6.13027 14.6453 6.79746C14.6453 7.10918 14.7656 7.39356 14.9625 7.61231L12.3867 11.0904C12.2281 11.0139 12.0477 10.9646 11.8562 10.9646C11.4461 10.9646 11.0797 11.1725 10.8609 11.4896L8.30703 10.3084C8.32891 10.2209 8.33984 10.1279 8.33984 10.0295C8.33984 9.36231 7.79297 8.81543 7.12578 8.81543C6.45859 8.81543 5.91172 9.36231 5.91172 10.0295C5.91172 10.2975 5.99922 10.5436 6.14688 10.7459L3.25391 13.71V2.25293C3.25391 2.13262 3.35781 2.03418 3.47812 2.03418ZM20.825 8.74434C21.2516 8.74434 21.6016 9.09434 21.6016 9.5209C21.6016 9.94746 21.2516 10.2975 20.825 10.2975C20.3984 10.2975 20.0484 9.94746 20.0484 9.5209C20.0484 9.09434 20.3984 8.74434 20.825 8.74434ZM15.0938 6.79746C15.0938 6.3709 15.4438 6.0209 15.8703 6.0209C16.2969 6.0209 16.6469 6.3709 16.6469 6.79746C16.6469 7.22402 16.2969 7.57402 15.8703 7.57402C15.4383 7.57402 15.0938 7.22949 15.0938 6.79746ZM11.8617 11.4021C12.2883 11.4021 12.6383 11.7521 12.6383 12.1787C12.6383 12.6053 12.2883 12.9553 11.8617 12.9553C11.4352 12.9553 11.0852 12.6053 11.0852 12.1787C11.0852 11.7521 11.4297 11.4021 11.8617 11.4021ZM6.34922 10.024C6.34922 9.59746 6.69922 9.24746 7.12578 9.24746C7.55234 9.24746 7.90234 9.59746 7.90234 10.024C7.90234 10.4506 7.55234 10.8006 7.12578 10.8006C6.69922 10.8006 6.34922 10.4561 6.34922 10.024ZM3.25391 17.2701V14.3279L6.46406 11.0412C6.65547 11.167 6.87969 11.2381 7.12578 11.2381C7.54141 11.2381 7.91328 11.0248 8.13203 10.7076L10.6859 11.8889C10.6641 11.9818 10.6477 12.0803 10.6477 12.1787C10.6477 12.8459 11.1945 13.3928 11.8617 13.3928C12.5289 13.3928 13.0758 12.8459 13.0758 12.1787C13.0758 11.8561 12.95 11.5662 12.7477 11.3475L15.318 7.88027C15.482 7.9623 15.668 8.01152 15.8703 8.01152C16.2477 8.01152 16.5812 7.84199 16.8055 7.57402L19.6766 9.14355C19.6383 9.26387 19.6164 9.38965 19.6164 9.5209C19.6164 10.1881 20.1633 10.735 20.8305 10.735C21.4977 10.735 22.0445 10.1881 22.0445 9.5209C22.0445 9.24746 21.9516 8.9959 21.8039 8.79356L24.7516 5.61621V17.2701H3.25391Z" fill="#333333"/>
</svg>
