<svg width="91" height="91" viewBox="0 0 91 91" fill="none" xmlns="http://www.w3.org/2000/svg">
<g filter="url(#filter0_f_324_8795)">
<circle cx="45.4386" cy="45.3068" r="26.9554" stroke="#000AFB" stroke-width="6.95865"/>
</g>
<path d="M33.8218 51.3447V39.8313L34.8314 40.8764H31.2003V38.9457H36.1245V51.3447H33.8218ZM43.402 51.5219C42.4219 51.5219 41.5362 51.2739 40.7451 50.7779C39.9657 50.282 39.3517 49.5616 38.9029 48.6169C38.4542 47.6604 38.2298 46.5032 38.2298 45.1452C38.2298 43.7872 38.4542 42.6359 38.9029 41.6912C39.3517 40.7347 39.9657 40.0085 40.7451 39.5125C41.5362 39.0165 42.4219 38.7686 43.402 38.7686C44.3939 38.7686 45.2796 39.0165 46.0589 39.5125C46.8383 40.0085 47.4524 40.7347 47.9011 41.6912C48.3616 42.6359 48.5919 43.7872 48.5919 45.1452C48.5919 46.5032 48.3616 47.6604 47.9011 48.6169C47.4524 49.5616 46.8383 50.282 46.0589 50.7779C45.2796 51.2739 44.3939 51.5219 43.402 51.5219ZM43.402 49.5203C43.9806 49.5203 44.4825 49.3668 44.9076 49.0598C45.3327 48.7409 45.6634 48.2568 45.8995 47.6073C46.1475 46.9578 46.2715 46.1371 46.2715 45.1452C46.2715 44.1415 46.1475 43.3208 45.8995 42.6831C45.6634 42.0336 45.3327 41.5554 44.9076 41.2484C44.4825 40.9295 43.9806 40.7701 43.402 40.7701C42.847 40.7701 42.351 40.9295 41.9141 41.2484C41.489 41.5554 41.1525 42.0336 40.9045 42.6831C40.6683 43.3208 40.5502 44.1415 40.5502 45.1452C40.5502 46.1371 40.6683 46.9578 40.9045 47.6073C41.1525 48.2568 41.489 48.7409 41.9141 49.0598C42.351 49.3668 42.847 49.5203 43.402 49.5203ZM51.5296 51.3447L59.9964 38.9457H61.7323L53.2655 51.3447H51.5296ZM52.557 45.6235C51.9783 45.6235 51.4647 45.4818 51.0159 45.1983C50.5672 44.9149 50.2189 44.5193 49.9709 44.0116C49.7229 43.5038 49.5989 42.9075 49.5989 42.2226C49.5989 41.5377 49.7229 40.9413 49.9709 40.4336C50.2189 39.9258 50.5672 39.5302 51.0159 39.2468C51.4647 38.9634 51.9783 38.8217 52.557 38.8217C53.1592 38.8217 53.6788 38.9634 54.1157 39.2468C54.5644 39.5302 54.9128 39.9258 55.1608 40.4336C55.4087 40.9413 55.5327 41.5377 55.5327 42.2226C55.5327 42.9075 55.4087 43.5038 55.1608 44.0116C54.9128 44.5193 54.5644 44.9149 54.1157 45.1983C53.6788 45.4818 53.1592 45.6235 52.557 45.6235ZM52.5747 44.3835C53.047 44.3835 53.4131 44.2005 53.6729 43.8344C53.9445 43.4566 54.0803 42.9193 54.0803 42.2226C54.0803 41.5259 53.9445 40.9945 53.6729 40.6284C53.4131 40.2505 53.047 40.0616 52.5747 40.0616C52.1023 40.0616 51.7245 40.2505 51.441 40.6284C51.1694 41.0063 51.0336 41.5377 51.0336 42.2226C51.0336 42.9075 51.1694 43.4389 51.441 43.8167C51.7245 44.1946 52.1023 44.3835 52.5747 44.3835ZM60.6872 51.4687C60.1086 51.4687 59.5949 51.327 59.1462 51.0436C58.6974 50.7602 58.3491 50.3646 58.1011 49.8568C57.8531 49.3491 57.7291 48.7527 57.7291 48.0678C57.7291 47.3829 57.8531 46.7866 58.1011 46.2788C58.3491 45.7711 58.6974 45.3755 59.1462 45.0921C59.5949 44.8087 60.1086 44.667 60.6872 44.667C61.2894 44.667 61.809 44.8087 62.2459 45.0921C62.6947 45.3755 63.043 45.7711 63.291 46.2788C63.539 46.7866 63.663 47.3829 63.663 48.0678C63.663 48.7527 63.539 49.3491 63.291 49.8568C63.043 50.3646 62.6947 50.7602 62.2459 51.0436C61.809 51.327 61.2894 51.4687 60.6872 51.4687ZM60.6872 50.2288C61.1595 50.2288 61.5315 50.0399 61.8031 49.662C62.0747 49.2841 62.2105 48.7527 62.2105 48.0678C62.2105 47.3829 62.0747 46.8515 61.8031 46.4737C61.5315 46.0958 61.1595 45.9069 60.6872 45.9069C60.2267 45.9069 59.8547 46.0958 59.5713 46.4737C59.2997 46.8397 59.1639 47.3711 59.1639 48.0678C59.1639 48.7645 59.2997 49.3018 59.5713 49.6797C59.8547 50.0458 60.2267 50.2288 60.6872 50.2288Z" fill="white"/>
<circle cx="45.4347" cy="45.3039" r="26.9554" stroke="#000AFB" stroke-width="6.95865"/>
<defs>
<filter id="filter0_f_324_8795" x="0.454009" y="0.322173" width="89.9709" height="89.9689" filterUnits="userSpaceOnUse" color-interpolation-filters="sRGB">
<feFlood flood-opacity="0" result="BackgroundImageFix"/>
<feBlend mode="normal" in="SourceGraphic" in2="BackgroundImageFix" result="shape"/>
<feGaussianBlur stdDeviation="7.27495" result="effect1_foregroundBlur_324_8795"/>
</filter>
</defs>
</svg>
