<svg width="91" height="91" viewBox="0 0 91 91" fill="none" xmlns="http://www.w3.org/2000/svg">
<path d="M34.3731 51.9096C33.4993 51.9096 32.6432 51.7856 31.8048 51.5376C30.9782 51.2778 30.2815 50.9235 29.7146 50.4748L30.6889 48.6858C31.1376 49.0519 31.6808 49.3471 32.3184 49.5714C32.9679 49.7958 33.641 49.908 34.3377 49.908C35.1525 49.908 35.7902 49.7368 36.2507 49.3943C36.7231 49.0519 36.9592 48.5913 36.9592 48.0127C36.9592 47.623 36.8589 47.2806 36.6581 46.9854C36.4692 46.6901 36.1267 46.4658 35.6308 46.3123C35.1466 46.1588 34.4794 46.082 33.6292 46.082H30.6357L31.2734 39.3334H38.5534V41.2641H32.1236L33.3281 40.1659L32.8498 45.2141L31.6454 44.1336H34.1429C35.371 44.1336 36.357 44.2989 37.1009 44.6295C37.8567 44.9484 38.4058 45.3971 38.7482 45.9757C39.1025 46.5425 39.2796 47.192 39.2796 47.9241C39.2796 48.6445 39.1025 49.3058 38.7482 49.908C38.394 50.5102 37.8508 50.9944 37.1186 51.3605C36.3983 51.7265 35.4832 51.9096 34.3731 51.9096ZM45.4257 51.9096C44.4456 51.9096 43.56 51.6616 42.7688 51.1656C41.9894 50.6696 41.3754 49.9493 40.9266 49.0046C40.4779 48.0481 40.2536 46.8909 40.2536 45.5329C40.2536 44.1749 40.4779 43.0236 40.9266 42.0789C41.3754 41.1224 41.9894 40.3962 42.7688 39.9002C43.56 39.4042 44.4456 39.1562 45.4257 39.1562C46.4176 39.1562 47.3033 39.4042 48.0827 39.9002C48.862 40.3962 49.4761 41.1224 49.9248 42.0789C50.3853 43.0236 50.6156 44.1749 50.6156 45.5329C50.6156 46.8909 50.3853 48.0481 49.9248 49.0046C49.4761 49.9493 48.862 50.6696 48.0827 51.1656C47.3033 51.6616 46.4176 51.9096 45.4257 51.9096ZM45.4257 49.908C46.0043 49.908 46.5062 49.7545 46.9313 49.4475C47.3564 49.1286 47.6871 48.6445 47.9232 47.995C48.1712 47.3455 48.2952 46.5248 48.2952 45.5329C48.2952 44.5292 48.1712 43.7085 47.9232 43.0708C47.6871 42.4213 47.3564 41.9431 46.9313 41.6361C46.5062 41.3172 46.0043 41.1578 45.4257 41.1578C44.8707 41.1578 44.3748 41.3172 43.9378 41.6361C43.5127 41.9431 43.1762 42.4213 42.9282 43.0708C42.692 43.7085 42.5739 44.5292 42.5739 45.5329C42.5739 46.5248 42.692 47.3455 42.9282 47.995C43.1762 48.6445 43.5127 49.1286 43.9378 49.4475C44.3748 49.7545 44.8707 49.908 45.4257 49.908ZM53.5533 51.7324L62.0201 39.3334H63.756L55.2892 51.7324H53.5533ZM54.5807 46.0111C54.0021 46.0111 53.4884 45.8694 53.0397 45.586C52.5909 45.3026 52.2426 44.907 51.9946 44.3993C51.7466 43.8915 51.6226 43.2952 51.6226 42.6103C51.6226 41.9254 51.7466 41.329 51.9946 40.8213C52.2426 40.3135 52.5909 39.9179 53.0397 39.6345C53.4884 39.3511 54.0021 39.2094 54.5807 39.2094C55.1829 39.2094 55.7025 39.3511 56.1394 39.6345C56.5881 39.9179 56.9365 40.3135 57.1845 40.8213C57.4325 41.329 57.5564 41.9254 57.5564 42.6103C57.5564 43.2952 57.4325 43.8915 57.1845 44.3993C56.9365 44.907 56.5881 45.3026 56.1394 45.586C55.7025 45.8694 55.1829 46.0111 54.5807 46.0111ZM54.5984 44.7712C55.0707 44.7712 55.4368 44.5882 55.6966 44.2221C55.9682 43.8443 56.104 43.307 56.104 42.6103C56.104 41.9136 55.9682 41.3822 55.6966 41.0161C55.4368 40.6382 55.0707 40.4493 54.5984 40.4493C54.126 40.4493 53.7482 40.6382 53.4648 41.0161C53.1932 41.394 53.0574 41.9254 53.0574 42.6103C53.0574 43.2952 53.1932 43.8266 53.4648 44.2044C53.7482 44.5823 54.126 44.7712 54.5984 44.7712ZM62.7109 51.8564C62.1323 51.8564 61.6186 51.7147 61.1699 51.4313C60.7212 51.1479 60.3728 50.7523 60.1248 50.2445C59.8768 49.7368 59.7528 49.1404 59.7528 48.4555C59.7528 47.7706 59.8768 47.1743 60.1248 46.6665C60.3728 46.1588 60.7212 45.7632 61.1699 45.4798C61.6186 45.1964 62.1323 45.0547 62.7109 45.0547C63.3131 45.0547 63.8327 45.1964 64.2696 45.4798C64.7184 45.7632 65.0667 46.1588 65.3147 46.6665C65.5627 47.1743 65.6867 47.7706 65.6867 48.4555C65.6867 49.1404 65.5627 49.7368 65.3147 50.2445C65.0667 50.7523 64.7184 51.1479 64.2696 51.4313C63.8327 51.7147 63.3131 51.8564 62.7109 51.8564ZM62.7109 50.6165C63.1833 50.6165 63.5552 50.4276 63.8268 50.0497C64.0984 49.6718 64.2342 49.1404 64.2342 48.4555C64.2342 47.7706 64.0984 47.2392 63.8268 46.8614C63.5552 46.4835 63.1833 46.2946 62.7109 46.2946C62.2504 46.2946 61.8784 46.4835 61.595 46.8614C61.3234 47.2274 61.1876 47.7588 61.1876 48.4555C61.1876 49.1522 61.3234 49.6895 61.595 50.0674C61.8784 50.4335 62.2504 50.6165 62.7109 50.6165Z" fill="white"/>
<g filter="url(#filter0_f_324_8790)">
<circle cx="45.4347" cy="45.4347" r="26.9554" stroke="#000AFB" stroke-width="6.95865"/>
</g>
<circle cx="45.4347" cy="45.4347" r="26.9554" stroke="#000AFB" stroke-width="6.95865"/>
<defs>
<filter id="filter0_f_324_8790" x="0.450103" y="0.450103" width="89.9709" height="89.9689" filterUnits="userSpaceOnUse" color-interpolation-filters="sRGB">
<feFlood flood-opacity="0" result="BackgroundImageFix"/>
<feBlend mode="normal" in="SourceGraphic" in2="BackgroundImageFix" result="shape"/>
<feGaussianBlur stdDeviation="7.27495" result="effect1_foregroundBlur_324_8790"/>
</filter>
</defs>
</svg>
