<svg width="91" height="91" viewBox="0 0 91 91" fill="none" xmlns="http://www.w3.org/2000/svg">
<path d="M34.2153 51.9096C33.3414 51.9096 32.4853 51.7856 31.6469 51.5376C30.8203 51.2778 30.1236 50.9235 29.5568 50.4748L30.5487 48.6858C30.9974 49.0519 31.5406 49.3471 32.1783 49.5714C32.816 49.7958 33.4831 49.908 34.1798 49.908C35.0065 49.908 35.65 49.7427 36.1106 49.412C36.5711 49.0696 36.8014 48.609 36.8014 48.0304C36.8014 47.4636 36.5888 47.0149 36.1637 46.6842C35.7386 46.3536 35.0537 46.1883 34.109 46.1883H32.9754V44.6118L36.518 40.3962L36.8191 41.2641H30.159V39.3334H38.6081V40.8744L35.0655 45.0901L33.861 44.3816H34.5518C36.0751 44.3816 37.2147 44.724 37.9704 45.4089C38.738 46.082 39.1218 46.9499 39.1218 48.0127C39.1218 48.7094 38.9446 49.353 38.5904 49.9434C38.2361 50.5338 37.6929 51.0121 36.9608 51.3782C36.2405 51.7324 35.3253 51.9096 34.2153 51.9096ZM45.4458 51.9096C44.4657 51.9096 43.5801 51.6616 42.7889 51.1656C42.0095 50.6696 41.3955 49.9493 40.9467 49.0046C40.498 48.0481 40.2736 46.8909 40.2736 45.5329C40.2736 44.1749 40.498 43.0236 40.9467 42.0789C41.3955 41.1224 42.0095 40.3962 42.7889 39.9002C43.5801 39.4042 44.4657 39.1562 45.4458 39.1562C46.4377 39.1562 47.3234 39.4042 48.1028 39.9002C48.8821 40.3962 49.4962 41.1224 49.9449 42.0789C50.4054 43.0236 50.6357 44.1749 50.6357 45.5329C50.6357 46.8909 50.4054 48.0481 49.9449 49.0046C49.4962 49.9493 48.8821 50.6696 48.1028 51.1656C47.3234 51.6616 46.4377 51.9096 45.4458 51.9096ZM45.4458 49.908C46.0244 49.908 46.5263 49.7545 46.9514 49.4475C47.3765 49.1286 47.7072 48.6445 47.9433 47.995C48.1913 47.3455 48.3153 46.5248 48.3153 45.5329C48.3153 44.5292 48.1913 43.7085 47.9433 43.0708C47.7072 42.4213 47.3765 41.9431 46.9514 41.6361C46.5263 41.3172 46.0244 41.1578 45.4458 41.1578C44.8908 41.1578 44.3949 41.3172 43.9579 41.6361C43.5328 41.9431 43.1963 42.4213 42.9483 43.0708C42.7121 43.7085 42.594 44.5292 42.594 45.5329C42.594 46.5248 42.7121 47.3455 42.9483 47.995C43.1963 48.6445 43.5328 49.1286 43.9579 49.4475C44.3949 49.7545 44.8908 49.908 45.4458 49.908ZM53.5734 51.7324L62.0402 39.3334H63.7761L55.3093 51.7324H53.5734ZM54.6008 46.0111C54.0221 46.0111 53.5085 45.8694 53.0597 45.586C52.611 45.3026 52.2627 44.907 52.0147 44.3993C51.7667 43.8915 51.6427 43.2952 51.6427 42.6103C51.6427 41.9254 51.7667 41.329 52.0147 40.8213C52.2627 40.3135 52.611 39.9179 53.0597 39.6345C53.5085 39.3511 54.0221 39.2094 54.6008 39.2094C55.203 39.2094 55.7226 39.3511 56.1595 39.6345C56.6082 39.9179 56.9566 40.3135 57.2046 40.8213C57.4525 41.329 57.5765 41.9254 57.5765 42.6103C57.5765 43.2952 57.4525 43.8915 57.2046 44.3993C56.9566 44.907 56.6082 45.3026 56.1595 45.586C55.7226 45.8694 55.203 46.0111 54.6008 46.0111ZM54.6185 44.7712C55.0908 44.7712 55.4569 44.5882 55.7167 44.2221C55.9883 43.8443 56.1241 43.307 56.1241 42.6103C56.1241 41.9136 55.9883 41.3822 55.7167 41.0161C55.4569 40.6382 55.0908 40.4493 54.6185 40.4493C54.1461 40.4493 53.7683 40.6382 53.4849 41.0161C53.2133 41.394 53.0775 41.9254 53.0775 42.6103C53.0775 43.2952 53.2133 43.8266 53.4849 44.2044C53.7683 44.5823 54.1461 44.7712 54.6185 44.7712ZM62.731 51.8564C62.1524 51.8564 61.6387 51.7147 61.19 51.4313C60.7412 51.1479 60.3929 50.7523 60.1449 50.2445C59.8969 49.7368 59.7729 49.1404 59.7729 48.4555C59.7729 47.7706 59.8969 47.1743 60.1449 46.6665C60.3929 46.1588 60.7412 45.7632 61.19 45.4798C61.6387 45.1964 62.1524 45.0547 62.731 45.0547C63.3332 45.0547 63.8528 45.1964 64.2897 45.4798C64.7385 45.7632 65.0868 46.1588 65.3348 46.6665C65.5828 47.1743 65.7068 47.7706 65.7068 48.4555C65.7068 49.1404 65.5828 49.7368 65.3348 50.2445C65.0868 50.7523 64.7385 51.1479 64.2897 51.4313C63.8528 51.7147 63.3332 51.8564 62.731 51.8564ZM62.731 50.6165C63.2033 50.6165 63.5753 50.4276 63.8469 50.0497C64.1185 49.6718 64.2543 49.1404 64.2543 48.4555C64.2543 47.7706 64.1185 47.2392 63.8469 46.8614C63.5753 46.4835 63.2033 46.2946 62.731 46.2946C62.2705 46.2946 61.8985 46.4835 61.6151 46.8614C61.3435 47.2274 61.2077 47.7588 61.2077 48.4555C61.2077 49.1522 61.3435 49.6895 61.6151 50.0674C61.8985 50.4335 62.2705 50.6165 62.731 50.6165Z" fill="white"/>
<g filter="url(#filter0_f_324_8780)">
<circle cx="45.4347" cy="45.4347" r="26.9554" stroke="#000AFB" stroke-width="6.95865"/>
</g>
<circle cx="45.4347" cy="45.4347" r="26.9554" stroke="#000AFB" stroke-width="6.95865"/>
<defs>
<filter id="filter0_f_324_8780" x="0.450103" y="0.450103" width="89.9689" height="89.9689" filterUnits="userSpaceOnUse" color-interpolation-filters="sRGB">
<feFlood flood-opacity="0" result="BackgroundImageFix"/>
<feBlend mode="normal" in="SourceGraphic" in2="BackgroundImageFix" result="shape"/>
<feGaussianBlur stdDeviation="7.27495" result="effect1_foregroundBlur_324_8780"/>
</filter>
</defs>
</svg>
