<svg width="65" height="60" viewBox="0 0 65 60" fill="none" xmlns="http://www.w3.org/2000/svg">
<path d="M58.5042 0H5.72113C2.58592 0 0.0760563 2.05352 0 4.71549V43.369C0 46.0141 2.53521 48.169 5.72113 48.169H30.6083V57.645H15.6338C15.2976 57.645 14.9752 57.5983 14.7375 57.8361C14.4997 58.0738 14.3662 58.3962 14.3662 58.7324C14.3662 59.0686 14.4997 59.391 14.7375 59.6287C14.9752 59.8664 15.2976 60 15.6338 60H48.5915C48.9277 60 49.2502 59.8664 49.4879 59.6287C49.7256 59.391 49.8591 59.0686 49.8591 58.7324C49.8591 58.3962 49.7256 58.0738 49.4879 57.8361C49.2502 57.5983 48.9277 57.645 48.5915 57.645H32.7999V48.169H58.5042C61.6901 48.169 64.2253 46.0141 64.2253 43.369V4.8C64.2253 2.15493 61.6901 0 58.5042 0ZM62 43.369C62 44.5944 60.2282 46 58.5042 46H5.72113C4.03099 46 2 44.5944 2 43.369V4.71549C2 3.49859 3.99718 2 5.72113 2H58.5C60.1901 2 62 3.57465 62 4.8V43.369Z" fill="#232323"/>
<path d="M36.5664 16.5893C36.2689 16.4409 35.925 16.4154 35.6089 16.5181C35.2928 16.6209 35.0297 16.8437 34.8762 17.1386L28.048 30.4231C27.972 30.5712 27.9259 30.7329 27.9124 30.8989C27.8989 31.0648 27.9181 31.2318 27.9692 31.3903C28.0202 31.5489 28.1019 31.6958 28.2097 31.8227C28.3175 31.9496 28.4492 32.0541 28.5973 32.1301C28.7455 32.2061 28.9072 32.2522 29.0731 32.2658C29.2391 32.2793 29.4061 32.26 29.5646 32.209C29.7231 32.158 29.8701 32.0763 29.997 31.9685C30.1239 31.8607 30.2284 31.729 30.3044 31.5808L37.1157 18.271C37.2614 17.9743 37.2855 17.6326 37.1829 17.3184C37.0803 17.0043 36.8591 16.7427 36.5664 16.5893Z" fill="#232323"/>
<path d="M44.6696 16.1244C44.4293 15.9005 44.1115 15.7786 43.7831 15.7844C43.4547 15.7902 43.1414 15.9232 42.9091 16.1555C42.6769 16.3877 42.5438 16.701 42.538 17.0294C42.5323 17.3578 42.6542 17.6756 42.8781 17.9159L49.1992 24.2286L42.8781 30.5413C42.7535 30.6573 42.6536 30.7973 42.5843 30.9528C42.5151 31.1083 42.4778 31.2761 42.4748 31.4463C42.4718 31.6165 42.5031 31.7856 42.5669 31.9434C42.6306 32.1013 42.7255 32.2447 42.8459 32.365C42.9663 32.4854 43.1096 32.5803 43.2675 32.644C43.4253 32.7078 43.5944 32.7391 43.7646 32.7361C43.9348 32.7331 44.1026 32.6958 44.2581 32.6266C44.4136 32.5573 44.5536 32.4574 44.6696 32.3328L51.8865 25.1244C52.1239 24.8867 52.2572 24.5645 52.2572 24.2286C52.2572 23.8927 52.1239 23.5705 51.8865 23.3328L44.6696 16.1244Z" fill="#000AFB"/>
<path d="M22.3089 16.1246C22.0712 15.8872 21.749 15.7539 21.4131 15.7539C21.0772 15.7539 20.755 15.8872 20.5173 16.1246L13.3004 23.3415C13.063 23.5792 12.9297 23.9014 12.9297 24.2373C12.9297 24.5732 13.063 24.8954 13.3004 25.1331L20.5173 32.35C20.7576 32.5739 21.0754 32.6958 21.4038 32.69C21.7322 32.6842 22.0455 32.5512 22.2778 32.3189C22.51 32.0867 22.6431 31.7733 22.6489 31.4449C22.6547 31.1165 22.5328 30.7987 22.3089 30.5584L15.9877 24.2457L22.3089 17.9162C22.5462 17.6785 22.6796 17.3563 22.6796 17.0204C22.6796 16.6845 22.5462 16.3623 22.3089 16.1246Z" fill="#000AFB"/>
</svg>
