<svg width="61" height="60" viewBox="0 0 61 60" fill="none" xmlns="http://www.w3.org/2000/svg">
<path d="M42.1671 50.3878C42.1687 48.0744 43.0391 45.8459 44.6059 44.1438C46.1727 42.4417 48.3216 41.3901 50.627 41.1974V13.5567C50.6257 13.1608 50.5083 12.774 50.2893 12.4443C50.0703 12.1145 49.7594 11.8563 49.395 11.7015C49.0307 11.5468 48.6289 11.5023 48.2396 11.5737C47.8502 11.6451 47.4903 11.8292 47.2046 12.1031L16.503 46.4425C15.9016 47.0549 15.1314 47.4745 14.2907 47.6476C13.4499 47.8207 12.5767 47.7396 11.7823 47.4145C10.9878 47.0895 10.3081 46.5353 9.82985 45.8225C9.35158 45.1097 9.09636 44.2707 9.09673 43.4123V18.8018C6.75712 18.6092 4.57884 17.5322 3.00528 15.7902C1.43172 14.0481 0.581163 11.7719 0.626741 9.42477C0.67232 7.07768 1.61061 4.83618 3.25061 3.15652C4.89062 1.47686 7.10907 0.485291 9.4544 0.38366C11.7997 0.282029 14.0956 1.07797 15.8748 2.60947C17.6539 4.14097 18.7826 6.2929 19.0311 8.62725C19.2795 10.9616 18.629 13.3029 17.2121 15.1745C15.7951 17.0462 13.7182 18.3075 11.404 18.7018V43.4123C11.4053 43.8081 11.5227 44.1949 11.7417 44.5247C11.9606 44.8544 12.2716 45.1127 12.6359 45.2675C13.0003 45.4222 13.402 45.4666 13.7914 45.3952C14.1808 45.3239 14.5406 45.1398 14.8264 44.8659L45.528 10.5265C46.1294 9.91403 46.8995 9.4945 47.7403 9.32138C48.581 9.14826 49.4542 9.22939 50.2487 9.55443C51.0431 9.87946 51.7228 10.4337 52.2011 11.1465C52.6794 11.8592 52.9346 12.6983 52.9342 13.5567V41.2973C54.6696 41.5907 56.2848 42.3741 57.5896 43.5552C58.8944 44.7363 59.8342 46.2658 60.2983 47.9635C60.7624 49.6611 60.7314 51.4561 60.209 53.1367C59.6866 54.8174 58.6945 56.3136 57.3497 57.4489C56.005 58.5843 54.3636 59.3115 52.6192 59.5447C50.8748 59.778 49.1 59.5076 47.5042 58.7654C45.9084 58.0232 44.5581 56.8402 43.6124 55.3559C42.6668 53.8716 42.1653 52.1478 42.1671 50.3878ZM16.7875 9.62667C16.7875 8.25769 16.3816 6.91945 15.621 5.78118C14.8604 4.64291 13.7794 3.75573 12.5146 3.23185C11.2499 2.70796 9.85813 2.57089 8.51545 2.83796C7.17277 3.10504 5.93944 3.76427 4.97143 4.73229C4.00341 5.7003 3.34418 6.93363 3.0771 8.27631C2.81003 9.61899 2.9471 11.0107 3.47099 12.2755C3.99488 13.5403 4.88205 14.6213 6.02032 15.3819C7.15859 16.1424 8.49683 16.5484 9.86581 16.5484C11.7016 16.5484 13.4621 15.8191 14.7602 14.5211C16.0583 13.223 16.7875 11.4624 16.7875 9.62667ZM58.3178 50.3878C58.3178 49.0189 57.9118 47.6806 57.1512 46.5423C56.3907 45.4041 55.3097 44.5169 54.0449 43.993C52.7801 43.4691 51.3884 43.3321 50.0457 43.5991C48.703 43.8662 47.4697 44.5254 46.5017 45.4935C45.5337 46.4615 44.8744 47.6948 44.6074 49.0375C44.3403 50.3802 44.4773 51.7719 45.0012 53.0367C45.5251 54.3014 46.4123 55.3825 47.5506 56.143C48.6888 56.9036 50.0271 57.3095 51.3961 57.3095C53.2318 57.3095 54.9924 56.5803 56.2904 55.2822C57.5885 53.9842 58.3178 52.2236 58.3178 50.3878Z" fill="#232323"/>
<path d="M48.0913 54.1511C47.8752 53.9348 47.7539 53.6416 47.7539 53.3359C47.7539 53.0301 47.8752 52.7369 48.0913 52.5206L50.0755 50.5364L48.0913 48.5445C47.8875 48.3258 47.7766 48.0366 47.7818 47.7377C47.7871 47.4388 47.9082 47.1537 48.1196 46.9423C48.3309 46.731 48.6161 46.6099 48.9149 46.6046C49.2138 46.5993 49.503 46.7103 49.7217 46.914L51.706 48.8983L53.7056 46.914C53.8112 46.8007 53.9385 46.7098 54.08 46.6467C54.2216 46.5837 54.3743 46.5498 54.5292 46.5471C54.6841 46.5443 54.838 46.5728 54.9816 46.6308C55.1253 46.6889 55.2557 46.7752 55.3653 46.8848C55.4748 46.9943 55.5612 47.1248 55.6192 47.2684C55.6772 47.4121 55.7057 47.5659 55.703 47.7208C55.7003 47.8757 55.6664 48.0285 55.6033 48.17C55.5403 48.3115 55.4493 48.4389 55.336 48.5445L53.3518 50.5287L55.336 52.5129C55.5532 52.7292 55.6757 53.0228 55.6764 53.3293C55.6771 53.6358 55.5561 53.93 55.3399 54.1472C55.1236 54.3645 54.83 54.4869 54.5235 54.4876C54.217 54.4883 53.9228 54.3673 53.7056 54.1511L51.7213 52.1669L49.7371 54.1511C49.6297 54.2604 49.5017 54.3472 49.3604 54.4064C49.2191 54.4657 49.0674 54.4962 48.9142 54.4962C48.761 54.4962 48.6093 54.4657 48.468 54.4064C48.3267 54.3472 48.1987 54.2604 48.0913 54.1511Z" fill="#000AFB"/>
<path d="M12.5593 9.6283C12.5593 11.1149 11.3542 12.3201 9.86756 12.3201C8.38093 12.3201 7.17578 11.1149 7.17578 9.6283C7.17578 8.14167 8.38093 6.93652 9.86756 6.93652C11.3542 6.93652 12.5593 8.14167 12.5593 9.6283Z" fill="#000AFB"/>
</svg>
