<svg width="38" height="60" viewBox="0 0 38 60" fill="none" xmlns="http://www.w3.org/2000/svg">
<path d="M33.9091 0.00109173H3.33091C2.4717 -0.0211778 1.63868 0.298012 1.01434 0.888739C0.390008 1.47947 0.0252594 2.29357 0 3.1527V56.8473C0.0252594 57.7064 0.390008 58.5205 1.01434 59.1113C1.63868 59.702 2.4717 60.0212 3.33091 59.9989H33.9091C34.7683 60.0212 35.6013 59.702 36.2257 59.1113C36.85 58.5205 37.2148 57.7064 37.24 56.8473V3.1527C37.2148 2.29357 36.85 1.47947 36.2257 0.888739C35.6013 0.298012 34.7683 -0.0211778 33.9091 0.00109173ZM2.06889 8.96628H35.1711V47.5856H2.06889V8.96628ZM3.33091 2.06998H33.9091C34.2194 2.04897 34.5256 2.15067 34.7616 2.35318C34.9977 2.55569 35.1447 2.84281 35.1711 3.1527V6.89739H2.06889V3.1527C2.0953 2.84281 2.24237 2.55569 2.47842 2.35318C2.71447 2.15067 3.02061 2.04897 3.33091 2.06998ZM33.9091 57.93H3.33091C3.02061 57.951 2.71447 57.8493 2.47842 57.6468C2.24237 57.4443 2.0953 57.1572 2.06889 56.8473V49.6545H35.1711V56.8473C35.1447 57.1572 34.9977 57.4443 34.7616 57.6468C34.5256 57.8493 34.2194 57.951 33.9091 57.93Z" fill="#232323"/>
<path d="M18.9643 55.8612C19.9165 55.8612 20.6884 55.0893 20.6884 54.1372C20.6884 53.185 19.9165 52.4131 18.9643 52.4131C18.0121 52.4131 17.2402 53.185 17.2402 54.1372C17.2402 55.0893 18.0121 55.8612 18.9643 55.8612Z" fill="#232323"/>
<path d="M21.1514 23.9038C20.9069 23.7837 20.625 23.7649 20.3668 23.8514C20.1086 23.9379 19.8949 24.1228 19.7721 24.3658L15.6343 32.6414C15.5275 32.8844 15.5182 33.1593 15.6083 33.409C15.6985 33.6587 15.8812 33.8642 16.1187 33.9829C16.3562 34.1017 16.6302 34.1245 16.8841 34.0468C17.1379 33.9691 17.3522 33.7968 17.4826 33.5655L21.6203 25.2899C21.6806 25.1681 21.7163 25.0356 21.7253 24.9C21.7344 24.7645 21.7166 24.6284 21.6731 24.4997C21.6295 24.371 21.561 24.2521 21.4715 24.1498C21.382 24.0476 21.2732 23.964 21.1514 23.9038Z" fill="#232323"/>
<path d="M31.4194 28.2349L26.592 23.4075C26.3959 23.2248 26.1366 23.1253 25.8686 23.13C25.6006 23.1348 25.3449 23.2433 25.1554 23.4329C24.9658 23.6224 24.8573 23.8781 24.8525 24.1461C24.8478 24.4141 24.9473 24.6734 25.13 24.8695L29.2264 28.9659L25.13 33.0623C25.0284 33.157 24.9469 33.2712 24.8903 33.3981C24.8338 33.525 24.8034 33.662 24.8009 33.8009C24.7985 33.9398 24.824 34.0778 24.8761 34.2066C24.9281 34.3354 25.0055 34.4524 25.1038 34.5506C25.202 34.6488 25.319 34.7263 25.4478 34.7783C25.5766 34.8303 25.7146 34.8559 25.8535 34.8534C25.9924 34.851 26.1293 34.8206 26.2562 34.764C26.3831 34.7075 26.4973 34.626 26.592 34.5244L31.4194 29.6969C31.6132 29.503 31.722 29.2401 31.722 28.9659C31.722 28.6918 31.6132 28.4289 31.4194 28.2349Z" fill="#000AFB"/>
<path d="M12.0548 23.615C11.8609 23.4213 11.598 23.3125 11.3238 23.3125C11.0497 23.3125 10.7868 23.4213 10.5928 23.615L5.76542 28.4424C5.5717 28.6364 5.46289 28.8993 5.46289 29.1734C5.46289 29.4476 5.5717 29.7105 5.76542 29.9045L10.5928 34.7319C10.7889 34.9146 11.0483 35.0141 11.3163 35.0093C11.5843 35.0046 11.84 34.896 12.0295 34.7065C12.219 34.517 12.3276 34.2613 12.3323 33.9933C12.337 33.7253 12.2376 33.4659 12.0548 33.2698L7.91706 29.1321L12.0548 24.9943C12.2245 24.8046 12.3183 24.5591 12.3183 24.3047C12.3183 24.0502 12.2245 23.8047 12.0548 23.615Z" fill="#000AFB"/>
</svg>
