<svg width="78" height="71" viewBox="0 0 78 71" fill="none" xmlns="http://www.w3.org/2000/svg">
<path d="M76.5 49H69V17.5C69 17.1022 68.842 16.7206 68.5607 16.4393C68.2794 16.158 67.8978 16 67.5 16H56V1.5C56 1.10218 55.842 0.720644 55.5607 0.43934C55.2794 0.158035 54.8978 0 54.5 0H23.5C23.1022 0 22.7206 0.158035 22.4393 0.43934C22.158 0.720644 22 1.10218 22 1.5V16H10.5C10.1022 16 9.72065 16.158 9.43934 16.4393C9.15804 16.7206 9 17.1022 9 17.5V49H1.5C1.10218 49 0.720644 49.158 0.43934 49.4393C0.158035 49.7206 0 50.1022 0 50.5V69.5C0 69.8978 0.158035 70.2794 0.43934 70.5607C0.720644 70.842 1.10218 71 1.5 71H20.5C20.8978 71 21.2794 70.842 21.5607 70.5607C21.842 70.2794 22 69.8978 22 69.5V50.5C22 50.1022 21.842 49.7206 21.5607 49.4393C21.2794 49.158 20.8978 49 20.5 49H12V19H22V32.5C22 32.8978 22.158 33.2794 22.4393 33.5607C22.7206 33.842 23.1022 34 23.5 34H38V49H29.5C29.1022 49 28.7206 49.158 28.4393 49.4393C28.158 49.7206 28 50.1022 28 50.5V69.5C28 69.8978 28.158 70.2794 28.4393 70.5607C28.7206 70.842 29.1022 71 29.5 71H48.5C48.8978 71 49.2794 70.842 49.5607 70.5607C49.842 70.2794 50 69.8978 50 69.5V50.5C50 50.1022 49.842 49.7206 49.5607 49.4393C49.2794 49.158 48.8978 49 48.5 49H41V34H54.5C54.8978 34 55.2794 33.842 55.5607 33.5607C55.842 33.2794 56 32.8978 56 32.5V19H66V49H57.5C57.1022 49 56.7206 49.158 56.4393 49.4393C56.158 49.7206 56 50.1022 56 50.5V69.5C56 69.8978 56.158 70.2794 56.4393 70.5607C56.7206 70.842 57.1022 71 57.5 71H76.5C76.8978 71 77.2794 70.842 77.5607 70.5607C77.842 70.2794 78 69.8978 78 69.5V50.5C78 50.1022 77.842 49.7206 77.5607 49.4393C77.2794 49.158 76.8978 49 76.5 49ZM19 68H3V52H19V68ZM47 68H31V52H47V68ZM53 31H25V3H53V31ZM75 68H59V52H75V68Z" fill="#000AFB"/>
</svg>
