<svg width="40" height="35" viewBox="0 0 40 35" fill="none" xmlns="http://www.w3.org/2000/svg">
<g clip-path="url(#clip0_280_2)">
<path d="M38.1818 32H1.81818C0.814027 32 0 32.6716 0 33.5C0 34.3284 0.814027 35 1.81818 35H38.1818C39.186 35 40 34.3284 40 33.5C40 32.6716 39.186 32 38.1818 32Z" fill="white"/>
<path d="M38.1818 0H1.81818C0.814027 0 0 0.67155 0 1.5C0 2.32845 0.814027 3 1.81818 3H38.1818C39.186 3 40 2.32845 40 1.5C40 0.67155 39.186 0 38.1818 0Z" fill="white"/>
<path d="M38.1818 16H1.81818C0.814027 16 0 16.6716 0 17.5C0 18.3284 0.814027 19 1.81818 19H38.1818C39.186 19 40 18.3284 40 17.5C40 16.6716 39.186 16 38.1818 16Z" fill="white"/>
</g>
<defs>
<clipPath id="clip0_280_2">
<rect width="40" height="35" fill="white"/>
</clipPath>
</defs>
</svg>
