<svg width="100" height="100" viewBox="0 0 100 100" fill="none" xmlns="http://www.w3.org/2000/svg">
<path d="M70.5086 66.267C70.5036 66.267 70.4976 66.267 70.4926 66.267C69.9696 66.261 69.4876 65.984 69.2196 65.535L54.9616 41.59C54.9216 41.523 54.8876 41.454 54.8586 41.382C53.0806 38.463 52.1426 35.118 52.1426 31.689C52.1606 21.378 60.5566 13 70.8626 13C70.8706 13 70.8776 13 70.8856 13C75.8886 13.007 80.5856 14.961 84.1116 18.501C87.6356 22.038 89.5716 26.74 89.5646 31.739C89.5646 35.117 88.6306 38.444 86.8606 41.381C86.8266 41.477 86.7816 41.569 86.7266 41.658L71.7816 65.563C71.5056 66 71.0246 66.267 70.5086 66.267ZM57.6776 40.287L70.5396 61.888L84.0156 40.333C84.0496 40.241 84.0926 40.151 84.1456 40.066C85.7276 37.539 86.5636 34.659 86.5636 31.738V31.736C86.5706 27.536 84.9446 23.588 81.9856 20.617C79.0256 17.646 75.0816 16.006 70.8816 15.999C70.8756 15.999 70.8686 15.999 70.8616 15.999C62.2066 15.999 55.1566 23.034 55.1426 31.691C55.1426 34.645 55.9736 37.527 57.5446 40.023C57.5986 40.106 57.6426 40.195 57.6776 40.287Z" fill="white"/>
<path d="M70.8684 38.716C70.8634 38.716 70.8584 38.716 70.8524 38.716C68.7404 38.716 66.7514 37.891 65.2564 36.393C63.7594 34.893 62.9374 32.901 62.9414 30.782C62.9434 28.67 63.7694 26.683 65.2674 25.189C66.7634 23.698 68.7494 22.877 70.8624 22.877C70.8644 22.877 70.8674 22.877 70.8704 22.877C75.2354 22.882 78.7844 26.44 78.7804 30.809C78.7784 32.924 77.9524 34.912 76.4544 36.406C74.9594 37.896 72.9764 38.716 70.8684 38.716ZM70.8614 25.877C69.5494 25.877 68.3144 26.387 67.3854 27.314C66.4554 28.241 65.9424 29.475 65.9414 30.787C65.9394 32.104 66.4504 33.342 67.3804 34.274C68.3084 35.204 69.5434 35.716 70.8554 35.716C70.8584 35.716 70.8614 35.716 70.8654 35.716C72.1774 35.716 73.4084 35.207 74.3364 34.282C75.2664 33.355 75.7794 32.12 75.7804 30.807C75.7824 28.093 73.5784 25.881 70.8664 25.878C70.8654 25.877 70.8634 25.877 70.8614 25.877Z" fill="white"/>
<path d="M95.3577 87.5448H5.49966C4.99566 87.5448 4.52566 87.2918 4.24766 86.8708C3.97066 86.4508 3.92266 85.9188 4.12066 85.4548L20.4657 47.2128C20.7017 46.6608 21.2447 46.3018 21.8447 46.3018H60.4127C61.2417 46.3018 61.9127 46.9728 61.9127 47.8018C61.9127 48.6308 61.2417 49.3018 60.4127 49.3018H22.8347L7.77166 84.5438H93.0847L78.4867 50.3938C78.1607 49.6318 78.5147 48.7508 79.2767 48.4248C80.0357 48.0998 80.9197 48.4518 81.2457 49.2148L96.7367 85.4538C96.9347 85.9178 96.8867 86.4498 96.6097 86.8698C96.3317 87.2918 95.8617 87.5448 95.3577 87.5448Z" fill="white"/>
<path d="M70.6864 87.2763C69.9344 87.2763 69.2854 86.7123 69.1984 85.9463C69.1894 85.8723 68.2314 78.4923 57.8984 76.7393C56.9374 76.5763 55.4044 76.4273 53.6284 76.2563C43.8494 75.3103 34.9294 74.0823 33.2094 69.5093C32.0994 66.5593 33.7214 64.3103 35.0234 62.5033C36.4494 60.5253 36.9194 59.6613 36.1914 58.4203C35.7304 57.6343 34.2624 56.9943 32.8424 56.3753C30.0624 55.1633 26.2544 53.5033 26.2344 48.9533C26.2304 48.1243 26.8994 47.4503 27.7274 47.4463C27.7294 47.4463 27.7324 47.4463 27.7344 47.4463C28.5604 47.4463 29.2304 48.1133 29.2344 48.9393C29.2454 51.3593 31.0584 52.3243 34.0424 53.6253C35.9024 54.4363 37.8254 55.2743 38.7804 56.9033C40.5654 59.9473 38.7694 62.4393 37.4584 64.2583C36.2284 65.9643 35.5004 67.0793 36.0184 68.4533C37.2234 71.6563 48.4994 72.7463 53.9184 73.2713C55.7514 73.4483 57.3344 73.6013 58.4004 73.7823C70.9324 75.9093 72.1344 85.2123 72.1794 85.6073C72.2734 86.4303 71.6824 87.1733 70.8594 87.2673C70.8014 87.2733 70.7434 87.2763 70.6864 87.2763Z" fill="white"/>
</svg>
