<svg width="100" height="100" viewBox="0 0 100 100" fill="none" xmlns="http://www.w3.org/2000/svg">
<path d="M91.2677 42.6563C91.2667 42.6374 91.2637 42.6195 91.2617 42.5996C91.2488 42.4205 91.209 42.2494 91.1393 42.0932C91.1333 42.0802 91.1264 42.0703 91.1204 42.0573C91.0398 41.8912 90.9313 41.7419 90.798 41.6165C90.793 41.6116 90.791 41.6056 90.7861 41.6006L77.4627 29.4255V17.2743C77.4627 16.4494 76.794 15.7817 75.9702 15.7817H62.5154L51.1443 5.39067C50.5751 4.87027 49.7025 4.86928 49.1313 5.39067L37.7522 15.7817H25.1264C24.3015 15.7817 23.6338 16.4494 23.6338 17.2743V28.6743L9.48756 41.6006C9.48259 41.6056 9.4806 41.6116 9.47562 41.6165C9.34229 41.7419 9.23383 41.8912 9.15323 42.0573C9.14726 42.0703 9.1393 42.0812 9.13333 42.0942C9.06368 42.2504 9.02388 42.4205 9.01095 42.5996C9.00995 42.6195 9.00597 42.6384 9.00498 42.6583C9.00498 42.6743 9 42.6882 9 42.7041V93.326C9 93.4892 9.03284 93.6444 9.08159 93.7917C9.08856 93.8116 9.09254 93.8305 9.0995 93.8504C9.16418 94.0215 9.2597 94.1757 9.37811 94.3101C9.38507 94.318 9.38706 94.328 9.39403 94.3359C9.4 94.3429 9.40796 94.3469 9.41493 94.3539C9.46368 94.4046 9.51741 94.4494 9.57313 94.4932C9.59801 94.5121 9.6199 94.5349 9.64577 94.5529C9.71144 94.5986 9.78209 94.6354 9.85473 94.6693C9.87264 94.6772 9.88856 94.6902 9.90647 94.6971C10.0866 94.7738 10.2846 94.8175 10.4925 94.8175H89.7781C90.602 94.8175 91.2707 94.1489 91.2707 93.325V42.7031C91.2726 42.6872 91.2687 42.6723 91.2677 42.6563ZM11.9871 46.2295L24.0597 57.2563C24.0756 57.2723 24.0935 57.2872 24.1104 57.3021L35.808 67.9877L11.9871 89.921V46.2295ZM38.0199 70.0086L49.5413 80.532C49.8269 80.7927 50.1871 80.923 50.5483 80.923C50.9085 80.923 51.2697 80.7927 51.5542 80.533L63.0388 70.0573L86.0279 91.8315H14.3194L38.0199 70.0086ZM65.2498 68.0414L88.2876 47.0285V89.8613L65.2498 68.0414ZM88.0826 43.1738L77.4617 52.8603V33.4693L88.0826 43.1738ZM50.1363 8.51405L58.0905 15.7817H42.1791L50.1363 8.51405ZM74.4776 18.7668V30.1021C74.4776 30.125 74.4766 30.1459 74.4776 30.1678V55.5837L61.998 66.9668C61.9891 66.9757 61.9771 66.9787 61.9682 66.9877C61.9642 66.9917 61.9632 66.9976 61.9592 67.0026L50.5493 77.4096L26.6189 55.5519V18.7668H74.4776ZM23.6338 52.8255L12.6299 42.7738L23.6338 32.718V52.8255Z" fill="white"/>
<path d="M50.549 60.9575C53.9828 60.9575 57.2813 59.9038 60.0863 57.9108C60.7589 57.4342 60.9171 56.5018 60.4385 55.8302C59.9619 55.1565 59.0266 54.9993 58.3579 55.4779C56.0594 57.1098 53.3599 57.9725 50.548 57.9725C43.137 57.9725 37.1082 51.9406 37.1082 44.5257C37.1082 37.1078 43.137 31.073 50.548 31.073C55.9758 31.073 60.347 33.7804 62.5957 38.5048V46.6003C62.5957 47.9426 61.5002 49.0342 60.1549 49.0342C58.8753 49.0342 57.6763 47.8371 57.5738 46.5247C57.749 45.8869 57.8504 45.2182 57.8504 44.5247C57.8504 40.3456 54.4465 36.9446 50.2634 36.9446C46.0793 36.9446 42.6763 40.3446 42.6763 44.5247C42.6763 48.7048 46.0793 52.1048 50.2634 52.1048C52.4236 52.1048 54.3708 51.1934 55.7539 49.7406C56.7947 51.1038 58.4097 52.0192 60.1539 52.0192C63.146 52.0192 65.5798 49.5884 65.5798 46.6003V38.1565C65.5798 38.1496 65.5778 38.1426 65.5778 38.1357C65.5768 38.0919 65.5689 38.0481 65.5649 38.0043C65.5589 37.9486 65.5559 37.8919 65.544 37.8381C65.539 37.8133 65.5281 37.7894 65.5211 37.7655C65.5012 37.6929 65.4803 37.6212 65.4504 37.5536C65.4485 37.5506 65.4485 37.5466 65.4465 37.5426C62.7718 31.6222 57.2027 28.0879 50.546 28.0879C41.4893 28.0879 34.1211 35.462 34.1211 44.5257C34.1241 53.5864 41.4922 60.9575 50.549 60.9575ZM50.2654 49.1207C47.7281 49.1207 45.6634 47.059 45.6634 44.5257C45.6634 41.9924 47.7281 39.9307 50.2654 39.9307C52.8027 39.9307 54.8674 41.9914 54.8674 44.5257C54.8674 47.06 52.8027 49.1207 50.2654 49.1207Z" fill="white"/>
</svg>
