<svg width="100" height="100" viewBox="0 0 100 100" fill="none" xmlns="http://www.w3.org/2000/svg">
<path d="M24 24H18C17.6022 24 17.2206 24.158 16.9393 24.4393C16.658 24.7206 16.5 25.1022 16.5 25.5C16.5 25.8978 16.658 26.2794 16.9393 26.5607C17.2206 26.842 17.6022 27 18 27H24C24.3978 27 24.7794 26.842 25.0607 26.5607C25.342 26.2794 25.5 25.8978 25.5 25.5C25.5 25.1022 25.342 24.7206 25.0607 24.4393C24.7794 24.158 24.3978 24 24 24Z" fill="white"/>
<path d="M38 24H32C31.6022 24 31.2206 24.158 30.9393 24.4393C30.658 24.7206 30.5 25.1022 30.5 25.5C30.5 25.8978 30.658 26.2794 30.9393 26.5607C31.2206 26.842 31.6022 27 32 27H38C38.3978 27 38.7794 26.842 39.0607 26.5607C39.342 26.2794 39.5 25.8978 39.5 25.5C39.5 25.1022 39.342 24.7206 39.0607 24.4393C38.7794 24.158 38.3978 24 38 24Z" fill="white"/>
<path d="M84.44 30H82V22.06C81.9974 20.7188 81.4634 19.4333 80.515 18.485C79.5667 17.5366 78.2812 17.0026 76.94 17H15.06C13.7188 17.0026 12.4333 17.5366 11.485 18.485C10.5366 19.4333 10.0026 20.7188 10 22.06V61.94C10.0026 63.2812 10.5366 64.5667 11.485 65.515C12.4333 66.4634 13.7188 66.9974 15.06 67H19V78.44C19.0026 79.6486 19.4839 80.8069 20.3385 81.6615C21.1931 82.5161 22.3514 82.9974 23.56 83H37.44C38.6486 82.9974 39.8069 82.5161 40.6615 81.6615C41.5161 80.8069 41.9974 79.6486 42 78.44V67H49V78.44C49.0026 79.6486 49.4839 80.8069 50.3385 81.6615C51.1931 82.5161 52.3514 82.9974 53.56 83H84.44C85.6486 82.9974 86.8069 82.5161 87.6615 81.6615C88.5161 80.8069 88.9974 79.6486 89 78.44V34.56C88.9974 33.3514 88.5161 32.1931 87.6615 31.3385C86.8069 30.4839 85.6486 30.0026 84.44 30ZM37.44 80H23.56C23.1471 79.9974 22.7518 79.8322 22.4598 79.5402C22.1678 79.2482 22.0026 78.8529 22 78.44V48.56C22.0026 48.1471 22.1678 47.7518 22.4598 47.4598C22.7518 47.1678 23.1471 47.0026 23.56 47H37.44C37.8529 47.0026 38.2482 47.1678 38.5402 47.4598C38.8322 47.7518 38.9974 48.1471 39 48.56V65.49V78.44C38.9974 78.8529 38.8322 79.2482 38.5402 79.5402C38.2482 79.8322 37.8529 79.9974 37.44 80ZM42 64V48.56C41.9974 47.3514 41.5161 46.1931 40.6615 45.3385C39.8069 44.4839 38.6486 44.0026 37.44 44H23.56C22.3514 44.0026 21.1931 44.4839 20.3385 45.3385C19.4839 46.1931 19.0026 47.3514 19 48.56V64H15.06C14.5137 64 13.9897 63.783 13.6034 63.3966C13.217 63.0103 13 62.4863 13 61.94V22.06C13 21.5137 13.217 20.9897 13.6034 20.6034C13.9897 20.217 14.5137 20 15.06 20H76.94C77.4863 20 78.0103 20.217 78.3966 20.6034C78.783 20.9897 79 21.5137 79 22.06V30H53.56C52.3514 30.0026 51.1931 30.4839 50.3385 31.3385C49.4839 32.1931 49.0026 33.3514 49 34.56V64H42ZM86 78.44C85.9974 78.8529 85.8322 79.2482 85.5402 79.5402C85.2482 79.8322 84.8529 79.9974 84.44 80H53.56C53.1471 79.9974 52.7518 79.8322 52.4598 79.5402C52.1678 79.2482 52.0026 78.8529 52 78.44V34.56C52.0026 34.1471 52.1678 33.7518 52.4598 33.4598C52.7518 33.1678 53.1471 33.0026 53.56 33H84.44C84.8529 33.0026 85.2482 33.1678 85.5402 33.4598C85.8322 33.7518 85.9974 34.1471 86 34.56V78.44Z" fill="white"/>
<path d="M69.0057 76.502C70.3864 76.4972 71.5018 75.374 71.497 73.9933C71.4922 72.6126 70.369 71.4972 68.9883 71.502C67.6076 71.5068 66.4922 72.63 66.497 74.0107C66.5018 75.3914 67.625 76.5068 69.0057 76.502Z" fill="white"/>
</svg>
