<svg width="91" height="91" viewBox="0 0 91 91" fill="none" xmlns="http://www.w3.org/2000/svg">
<g filter="url(#filter0_f_324_8785)">
<circle cx="45.4347" cy="45.4347" r="26.9554" stroke="#000AFB" stroke-width="6.95865"/>
</g>
<circle cx="45.4347" cy="45.4347" r="26.9554" stroke="#000AFB" stroke-width="6.95865"/>
<path d="M27.5671 48.6885V47.0944L33.678 39.1058H36.1401L30.1177 47.0944L28.9664 46.7401H38.7971V48.6885H27.5671ZM34.3688 51.5049V48.6885L34.4397 46.7401V44.2426H36.6007V51.5049H34.3688ZM44.5841 51.682C43.604 51.682 42.7183 51.434 41.9271 50.9381C41.1478 50.4421 40.5337 49.7218 40.085 48.7771C39.6363 47.8206 39.4119 46.6634 39.4119 45.3054C39.4119 43.9474 39.6363 42.796 40.085 41.8513C40.5337 40.8948 41.1478 40.1686 41.9271 39.6727C42.7183 39.1767 43.604 38.9287 44.5841 38.9287C45.576 38.9287 46.4616 39.1767 47.241 39.6727C48.0204 40.1686 48.6344 40.8948 49.0832 41.8513C49.5437 42.796 49.774 43.9474 49.774 45.3054C49.774 46.6634 49.5437 47.8206 49.0832 48.7771C48.6344 49.7218 48.0204 50.4421 47.241 50.9381C46.4616 51.434 45.576 51.682 44.5841 51.682ZM44.5841 49.6805C45.1627 49.6805 45.6646 49.5269 46.0897 49.2199C46.5148 48.9011 46.8454 48.4169 47.0816 47.7675C47.3296 47.118 47.4536 46.2973 47.4536 45.3054C47.4536 44.3016 47.3296 43.4809 47.0816 42.8433C46.8454 42.1938 46.5148 41.7155 46.0897 41.4085C45.6646 41.0897 45.1627 40.9303 44.5841 40.9303C44.0291 40.9303 43.5331 41.0897 43.0962 41.4085C42.6711 41.7155 42.3345 42.1938 42.0866 42.8433C41.8504 43.4809 41.7323 44.3016 41.7323 45.3054C41.7323 46.2973 41.8504 47.118 42.0866 47.7675C42.3345 48.4169 42.6711 48.9011 43.0962 49.2199C43.5331 49.5269 44.0291 49.6805 44.5841 49.6805ZM52.7117 51.5049L61.1785 39.1058H62.9143L54.4475 51.5049H52.7117ZM53.739 45.7836C53.1604 45.7836 52.6467 45.6419 52.198 45.3585C51.7493 45.0751 51.4009 44.6795 51.1529 44.1717C50.905 43.664 50.781 43.0676 50.781 42.3827C50.781 41.6978 50.905 41.1015 51.1529 40.5937C51.4009 40.086 51.7493 39.6904 52.198 39.407C52.6467 39.1236 53.1604 38.9818 53.739 38.9818C54.3413 38.9818 54.8608 39.1236 55.2978 39.407C55.7465 39.6904 56.0948 40.086 56.3428 40.5937C56.5908 41.1015 56.7148 41.6978 56.7148 42.3827C56.7148 43.0676 56.5908 43.664 56.3428 44.1717C56.0948 44.6795 55.7465 45.0751 55.2978 45.3585C54.8608 45.6419 54.3413 45.7836 53.739 45.7836ZM53.7567 44.5437C54.2291 44.5437 54.5952 44.3607 54.8549 43.9946C55.1265 43.6167 55.2623 43.0794 55.2623 42.3827C55.2623 41.686 55.1265 41.1546 54.8549 40.7886C54.5952 40.4107 54.2291 40.2218 53.7567 40.2218C53.2844 40.2218 52.9065 40.4107 52.6231 40.7886C52.3515 41.1664 52.2157 41.6978 52.2157 42.3827C52.2157 43.0676 52.3515 43.599 52.6231 43.9769C52.9065 44.3548 53.2844 44.5437 53.7567 44.5437ZM61.8693 51.6289C61.2906 51.6289 60.777 51.4872 60.3282 51.2038C59.8795 50.9204 59.5312 50.5248 59.2832 50.017C59.0352 49.5092 58.9112 48.9129 58.9112 48.228C58.9112 47.5431 59.0352 46.9468 59.2832 46.439C59.5312 45.9312 59.8795 45.5356 60.3282 45.2522C60.777 44.9688 61.2906 44.8271 61.8693 44.8271C62.4715 44.8271 62.9911 44.9688 63.428 45.2522C63.8767 45.5356 64.2251 45.9312 64.4731 46.439C64.721 46.9468 64.845 47.5431 64.845 48.228C64.845 48.9129 64.721 49.5092 64.4731 50.017C64.2251 50.5248 63.8767 50.9204 63.428 51.2038C62.9911 51.4872 62.4715 51.6289 61.8693 51.6289ZM61.8693 50.389C62.3416 50.389 62.7136 50.2 62.9852 49.8222C63.2568 49.4443 63.3926 48.9129 63.3926 48.228C63.3926 47.5431 63.2568 47.0117 62.9852 46.6338C62.7136 46.256 62.3416 46.067 61.8693 46.067C61.4087 46.067 61.0368 46.256 60.7533 46.6338C60.4817 46.9999 60.3459 47.5313 60.3459 48.228C60.3459 48.9247 60.4817 49.462 60.7533 49.8399C61.0368 50.2059 61.4087 50.389 61.8693 50.389Z" fill="white"/>
<defs>
<filter id="filter0_f_324_8785" x="0.450103" y="0.450103" width="89.9689" height="89.9689" filterUnits="userSpaceOnUse" color-interpolation-filters="sRGB">
<feFlood flood-opacity="0" result="BackgroundImageFix"/>
<feBlend mode="normal" in="SourceGraphic" in2="BackgroundImageFix" result="shape"/>
<feGaussianBlur stdDeviation="7.27495" result="effect1_foregroundBlur_324_8785"/>
</filter>
</defs>
</svg>
