<svg width="64" height="64" viewBox="0 0 64 64" fill="none" xmlns="http://www.w3.org/2000/svg">
<path d="M58.8261 52.7089H4.73304C4.35926 52.7089 4.05711 52.4062 4.05711 52.0329V43.2428H0.675933C0.302153 43.2428 0 42.9402 0 42.5669V29.044C0 28.6702 0.302655 28.368 0.675933 28.368H4.07381C4.42796 21.5974 10.0468 16.1973 16.9036 16.1973H46.6543C53.5108 16.1973 59.1302 21.5974 59.4841 28.368L62.882 28.3675C63.2557 28.3675 63.5579 28.6702 63.5579 29.0435V42.5664C63.5579 42.9402 63.2552 43.2424 62.882 43.2424H59.5013V52.0325C59.5013 52.4067 59.1986 52.7089 58.8249 52.7089H58.8261ZM5.40988 51.3565H58.1505V42.5664C58.1505 42.1926 58.4531 41.8904 58.8264 41.8904H62.2071V29.7197H58.8264C58.4526 29.7197 58.1505 29.417 58.1505 29.0437C58.1505 22.7062 52.9937 17.5489 46.6557 17.5489L16.9049 17.5484C10.5674 17.5484 5.41013 22.7052 5.41013 29.0432C5.41013 29.417 5.10747 29.7192 4.7342 29.7192L1.35302 29.7197V41.8904H4.7342C5.10798 41.8904 5.41013 42.1931 5.41013 42.5664L5.40988 51.3565Z" fill="#232323"/>
<path d="M23.6623 63.5268C23.2885 63.5268 22.9863 63.2241 22.9863 62.8508V52.0334C22.9863 51.6596 23.289 51.3574 23.6623 51.3574C24.036 51.3574 24.3382 51.6601 24.3382 52.0334V62.8508C24.3387 63.2246 24.036 63.5268 23.6623 63.5268Z" fill="#232323"/>
<path d="M39.8888 63.5268C39.515 63.5268 39.2129 63.2241 39.2129 62.8508V52.0334C39.2129 51.6596 39.5155 51.3574 39.8888 51.3574C40.2626 51.3574 40.5648 51.6601 40.5648 52.0334V62.8508C40.5652 63.2246 40.2626 63.5268 39.8888 63.5268Z" fill="#232323"/>
<path d="M42.5946 63.5267H20.9572C20.5834 63.5267 20.2812 63.224 20.2812 62.8507C20.2812 62.477 20.5839 62.1748 20.9572 62.1748H42.5946C42.9684 62.1748 43.2706 62.4775 43.2706 62.8507C43.2706 63.2245 42.9684 63.5267 42.5946 63.5267Z" fill="#232323"/>
<path d="M42.5946 58.1175H20.9572C20.5834 58.1175 20.2812 57.8148 20.2812 57.4416C20.2812 57.0678 20.5839 56.7656 20.9572 56.7656H42.5946C42.9684 56.7656 43.2706 57.0683 43.2706 57.4416C43.2706 57.8153 42.9684 58.1175 42.5946 58.1175Z" fill="#232323"/>
<path d="M35.8368 17.547C35.5636 17.547 35.3046 17.3793 35.2031 17.107L31.7802 7.95099L28.3574 17.107C28.2254 17.4568 27.8315 17.6314 27.4872 17.5043C27.1374 17.3734 26.9589 16.9839 27.0898 16.6342L31.147 5.78391C31.3451 5.25562 32.2168 5.25562 32.415 5.78391L36.4721 16.6342C36.6031 16.9839 36.4246 17.3739 36.0748 17.5043C35.9954 17.5338 35.9163 17.547 35.8368 17.547Z" fill="#232323"/>
<path d="M31.7755 6.69554C29.9292 6.69554 28.4277 5.19407 28.4277 3.34777C28.4277 1.50147 29.9292 0 31.7755 0C33.6218 0 35.1233 1.50147 35.1233 3.34777C35.1233 5.19407 33.6213 6.69554 31.7755 6.69554ZM31.7755 1.35229C30.6753 1.35229 29.78 2.24749 29.78 3.34777C29.78 4.448 30.6752 5.34325 31.7755 5.34325C32.8758 5.34325 33.771 4.44805 33.771 3.34777C33.771 2.24754 32.8753 1.35229 31.7755 1.35229Z" fill="#232323"/>
<path d="M18.2541 41.889C14.1534 41.889 10.8164 38.5521 10.8164 34.4514C10.8164 30.3506 14.1534 27.0137 18.2541 27.0137C22.3548 27.0137 25.6918 30.3506 25.6918 34.4514C25.6918 38.5521 22.3548 41.889 18.2541 41.889ZM18.2541 28.3661C14.8984 28.3661 12.1687 31.0958 12.1687 34.4515C12.1687 37.8072 14.8984 40.5369 18.2541 40.5369C21.6098 40.5369 24.3395 37.8072 24.3395 34.4515C24.34 31.0958 21.6103 28.3661 18.2541 28.3661Z" fill="#232323"/>
<path d="M45.299 41.889C41.1983 41.889 37.8613 38.5521 37.8613 34.4514C37.8613 30.3506 41.1983 27.0137 45.299 27.0137C49.3997 27.0137 52.7367 30.3506 52.7367 34.4514C52.7367 38.5521 49.3992 41.889 45.299 41.889ZM45.299 28.3661C41.9433 28.3661 39.2136 31.0958 39.2136 34.4515C39.2136 37.8072 41.9433 40.5369 45.299 40.5369C48.6547 40.5369 51.3844 37.8072 51.3844 34.4515C51.3844 31.0958 48.6547 28.3661 45.299 28.3661Z" fill="#232323"/>
<path d="M45.2997 36.4794C44.1814 36.4794 43.2715 35.5694 43.2715 34.4511C43.2715 33.3328 44.1814 32.4229 45.2997 32.4229C46.4181 32.4229 47.328 33.3328 47.328 34.4511C47.328 35.5694 46.4181 36.4794 45.2997 36.4794ZM45.2997 33.7746C44.9274 33.7746 44.6238 34.0783 44.6238 34.4506C44.6238 34.8229 44.9274 35.1265 45.2997 35.1265C45.672 35.1265 45.9757 34.8229 45.9757 34.4506C45.9757 34.0783 45.672 33.7746 45.2997 33.7746Z" fill="#232323"/>
<path d="M18.2548 36.4794C17.1364 36.4794 16.2266 35.5694 16.2266 34.4511C16.2266 33.3328 17.1365 32.4229 18.2548 32.4229C19.3732 32.4229 20.2831 33.3328 20.2831 34.4511C20.2836 35.5695 19.3736 36.4794 18.2548 36.4794ZM18.2548 33.7746C17.8825 33.7746 17.5789 34.0783 17.5789 34.4506C17.5789 34.8229 17.8825 35.1265 18.2548 35.1265C18.6271 35.1265 18.9307 34.8229 18.9307 34.4506C18.9312 34.0783 18.6276 33.7746 18.2548 33.7746Z" fill="#232323"/>
</svg>
