<svg width="58" height="58" viewBox="0 0 58 58" fill="none" xmlns="http://www.w3.org/2000/svg">
<path d="M56.0627 3.74391V0.644583C56.0627 0.290382 55.7728 0 55.4181 0H12.2434C11.8892 0 11.5988 0.289922 11.5988 0.644583L11.5993 5.79943H4.51067C2.02318 5.79943 0 7.82307 0 10.3101V53.4848C0 55.9723 2.02364 57.9955 4.51067 57.9955H41.8858C44.3733 57.9955 46.3965 55.9718 46.3965 53.4848V53.4592H55.4178C55.772 53.4592 56.0624 53.1693 56.0624 52.8146V49.7409C57.2158 49.0707 57.9957 47.827 57.9957 46.3967V7.08842C57.9957 5.65763 57.2158 4.4144 56.0624 3.74423L56.0627 3.74391ZM56.7073 19.3315H51.552V7.08788C51.552 5.66387 52.7054 4.51051 54.1294 4.51051C55.5534 4.51051 56.7067 5.66387 56.7067 7.08788V19.3315H56.7073ZM45.1081 53.4846C45.1081 55.2632 43.6648 56.7066 41.8861 56.7066H4.51101C2.73235 56.7066 1.28902 55.2632 1.28902 53.4846V10.3099C1.28902 8.53122 2.73235 7.08788 4.51101 7.08788H41.8861C43.6648 7.08788 45.1081 8.53122 45.1081 10.3099V53.4846ZM54.7741 52.1698H46.3968V10.3103C46.3968 7.82284 44.3732 5.79966 41.8861 5.79966L12.8882 5.79921V1.28853H54.7741V3.27984C54.5615 3.24118 54.3489 3.22185 54.1295 3.22185C51.9967 3.22185 50.2629 4.95506 50.2629 7.08848V46.3968C50.2629 48.5296 51.9961 50.2634 54.1295 50.2634C54.3484 50.2634 54.5615 50.2378 54.7741 50.2054V52.1706V52.1698ZM54.1295 48.9734C52.7055 48.9734 51.5522 47.8201 51.5522 46.3961V20.6201H56.7075V46.3961C56.7075 47.8201 55.5541 48.9734 54.1301 48.9734H54.1295Z" fill="#232323"/>
<path d="M40.5979 10.3105H5.8004C5.2655 10.3105 4.83398 10.7425 4.83398 11.277V24.1649C4.83398 24.6998 5.26595 25.1313 5.8004 25.1313H40.5979C41.1328 25.1313 41.5643 24.6994 41.5643 24.1649L41.5648 11.277C41.5648 10.7421 41.1328 10.3105 40.5984 10.3105H40.5979ZM40.2756 23.8429L6.12251 23.8425V11.5989H40.2756V23.8429Z" fill="#232323"/>
<path d="M9.98924 28.3535H5.47857C5.12437 28.3535 4.83398 28.6434 4.83398 28.9981V33.5088C4.83398 33.863 5.12391 34.1534 5.47857 34.1534H9.98924C10.3434 34.1534 10.6338 33.8634 10.6338 33.5088V28.9981C10.6338 28.6439 10.3439 28.3535 9.98924 28.3535ZM9.34466 32.8642H6.12267V29.6422H9.34466V32.8642Z" fill="#232323"/>
<path d="M9.98924 37.375H5.47857C5.12437 37.375 4.83398 37.6649 4.83398 38.0196V42.5303C4.83398 42.8845 5.12391 43.1748 5.47857 43.1748H9.98924C10.3434 43.1748 10.6338 42.8849 10.6338 42.5303V38.0196C10.6338 37.6654 10.3439 37.375 9.98924 37.375ZM9.34466 41.8857H6.12267V38.6637H9.34466V41.8857Z" fill="#232323"/>
<path d="M9.98924 46.3965H5.47857C5.12437 46.3965 4.83398 46.6864 4.83398 47.0411V51.5517C4.83398 51.9059 5.12391 52.1963 5.47857 52.1963H9.98924C10.3434 52.1963 10.6338 51.9064 10.6338 51.5517V47.0411C10.6338 46.6869 10.3439 46.3965 9.98924 46.3965ZM9.34466 50.9072H6.12267V47.6852H9.34466V50.9072Z" fill="#232323"/>
<path d="M20.2998 28.3535H15.7891C15.4349 28.3535 15.1445 28.6434 15.1445 28.9981V33.5088C15.1445 33.863 15.4345 34.1534 15.7891 34.1534H20.2998C20.654 34.1534 20.9444 33.8634 20.9444 33.5088V28.9981C20.9444 28.6439 20.6544 28.3535 20.2998 28.3535ZM19.6552 32.8642H16.4332V29.6422H19.6552V32.8642Z" fill="#232323"/>
<path d="M20.2998 37.375H15.7891C15.4349 37.375 15.1445 37.6649 15.1445 38.0196V42.5303C15.1445 42.8845 15.4345 43.1748 15.7891 43.1748H20.2998C20.654 43.1748 20.9444 42.8849 20.9444 42.5303V38.0196C20.9444 37.6654 20.6544 37.375 20.2998 37.375ZM19.6552 41.8857H16.4332V38.6637H19.6552V41.8857Z" fill="#232323"/>
<path d="M20.2998 46.3965H15.7891C15.4349 46.3965 15.1445 46.6864 15.1445 47.0411V51.5517C15.1445 51.9059 15.4345 52.1963 15.7891 52.1963H20.2998C20.654 52.1963 20.9444 51.9064 20.9444 51.5517V47.0411C20.9444 46.6869 20.6544 46.3965 20.2998 46.3965ZM19.6552 50.9072H16.4332V47.6852H19.6552V50.9072Z" fill="#232323"/>
<path d="M30.6084 28.3535H26.0977C25.7435 28.3535 25.4531 28.6434 25.4531 28.9981V33.5088C25.4531 33.863 25.743 34.1534 26.0977 34.1534H30.6084C30.9626 34.1534 31.253 33.8634 31.253 33.5088V28.9981C31.253 28.6439 30.963 28.3535 30.6084 28.3535ZM29.9638 32.8642H26.7418V29.6422H29.9638V32.8642Z" fill="#232323"/>
<path d="M30.6084 37.375H26.0977C25.7435 37.375 25.4531 37.6649 25.4531 38.0196V42.5303C25.4531 42.8845 25.743 43.1748 26.0977 43.1748H30.6084C30.9626 43.1748 31.253 42.8849 31.253 42.5303V38.0196C31.253 37.6654 30.963 37.375 30.6084 37.375ZM29.9638 41.8857H26.7418V38.6637H29.9638V41.8857Z" fill="#232323"/>
<path d="M30.6084 46.3965H26.0977C25.7435 46.3965 25.4531 46.6864 25.4531 47.0411V51.5517C25.4531 51.9059 25.743 52.1963 26.0977 52.1963H30.6084C30.9626 52.1963 31.253 51.9064 31.253 51.5517V47.0411C31.253 46.6869 30.963 46.3965 30.6084 46.3965ZM29.9638 50.9072H26.7418V47.6852H29.9638V50.9072Z" fill="#232323"/>
<path d="M40.9189 28.3535H36.4083C36.0541 28.3535 35.7637 28.6434 35.7637 28.9981V33.5088C35.7637 33.863 36.0536 34.1534 36.4083 34.1534H40.9189C41.2731 34.1534 41.5635 33.8634 41.5635 33.5088V28.9981C41.5635 28.6439 41.2736 28.3535 40.9189 28.3535ZM40.2743 32.8642H37.0524V29.6422H40.2743V32.8642Z" fill="#232323"/>
<path d="M40.9189 37.375H36.4083C36.0541 37.375 35.7637 37.6649 35.7637 38.0196V51.552C35.7637 51.9062 36.0536 52.1965 36.4083 52.1965H40.9189C41.2731 52.1965 41.5635 51.9066 41.5635 51.552V38.0196C41.5635 37.6654 41.2736 37.375 40.9189 37.375ZM40.2743 50.9074H37.0524V38.6638H40.2743V50.9074Z" fill="#232323"/>
</svg>
