<svg width="68" height="68" viewBox="0 0 68 68" fill="none" xmlns="http://www.w3.org/2000/svg">
<path d="M33.8614 0C15.1905 0 0 15.1905 0 33.8614C0 52.5322 15.1905 67.7227 33.8614 67.7227C52.5322 67.7227 67.7227 52.5322 67.7227 33.8614C67.7227 15.1905 52.5322 0 33.8614 0ZM60.7506 16.4737H48.8571C46.9724 10.2256 44.0844 5.3226 40.5937 2.54342C49.0097 4.35093 56.2081 9.47418 60.7501 16.4737H60.7506ZM1.84328 34.7766H16.4788C16.5474 40.0759 17.2127 45.0366 18.352 49.4198H5.86883C3.43629 45.0608 1.99273 40.0782 1.84353 34.7766H1.84328ZM34.7754 16.4737V1.88656C39.8623 2.4972 44.3013 8.163 46.9204 16.4737H34.7754ZM47.4569 18.3041C48.6384 22.663 49.3396 27.6461 49.4121 32.9472H34.7754V18.3041H47.4569ZM32.9449 16.4737H20.7994C23.4189 8.1625 27.8575 2.49632 32.9449 1.88656V16.4737ZM32.9449 18.3041V32.9472H18.3082C18.3808 27.6464 19.0819 22.6634 20.2633 18.3041H32.9449ZM16.4776 32.9472H1.84213C1.99181 27.6464 3.43489 22.6634 5.86743 18.3041H18.3506C17.2113 22.687 16.546 27.6472 16.4774 32.9472H16.4776ZM18.3086 34.7771H32.9453V49.4203H20.2637C19.0827 45.0613 18.3816 40.0787 18.3091 34.7771H18.3086ZM32.9453 51.2508V65.8379C27.8583 65.2273 23.4193 59.5615 20.8003 51.2508H32.9453ZM34.7752 51.2508H46.9203C44.3007 59.562 39.8622 65.2282 34.7752 65.8379V51.2508ZM34.7752 49.4204V34.7773H49.412C49.3394 40.0781 48.6383 45.0611 47.4568 49.4204H34.7752ZM51.2425 34.7773H65.878C65.7283 40.0781 64.2853 45.0611 61.8527 49.4204H49.3696C50.5088 45.0375 51.1742 40.0773 51.2428 34.7773H51.2425ZM51.2425 32.9474C51.1739 27.6481 50.5086 22.6874 49.3693 18.3042H61.8525C64.285 22.6632 65.7281 27.6463 65.8778 32.9474H51.2425ZM27.1284 2.54342C23.6376 5.32311 20.7496 10.2261 18.865 16.4737H6.97149C11.514 9.4738 18.7122 4.35055 27.1279 2.54342H27.1284ZM6.972 51.2503H18.8655C20.7501 57.4984 23.6376 62.4014 27.1289 65.1806C18.7129 63.3731 11.5145 58.2498 6.97251 51.2503H6.972ZM40.594 65.1806C44.0848 62.4009 46.9728 57.4979 48.8575 51.2503H60.751C56.2084 58.2502 49.0102 63.3734 40.5945 65.1806H40.594Z" fill="#232323"/>
</svg>
