<svg width="75" height="75" viewBox="0 0 75 75" fill="none" xmlns="http://www.w3.org/2000/svg">
<path d="M74.2059 36.4538C74.2059 27.6731 68.2517 20.2703 60.1658 18.0245V1.15832C60.1658 0.521029 59.6448 0 59.0075 0H1.15832C0.521029 0 0 0.521029 0 1.15832V42.8595C0 43.4968 0.521029 44.0178 1.15832 44.0178H37.4736C40.0334 49.9603 45.5243 54.3275 52.1035 55.3583V57.675H51.4198C50.8407 57.675 50.3426 58.1037 50.2732 58.6829L49.1267 67.5676C48.9528 69.2475 49.4973 70.9267 50.6209 72.178C51.7445 73.4292 53.3663 74.1475 55.0462 74.1475C56.7261 74.1475 58.3479 73.4291 59.4715 72.178C60.5951 70.9269 61.1514 69.2475 60.9657 67.5446L59.8303 58.6829C59.761 58.1037 59.2629 57.675 58.6838 57.675H58.0001V55.3583C67.1626 53.9221 74.2054 45.9989 74.2054 36.4538L74.2059 36.4538ZM2.31664 2.31604H57.849V11.5831H2.31664V2.31604ZM2.31664 41.7004V13.9001H57.849V17.5372C56.9339 17.398 56.007 17.3058 55.0572 17.3058C44.5044 17.3058 35.9098 25.8891 35.9098 36.4532C35.9098 38.2717 36.1764 40.0327 36.6628 41.7009L2.31664 41.7004ZM38.2265 36.4532C38.2265 27.1744 45.779 19.6212 55.0585 19.6212C64.338 19.6212 71.8905 27.1737 71.8905 36.4532C71.8905 45.7315 64.338 53.2853 55.0585 53.2853C45.779 53.2853 38.2265 45.7322 38.2265 36.4532ZM57.7562 70.6142C56.3546 72.1666 53.748 72.1666 52.3464 70.6142C51.6516 69.8383 51.3273 68.8421 51.4313 67.8224L52.4392 59.9686H57.6634L58.6714 67.7878C58.7871 68.8416 58.4628 69.8378 57.7562 70.6142ZM55.6944 57.6632H54.4316V55.5663C54.6401 55.578 54.8369 55.6015 55.0571 55.6015C55.2774 55.6015 55.4859 55.5786 55.6944 55.5668V57.6632Z" fill="#232323"/>
<path d="M68.345 36.4535C68.345 29.1324 62.3908 23.167 55.0585 23.167C47.7374 23.167 41.7832 29.1212 41.7832 36.4423C41.7832 43.7751 47.7374 49.7288 55.0585 49.7288C62.3908 49.74 68.345 43.7746 68.345 36.4535ZM44.0997 36.4535C44.0997 30.407 49.0231 25.4953 55.0579 25.4953C61.1044 25.4953 66.0279 30.4186 66.0279 36.4535C66.0279 42.5 61.1046 47.4234 55.0579 47.4234C49.0109 47.4234 44.0997 42.5001 44.0997 36.4535Z" fill="#232323"/>
<path d="M8.10775 3.47461C6.19642 3.47461 4.63281 5.03822 4.63281 6.94955C4.63281 8.86088 6.19642 10.4245 8.10775 10.4245C10.0191 10.4245 11.5827 8.86088 11.5827 6.94955C11.5827 5.03876 10.0191 3.47461 8.10775 3.47461ZM8.10775 8.10836C7.47046 8.10836 6.94943 7.58733 6.94943 6.95004C6.94943 6.31275 7.47046 5.79172 8.10775 5.79172C8.74504 5.79172 9.26607 6.31275 9.26607 6.95004C9.26607 7.58733 8.74451 8.10836 8.10775 8.10836Z" fill="#232323"/>
<path d="M17.3734 3.47461C15.462 3.47461 13.8984 5.03822 13.8984 6.94955C13.8984 8.86088 15.462 10.4245 17.3734 10.4245C19.2847 10.4245 20.8483 8.86088 20.8483 6.94955C20.8483 5.03876 19.2959 3.47461 17.3734 3.47461ZM17.3734 8.10836C16.7361 8.10836 16.2151 7.58733 16.2151 6.95004C16.2151 6.31275 16.7361 5.79172 17.3734 5.79172C18.0107 5.79172 18.5317 6.31275 18.5317 6.95004C18.5317 7.58733 18.0101 8.10836 17.3734 8.10836Z" fill="#232323"/>
<path d="M26.6527 3.47461C24.7413 3.47461 23.1777 5.03822 23.1777 6.94955C23.1777 8.86088 24.7413 10.4245 26.6527 10.4245C28.564 10.4245 30.1276 8.86088 30.1276 6.94955C30.1281 5.03876 28.564 3.47461 26.6527 3.47461ZM26.6527 8.10836C26.0154 8.10836 25.4943 7.58733 25.4943 6.95004C25.4943 6.31275 26.0154 5.79172 26.6527 5.79172C27.29 5.79172 27.811 6.31275 27.811 6.95004C27.8115 7.58733 27.29 8.10836 26.6527 8.10836Z" fill="#232323"/>
<path d="M31.2756 18.5342H8.10754C7.47025 18.5342 6.94922 19.0552 6.94922 19.6925C6.94922 20.3298 7.47025 20.8508 8.10754 20.8508H31.2756C31.9129 20.8508 32.4339 20.3298 32.4339 19.6925C32.4339 19.0557 31.9129 18.5342 31.2756 18.5342Z" fill="#232323"/>
<path d="M31.2756 26.6436H8.10754C7.47025 26.6436 6.94922 27.1646 6.94922 27.8019C6.94922 28.4392 7.47025 28.9602 8.10754 28.9602H31.2756C31.9129 28.9602 32.4339 28.4392 32.4339 27.8019C32.4339 27.1646 31.9129 26.6436 31.2756 26.6436Z" fill="#232323"/>
<path d="M31.2756 34.751H8.10754C7.47025 34.751 6.94922 35.272 6.94922 35.9093C6.94922 36.5466 7.47025 37.0676 8.10754 37.0676H31.2756C31.9129 37.0676 32.4339 36.5466 32.4339 35.9093C32.4339 35.272 31.9129 34.751 31.2756 34.751Z" fill="#232323"/>
<path d="M61.1867 32.0985C60.735 31.6468 60.0049 31.6468 59.5532 32.0985L53.2982 38.3535L50.5875 35.6428C50.1358 35.1911 49.4058 35.1911 48.954 35.6428C48.5023 36.0945 48.5023 36.8246 48.954 37.2763L52.4871 40.8094C52.7186 41.0409 53.0081 41.1454 53.3095 41.1454C53.6108 41.1454 53.9003 41.0297 54.1318 40.8094L61.198 33.7432C61.639 33.2915 61.6389 32.5503 61.1867 32.0985Z" fill="#232323"/>
</svg>
