<svg width="66" height="66" viewBox="0 0 66 66" fill="none" xmlns="http://www.w3.org/2000/svg">
<path d="M40.5444 11.5918H38.4368C38.4368 14.4972 36.0734 16.8607 33.168 16.8607V18.9682C37.2353 18.9682 40.5444 15.6591 40.5444 11.5918Z" fill="#232323"/>
<path d="M12.0898 59.0111V61.1186C16.1572 61.1186 19.4663 57.8087 19.4663 53.7422H17.3587C17.3587 56.6476 14.9952 59.0111 12.0898 59.0111Z" fill="#232323"/>
<path d="M54.2427 42.151C53.266 42.151 52.3229 42.286 51.4153 42.5146L40.791 20.3011C43.2171 18.1743 44.7586 15.0628 44.7586 11.5915C44.7586 5.20022 39.5584 0 33.1671 0C26.7758 0 21.5756 5.20022 21.5756 11.5915C21.5756 15.0628 23.1172 18.1743 25.5432 20.3011L14.9189 42.5146C14.0114 42.286 13.0682 42.151 12.0915 42.151C5.70022 42.151 0.5 47.3512 0.5 53.7425C0.5 60.1338 5.70022 65.334 12.0915 65.334C18.1276 65.334 23.0949 60.6955 23.6294 54.7963H42.7033C43.2387 60.6955 48.2059 65.334 54.2421 65.334C60.6333 65.334 65.8336 60.1338 65.8336 53.7425C65.8336 47.3512 60.6333 42.151 54.2421 42.151H54.2427ZM23.6832 11.5916C23.6832 6.36268 27.9383 2.10761 33.1672 2.10761C38.3961 2.10761 42.6512 6.36268 42.6512 11.5916C42.6512 16.8204 38.3961 21.0755 33.1672 21.0755C27.9383 21.0755 23.6832 16.8204 23.6832 11.5916ZM27.2787 21.5582C29.0067 22.5833 31.0153 23.1831 33.1672 23.1831C35.3191 23.1831 37.3277 22.5833 39.0557 21.5582L49.4142 43.2178C45.7322 44.9132 43.0854 48.4748 42.7039 52.6891H23.63C23.2476 48.4749 20.6004 44.9133 16.9197 43.2178L27.2787 21.5582ZM12.0911 63.2262C6.86226 63.2262 2.60718 58.9721 2.60718 53.7422C2.60718 48.5124 6.86226 44.2583 12.0911 44.2583C17.32 44.2583 21.5751 48.5124 21.5751 53.7422C21.5751 58.9721 17.32 63.2262 12.0911 63.2262ZM54.2421 63.2262C49.0132 63.2262 44.7581 58.9721 44.7581 53.7422C44.7581 48.5124 49.0132 44.2583 54.2421 44.2583C59.4709 44.2583 63.726 48.5124 63.726 53.7422C63.726 58.9721 59.4709 63.2262 54.2421 63.2262Z" fill="#232323"/>
<path d="M59.5111 53.7422C59.5111 56.6476 57.1476 59.0111 54.2422 59.0111V61.1186C58.3095 61.1186 61.6186 57.8087 61.6186 53.7422H59.5111Z" fill="#232323"/>
</svg>
