<?xml version="1.0" standalone="no"?>
<!DOCTYPE svg PUBLIC "-//W3C//DTD SVG 20010904//EN"
 "http://www.w3.org/TR/2001/REC-SVG-20010904/DTD/svg10.dtd">
<svg version="1.0" xmlns="http://www.w3.org/2000/svg"
 width="700.000000pt" height="700.000000pt" viewBox="0 0 700.000000 700.000000"
 preserveAspectRatio="xMidYMid meet">
<metadata>
Created by potrace 1.14, written by Peter Selinger 2001-2017
</metadata>
<g transform="translate(0.000000,700.000000) scale(0.100000,-0.100000)"
fill="#000000" stroke="none">
<path d="M3295 6990 c-537 -34 -1064 -189 -1512 -445 -902 -515 -1523 -1380
-1717 -2390 -80 -416 -80 -895 0 -1310 134 -697 463 -1315 969 -1820 491 -491
1108 -820 1790 -954 430 -85 904 -87 1330 -5 1393 267 2492 1354 2770 2739 89
446 92 911 9 1350 -233 1228 -1115 2245 -2298 2651 -423 145 -906 211 -1341
184z m-152 -1878 l399 -399 -146 -543 c-80 -299 -149 -547 -153 -551 -5 -4
-251 -73 -548 -152 l-540 -144 -400 395 c-220 217 -401 400 -403 408 -4 14
273 1059 286 1083 8 14 1040 298 1087 300 14 1 149 -128 418 -397z m2179 -579
c219 -219 398 -403 398 -408 0 -13 -288 -1086 -292 -1090 -2 -1 -248 -68 -548
-148 l-545 -146 -403 403 -404 403 142 528 c78 291 145 538 149 548 6 17 96
44 537 163 291 78 538 143 549 143 14 1 147 -126 417 -396z m-1595 -1605 l402
-403 -147 -549 -148 -549 -535 -143 c-294 -79 -541 -144 -549 -144 -8 0 -196
179 -418 398 l-402 397 148 550 148 549 544 147 c300 81 547 147 550 148 3 1
186 -180 407 -401z"/>
</g>
</svg>
