<svg width="56" height="60" viewBox="0 0 56 60" fill="none" xmlns="http://www.w3.org/2000/svg">
<path d="M55.4903 18.1516L28.5112 0.165564C28.1801 -0.0551881 27.7491 -0.0551881 27.418 0.165564L0.438877 18.1516C0.164908 18.3343 0 18.6424 0 18.9716C0 19.3007 0.16425 19.6089 0.438877 19.7915L4.53659 22.5233V36.9202C4.53659 37.2559 4.70742 37.5687 4.98993 37.75L27.5901 52.2388C27.7524 52.3426 27.937 52.3946 28.1223 52.3946C28.3161 52.3946 28.5106 52.3374 28.6775 52.2231L40.4687 44.1787V49.7882L36.076 58.5736C35.9235 58.8792 35.9399 59.2425 36.1187 59.5329C36.298 59.8226 36.616 60 36.957 60H45.9507C46.2923 60 46.6097 59.8226 46.789 59.5329C46.9677 59.2425 46.9848 58.8792 46.8317 58.5736L42.439 49.7882V42.8339L49.9137 37.7342C50.1824 37.5509 50.3434 37.2461 50.3434 36.9202V23.2224L55.4897 19.7915C55.7637 19.6089 55.9286 19.3007 55.9286 18.9716C55.9286 18.6424 55.7643 18.3343 55.4903 18.1516ZM38.5522 58.029L41.4542 52.225L44.3561 58.029H38.5522ZM28.1052 50.2278L6.5076 36.3815V23.8373L27.418 37.7782C27.5835 37.8886 27.7741 37.9438 27.9646 37.9438C28.1551 37.9438 28.3457 37.8886 28.5112 37.7782L40.4687 29.8062V41.7925L28.1052 50.2278ZM48.373 36.3999L42.4397 40.4483V28.4922L48.373 24.5364V36.3999ZM49.0162 21.7389C48.871 21.7927 48.7429 21.8788 48.6391 21.9905L41.4542 26.7807L28.5112 18.1516C28.0572 17.8494 27.4462 17.9723 27.1447 18.4249C26.8431 18.8776 26.9653 19.4899 27.418 19.7915L39.6776 27.9646L27.9646 35.7737L2.76203 18.9716L27.9646 2.17008L53.1672 18.9716L49.0162 21.7389Z" fill="#232323"/>
<path fill-rule="evenodd" clip-rule="evenodd" d="M40.4699 44.1791V49.7886L36.0772 58.5741C35.9247 58.8796 35.9412 59.2429 36.1199 59.5333C36.2992 59.823 36.6172 60.0004 36.9582 60.0004H45.9519C46.2935 60.0004 46.6109 59.823 46.7902 59.5333C46.9689 59.2429 46.986 58.8796 46.8329 58.5741L42.4402 49.7886V42.8343L42.4409 40.4487V28.4926L42.3777 27.9992L42.0492 27.3422L41.4554 26.7811L28.5125 18.152C28.0585 17.8498 27.4475 17.9727 27.1459 18.4254C26.8443 18.878 26.9665 19.4903 27.4192 19.7919L39.6788 27.965L40.0782 28.3277L40.4067 28.9847L40.4699 29.8066V41.7929V44.1791ZM41.3922 52.3082L38.5534 58.0294H44.3574L41.3922 52.3082Z" fill="#000AFB"/>
</svg>
