<svg width="66" height="60" viewBox="0 0 66 60" fill="none" xmlns="http://www.w3.org/2000/svg">
<path d="M64.6479 41.4085H58.3099V14.7887C58.3099 14.4525 58.1763 14.1301 57.9386 13.8924C57.7009 13.6547 57.3784 13.5211 57.0422 13.5211H47.3239V1.26761C47.3239 0.931416 47.1904 0.608995 46.9527 0.371273C46.7149 0.133551 46.3925 0 46.0563 0H19.8592C19.523 0 19.2005 0.133551 18.9628 0.371273C18.7251 0.608995 18.5915 0.931416 18.5915 1.26761V13.5211H8.87324C8.53705 13.5211 8.21463 13.6547 7.97691 13.8924C7.73918 14.1301 7.60563 14.4525 7.60563 14.7887V41.4085H1.26761C0.931416 41.4085 0.608995 41.542 0.371273 41.7797C0.133551 42.0174 0 42.3399 0 42.6761V58.7324C0 59.0686 0.133551 59.391 0.371273 59.6287C0.608995 59.8664 0.931416 60 1.26761 60H17.3239C17.6601 60 17.9826 59.8664 18.2203 59.6287C18.458 59.391 18.5915 59.0686 18.5915 58.7324V42.6761C18.5915 42.3399 18.458 42.0174 18.2203 41.7797C17.9826 41.542 17.6601 41.4085 17.3239 41.4085H10.1408V16.0563H18.5915V27.4648C18.5915 27.801 18.7251 28.1234 18.9628 28.3611C19.2005 28.5988 19.523 28.7324 19.8592 28.7324H32.1127V41.4085H24.9296C24.5934 41.4085 24.271 41.542 24.0332 41.7797C23.7955 42.0174 23.662 42.3399 23.662 42.6761V58.7324C23.662 59.0686 23.7955 59.391 24.0332 59.6287C24.271 59.8664 24.5934 60 24.9296 60H40.9859C41.3221 60 41.6445 59.8664 41.8822 59.6287C42.12 59.391 42.2535 59.0686 42.2535 58.7324V42.6761C42.2535 42.3399 42.12 42.0174 41.8822 41.7797C41.6445 41.542 41.3221 41.4085 40.9859 41.4085H34.6479V28.7324H46.0563C46.3925 28.7324 46.7149 28.5988 46.9527 28.3611C47.1904 28.1234 47.3239 27.801 47.3239 27.4648V16.0563H55.7746V41.4085H48.5915C48.2554 41.4085 47.9329 41.542 47.6952 41.7797C47.4575 42.0174 47.3239 42.3399 47.3239 42.6761V58.7324C47.3239 59.0686 47.4575 59.391 47.6952 59.6287C47.9329 59.8664 48.2554 60 48.5915 60H64.6479C64.9841 60 65.3065 59.8664 65.5442 59.6287C65.7819 59.391 65.9155 59.0686 65.9155 58.7324V42.6761C65.9155 42.3399 65.7819 42.0174 65.5442 41.7797C65.3065 41.542 64.9841 41.4085 64.6479 41.4085ZM16.4789 57.8873H2.11268V43.5211H16.4789V57.8873ZM40.1408 57.8873H25.7746V43.5211H40.1408V57.8873ZM45.2113 26.6197H20.7042V2.11268H45.2113V26.6197ZM63.8028 57.8873H49.4366V43.5211H63.8028V57.8873Z" fill="#232323"/>
<path d="M57.9384 13.8928C58.1761 14.1305 58.3097 14.4529 58.3097 14.7891V41.4088H55.7745V16.0567H47.3238V13.5215H57.0421C57.3783 13.5215 57.7007 13.655 57.9384 13.8928Z" fill="#000AFB"/>
<path d="M8.87307 13.5215H18.5914V16.0567H10.1407V41.4088H7.60547V14.7891C7.60547 14.4529 7.73902 14.1305 7.97674 13.8928C8.21446 13.655 8.53688 13.5215 8.87307 13.5215Z" fill="#000AFB"/>
<path d="M32.1125 41.4088V28.7328H34.6477V41.4088H32.1125Z" fill="#000AFB"/>
</svg>
