<svg width="51" height="60" viewBox="0 0 51 60" fill="none" xmlns="http://www.w3.org/2000/svg">
<path d="M25.7416 35.208C19.4522 35.208 13.4204 37.7065 8.97308 42.1537C4.5258 46.601 2.02734 52.6328 2.02734 58.9222C2.02734 59.2081 2.14091 59.4823 2.34306 59.6845C2.54521 59.8866 2.81938 60.0002 3.10526 60.0002H48.3779C48.6638 60.0002 48.938 59.8866 49.1401 59.6845C49.3423 59.4823 49.4558 59.2081 49.4558 58.9222C49.4558 52.6328 46.9574 46.601 42.5101 42.1537C38.0628 37.7065 32.031 35.208 25.7416 35.208ZM4.20474 57.8515C4.47215 52.3206 6.85756 47.1046 10.8665 43.2848C14.8755 39.4649 20.2006 37.3342 25.738 37.3342C31.2754 37.3342 36.6005 39.4649 40.6095 43.2848C44.6184 47.1046 47.0038 52.3206 47.2712 57.8515H4.20474Z" fill="#232323"/>
<path d="M25.347 5.3418C22.6466 5.3418 20.0068 6.14257 17.7615 7.64285C15.5161 9.14313 13.7661 11.2755 12.7327 13.7704C11.6993 16.2653 11.4289 19.0106 11.9557 21.6591C12.4825 24.3077 13.7829 26.7405 15.6924 28.65C17.6019 30.5595 20.0348 31.8599 22.6833 32.3867C25.3319 32.9136 28.0772 32.6432 30.572 31.6098C33.0669 30.5764 35.1993 28.8263 36.6996 26.581C38.1999 24.3357 39.0007 21.6959 39.0007 18.9954C38.9874 15.3784 37.5447 11.9132 34.987 9.3555C32.4293 6.79781 28.9641 5.35505 25.347 5.3418ZM25.347 30.5436C23.073 30.5436 20.85 29.8692 18.9592 28.6058C17.0684 27.3424 15.5947 25.5467 14.7244 23.4458C13.8542 21.3448 13.6265 19.033 14.0701 16.8026C14.5138 14.5723 15.6088 12.5236 17.2168 10.9156C18.8248 9.30757 20.8735 8.21251 23.1039 7.76887C25.3343 7.32522 27.6461 7.55292 29.747 8.42316C31.848 9.2934 33.6437 10.7671 34.9071 12.6579C36.1705 14.5487 36.8448 16.7717 36.8448 19.0458C36.8316 22.0911 35.616 25.0079 33.4626 27.1613C31.3092 29.3147 28.3924 30.5303 25.347 30.5436Z" fill="#000AFB"/>
<path d="M7.53825 26.2319H8.97548C9.25887 26.2281 9.52936 26.1129 9.72841 25.9112C9.92746 25.7094 10.0391 25.4374 10.039 25.154V12.219C10.0467 12.1449 10.0467 12.0702 10.039 11.9962C11.4094 9.01659 13.6188 6.50117 16.3967 4.75784C19.1746 3.01451 22.4005 2.11892 25.6796 2.18069C28.9586 2.24245 32.1486 3.2589 34.8588 5.10561C37.5691 6.95232 39.6822 9.54917 40.9394 12.5783V25.154C40.9312 25.2304 40.9312 25.3075 40.9394 25.384C40.1143 27.4346 38.8934 29.3026 37.3463 30.8813C37.2409 30.9805 37.1566 31.0999 37.0984 31.2324C37.0401 31.3649 37.0092 31.5078 37.0073 31.6525C37.0055 31.7972 37.0328 31.9408 37.0876 32.0747C37.1425 32.2087 37.2237 32.3302 37.3265 32.432C37.4294 32.5339 37.5516 32.614 37.6861 32.6676C37.8205 32.7212 37.9644 32.7471 38.1091 32.7439C38.2538 32.7407 38.3963 32.7084 38.5283 32.6489C38.6602 32.5894 38.7788 32.5039 38.877 32.3976C40.6289 30.6301 42.0159 28.5351 42.9587 26.2319H43.4402C45.4414 26.2319 47.3606 25.437 48.7756 24.0219C50.1907 22.6069 50.9856 20.6877 50.9856 18.6865C50.9856 16.6853 50.1907 14.7661 48.7756 13.351C47.3606 11.936 45.4414 11.141 43.4402 11.141H42.6569C41.1455 7.81873 38.7099 5.0016 35.6409 3.02605C32.5718 1.0505 28.999 0 25.3491 0C21.6992 0 18.1264 1.0505 15.0573 3.02605C11.9882 5.0016 9.55263 7.81873 8.04128 11.141H7.54544C5.54427 11.141 3.62505 11.936 2.21001 13.351C0.794964 14.7661 0 16.6853 0 18.6865C0 20.6877 0.794964 22.6069 2.21001 24.0219C3.62505 25.437 5.54427 26.2319 7.54544 26.2319H7.53825ZM48.8441 18.6865C48.8422 20.1153 48.2738 21.4851 47.2635 22.4954C46.2531 23.5057 44.8834 24.0742 43.4545 24.0761H43.0952V13.2969H43.4402C44.1489 13.2959 44.8509 13.4346 45.506 13.7049C46.1611 13.9753 46.7566 14.372 47.2584 14.8725C47.7602 15.3729 48.1585 15.9674 48.4306 16.6218C48.7027 17.2762 48.8432 17.9778 48.8441 18.6865ZM7.53825 13.2969H7.88319V24.0761H7.53825C6.10884 24.0761 4.73798 23.5082 3.72723 22.4975C2.71649 21.4868 2.14865 20.1159 2.14865 18.6865C2.14865 17.2571 2.71649 15.8862 3.72723 14.8755C4.73798 13.8647 6.10884 13.2969 7.53825 13.2969Z" fill="#232323"/>
</svg>
